<svg width="412" height="117" viewBox="0 0 412 117" fill="none" xmlns="http://www.w3.org/2000/svg">
<g clip-path="url(#clip0_2509_2617)">
<path d="M100.733 41.1507L101.149 42.2885L100.019 42.6939L99.5904 41.5818L100.733 41.1507ZM105.011 22.0248C105.646 21.7971 106.347 22.122 106.577 22.7504C106.807 23.3788 106.478 24.0728 105.844 24.3005L105.011 22.0248ZM99.8577 22.1565L89.1295 26.0039L88.2967 23.7282L99.0249 19.8808L99.8577 22.1565ZM91.0728 31.3139L101.801 27.4665L102.634 29.7422L91.9057 33.5896L91.0728 31.3139ZM101.801 27.4665C102.538 27.2021 103.014 27.0302 103.363 26.8684C103.697 26.7137 103.803 26.6166 103.853 26.5583L105.723 28.1169C105.351 28.5549 104.888 28.8342 104.4 29.0604C103.927 29.2796 103.329 29.493 102.634 29.7422L101.801 27.4665ZM105.81 23.0252C106.062 23.7133 106.28 24.305 106.413 24.8046C106.55 25.3204 106.629 25.8513 106.528 26.4148L104.121 25.991C104.134 25.916 104.142 25.7731 104.048 25.4203C103.95 25.0513 103.779 24.5796 103.511 23.8497L105.81 23.0252ZM103.853 26.5583C103.991 26.3958 104.083 26.2001 104.121 25.991L106.528 26.4148C106.415 27.0423 106.138 27.6293 105.723 28.1169L103.853 26.5583ZM87.4191 29.6208C87.6863 30.3507 87.8598 30.8216 88.0234 31.1671C88.1796 31.4975 88.2777 31.6026 88.3366 31.6516L86.762 33.5035C86.3197 33.1348 86.0374 32.6766 85.809 32.1936C85.5877 31.7257 85.372 31.1332 85.1202 30.4452L87.4191 29.6208ZM91.9057 33.5896C91.2106 33.8389 90.6129 34.0545 90.1081 34.1859C89.5871 34.3215 89.0508 34.4005 88.4815 34.3003L88.9097 31.9172C88.9855 31.9305 89.1298 31.9378 89.4861 31.8451C89.8589 31.748 90.3355 31.5783 91.0728 31.3139L91.9057 33.5896ZM88.3366 31.6516C88.5007 31.7884 88.6984 31.88 88.9097 31.9172L88.4815 34.3003C87.8477 34.1886 87.2546 33.9138 86.762 33.5035L88.3366 31.6516ZM89.1295 26.0039C88.3922 26.2683 87.9164 26.4402 87.5673 26.602C87.2337 26.7567 87.1276 26.8538 87.078 26.9121L85.2073 25.3535C85.5796 24.9155 86.0426 24.6361 86.5304 24.41C87.0031 24.1909 87.6017 23.9774 88.2967 23.7282L89.1295 26.0039ZM85.1202 30.4452C84.8684 29.7572 84.6507 29.1654 84.5179 28.6658C84.3808 28.15 84.3012 27.6191 84.4023 27.0556L86.8097 27.4794C86.7962 27.5544 86.7889 27.6973 86.8826 28.0501C86.9806 28.4191 87.152 28.8908 87.4191 29.6208L85.1202 30.4452ZM87.078 26.9121C86.9398 27.0746 86.8473 27.2703 86.8097 27.4794L84.4023 27.0556C84.5151 26.4281 84.7928 25.8411 85.2073 25.3535L87.078 26.9121ZM99.0249 19.8808C99.7199 19.6315 100.318 19.4159 100.822 19.2845C101.343 19.1489 101.88 19.0699 102.449 19.1701L102.021 21.5532C101.945 21.5399 101.801 21.5326 101.444 21.6254C101.072 21.7224 100.595 21.8921 99.8577 22.1565L99.0249 19.8808ZM103.511 23.8497C103.244 23.1197 103.071 22.6488 102.907 22.3033C102.751 21.9729 102.653 21.8678 102.594 21.8188L104.168 19.967C104.611 20.3356 104.893 20.7938 105.122 21.2768C105.343 21.7447 105.558 22.3372 105.81 23.0252L103.511 23.8497ZM102.449 19.1701C103.083 19.2818 103.676 19.5566 104.168 19.967L102.594 21.8188C102.43 21.682 102.232 21.5904 102.021 21.5532L102.449 19.1701ZM105.987 49.5639L103.766 43.4953L106.065 42.6709L108.286 48.7395L105.987 49.5639ZM99.9346 44.8694L102.156 50.938L99.8566 51.7624L97.6357 45.6939L99.9346 44.8694ZM102.156 50.938C102.429 51.6853 102.595 52.1305 102.755 52.4346C102.829 52.574 102.879 52.639 102.905 52.667C102.911 52.6737 102.915 52.6777 102.918 52.6801C102.92 52.6824 102.921 52.683 102.921 52.6831C102.92 52.6828 102.92 52.6826 102.921 52.6831L101.884 54.8752C101.239 54.5763 100.858 54.068 100.588 53.555C100.334 53.0731 100.107 52.4455 99.8566 51.7624L102.156 50.938ZM105.598 54.4231C104.908 54.6706 104.276 54.9 103.739 55.0154C103.168 55.1383 102.53 55.1743 101.884 54.8752L102.921 52.6831C102.922 52.6835 102.922 52.6834 102.921 52.6831C102.921 52.6832 102.922 52.6833 102.926 52.6837C102.929 52.6842 102.935 52.685 102.944 52.6852C102.982 52.6869 103.065 52.6835 103.22 52.6502C103.559 52.5773 104.01 52.4181 104.765 52.1474L105.598 54.4231ZM101.156 42.2859C100.401 42.5567 99.9517 42.7207 99.6445 42.8795C99.5036 42.9523 99.438 43.0021 99.4097 43.0277C99.403 43.0335 99.3989 43.0379 99.3965 43.0405C99.3942 43.043 99.3935 43.0436 99.3934 43.0438C99.394 43.0429 99.3939 43.0431 99.3934 43.0438L97.1791 42.0177C97.481 41.3789 97.9944 41.0018 98.5127 40.7339C98.9995 40.4823 99.6335 40.2577 100.323 40.0102L101.156 42.2859ZM97.6357 45.6939C97.3858 45.0108 97.1539 44.385 97.0374 43.8537C96.9132 43.2881 96.8769 42.6563 97.1791 42.0177L99.3934 43.0438C99.3931 43.0444 99.3931 43.0448 99.3934 43.0438C99.3933 43.044 99.3933 43.0449 99.3928 43.0483C99.3923 43.0517 99.3916 43.0577 99.3913 43.0665C99.3896 43.1044 99.393 43.1862 99.4267 43.3399C99.5003 43.6751 99.6611 44.1221 99.9346 44.8694L97.6357 45.6939ZM103.766 43.4953C103.493 42.748 103.327 42.3028 103.167 41.9987C103.093 41.8593 103.043 41.7943 103.017 41.7663C103.011 41.7597 103.006 41.7556 103.004 41.7533C103.001 41.7509 103 41.7499 103 41.7498C103.001 41.7503 103 41.75 103 41.7498L104.037 39.5582C104.682 39.8571 105.063 40.3653 105.334 40.8784C105.588 41.3603 105.815 41.9879 106.065 42.6709L103.766 43.4953ZM100.323 40.0102C101.013 39.7628 101.646 39.5333 102.182 39.4179C102.754 39.295 103.392 39.2591 104.037 39.5582L103 41.7498C102.999 41.7495 102.999 41.7494 103 41.7498C103 41.7497 102.999 41.7501 102.996 41.7496C102.993 41.7491 102.987 41.7484 102.978 41.7481C102.939 41.7464 102.857 41.7498 102.701 41.7832C102.363 41.856 101.911 42.0152 101.156 42.2859L100.323 40.0102ZM108.286 48.7395C108.536 49.4225 108.768 50.0484 108.884 50.5796C109.008 51.1452 109.045 51.777 108.743 52.4157L106.528 51.3895C106.529 51.3886 106.529 51.3889 106.528 51.3895C106.528 51.3893 106.528 51.3885 106.529 51.385C106.529 51.3816 106.53 51.3757 106.53 51.3668C106.532 51.3289 106.529 51.2471 106.495 51.0934C106.421 50.7582 106.261 50.3113 105.987 49.5639L108.286 48.7395ZM104.765 52.1474C105.52 51.8766 105.97 51.7126 106.277 51.5539C106.418 51.4811 106.484 51.4313 106.512 51.4057C106.519 51.3998 106.523 51.3954 106.525 51.3929C106.527 51.3903 106.528 51.3897 106.528 51.3895C106.528 51.3902 106.528 51.3904 106.528 51.3895L108.743 52.4157C108.441 53.0545 107.927 53.4315 107.409 53.6994C106.922 53.951 106.288 54.1757 105.598 54.4231L104.765 52.1474ZM94.0884 39.6388L87.5011 40.9516L87.0185 38.5788L93.6058 37.2659L94.0884 39.6388ZM84.2519 29.4694L85.8533 28.8951L86.6861 31.1708L85.0847 31.7451L84.2519 29.4694ZM80.6306 37.127C80.389 36.467 80.1873 35.9177 80.0524 35.457C79.9143 34.9865 79.8205 34.5284 79.834 34.0445L82.2781 34.1111C82.2746 34.2393 82.2957 34.4248 82.4005 34.7823C82.5083 35.1496 82.6771 35.6128 82.9295 36.3026L80.6306 37.127ZM85.0847 31.7451C84.3878 31.9951 83.9204 32.1633 83.5665 32.3167C83.2221 32.466 83.0646 32.5687 82.9674 32.6536L81.3503 30.8381C81.717 30.518 82.1325 30.2959 82.5859 30.0994C83.0297 29.9071 83.585 29.7086 84.2519 29.4694L85.0847 31.7451ZM79.834 34.0445C79.8682 32.8138 80.4173 31.6524 81.3503 30.8381L82.9674 32.6536C82.5434 33.0237 82.2936 33.5517 82.2781 34.1111L79.834 34.0445ZM87.5011 40.9516C86.3561 41.1798 85.4848 41.371 84.6726 41.257L85.016 38.8605C85.3104 38.9019 85.6804 38.8455 87.0185 38.5788L87.5011 40.9516ZM82.9295 36.3026C83.3944 37.5729 83.538 37.9152 83.7267 38.1428L81.8364 39.6781C81.3161 39.0504 81.0284 38.214 80.6306 37.127L82.9295 36.3026ZM84.6726 41.257C83.5609 41.101 82.5486 40.5375 81.8364 39.6781L83.7267 38.1428C84.0504 38.5335 84.5105 38.7896 85.016 38.8605L84.6726 41.257ZM93.6058 37.2659C94.8877 37.0105 95.9607 36.7944 96.8434 36.7301C97.7605 36.6633 98.6235 36.7451 99.4402 37.1996L98.2418 39.3095C98.0034 39.1768 97.6825 39.0959 97.0229 39.144C96.329 39.1945 95.4325 39.3709 94.0884 39.6388L93.6058 37.2659ZM99.5904 41.5818C98.9714 39.9749 98.637 39.5295 98.2418 39.3095L99.4402 37.1996C100.705 37.9037 101.289 39.1983 101.875 40.7195L99.5904 41.5818ZM101.156 42.2859L101.149 42.2885L100.316 40.0128L100.323 40.0102L101.156 42.2859ZM104.244 22.2996L105.011 22.0248L105.844 24.3005L105.077 24.5753L104.244 22.2996Z" fill="white" fill-opacity="0.3"/>
</g>
<g clip-path="url(#clip1_2509_2617)">
<path d="M328.366 52.0427L327.95 53.1806L329.08 53.586L329.508 52.4739L328.366 52.0427ZM324.088 32.9168C323.453 32.6892 322.752 33.014 322.522 33.6425C322.292 34.2709 322.62 34.9649 323.255 35.1925L324.088 32.9168ZM329.241 33.0486L339.969 36.896L340.802 34.6202L330.074 30.7728L329.241 33.0486ZM338.026 42.206L327.298 38.3586L326.465 40.6343L337.193 44.4817L338.026 42.206ZM327.298 38.3586C326.56 38.0941 326.085 37.9223 325.736 37.7605C325.402 37.6058 325.296 37.5086 325.246 37.4504L323.376 39.009C323.748 39.4469 324.211 39.7263 324.699 39.9525C325.171 40.1716 325.77 40.385 326.465 40.6343L327.298 38.3586ZM323.288 33.9173C323.037 34.6053 322.819 35.197 322.686 35.6967C322.549 36.2125 322.469 36.7433 322.571 37.3069L324.978 36.883C324.964 36.8081 324.957 36.6651 325.051 36.3123C325.149 35.9434 325.32 35.4716 325.587 34.7417L323.288 33.9173ZM325.246 37.4504C325.108 37.2878 325.016 37.0922 324.978 36.883L322.571 37.3069C322.683 37.9343 322.961 38.5214 323.376 39.009L325.246 37.4504ZM341.68 40.5128C341.412 41.2427 341.239 41.7137 341.075 42.0592C340.919 42.3895 340.821 42.4946 340.762 42.5437L342.337 44.3955C342.779 44.0269 343.061 43.5687 343.29 43.0857C343.511 42.6178 343.727 42.0253 343.979 41.3373L341.68 40.5128ZM337.193 44.4817C337.888 44.7309 338.486 44.9466 338.991 45.078C339.512 45.2136 340.048 45.2926 340.617 45.1923L340.189 42.8093C340.113 42.8226 339.969 42.8299 339.613 42.7371C339.24 42.6401 338.763 42.4704 338.026 42.206L337.193 44.4817ZM340.762 42.5437C340.598 42.6805 340.4 42.7721 340.189 42.8093L340.617 45.1923C341.251 45.0807 341.844 44.8059 342.337 44.3955L340.762 42.5437ZM339.969 36.896C340.707 37.1604 341.182 37.3322 341.531 37.4941C341.865 37.6487 341.971 37.7459 342.021 37.8041L343.891 36.2455C343.519 35.8076 343.056 35.5282 342.568 35.302C342.096 35.0829 341.497 34.8695 340.802 34.6202L339.969 36.896ZM343.979 41.3373C344.23 40.6492 344.448 40.0575 344.581 39.5578C344.718 39.0421 344.798 38.5112 344.696 37.9477L342.289 38.3715C342.303 38.4465 342.31 38.5894 342.216 38.9422C342.118 39.3112 341.947 39.7829 341.68 40.5128L343.979 41.3373ZM342.021 37.8041C342.159 37.9667 342.251 38.1624 342.289 38.3715L344.696 37.9477C344.584 37.3202 344.306 36.7331 343.891 36.2455L342.021 37.8041ZM330.074 30.7728C329.379 30.5236 328.781 30.308 328.276 30.1766C327.755 30.0409 327.219 29.962 326.65 30.0622L327.078 32.4453C327.154 32.4319 327.298 32.4246 327.654 32.5174C328.027 32.6145 328.504 32.7841 329.241 33.0486L330.074 30.7728ZM325.587 34.7417C325.854 34.0118 326.028 33.5408 326.192 33.1954C326.348 32.865 326.446 32.7599 326.505 32.7109L324.93 30.859C324.488 31.2276 324.206 31.6858 323.977 32.1688C323.756 32.6367 323.54 33.2292 323.288 33.9173L325.587 34.7417ZM326.65 30.0622C326.016 30.1738 325.423 30.4486 324.93 30.859L326.505 32.7109C326.669 32.5741 326.867 32.4825 327.078 32.4453L326.65 30.0622ZM323.112 60.456L325.333 54.3874L323.034 53.563L320.813 59.6315L323.112 60.456ZM329.164 55.7615L326.943 61.8301L329.242 62.6545L331.463 56.5859L329.164 55.7615ZM326.943 61.8301C326.67 62.5774 326.504 63.0226 326.344 63.3267C326.27 63.4661 326.22 63.5311 326.194 63.5591C326.188 63.5657 326.184 63.5698 326.181 63.5721C326.178 63.5745 326.178 63.5751 326.178 63.5752C326.178 63.5749 326.179 63.5747 326.178 63.5752L327.214 65.7672C327.86 65.4683 328.24 64.9601 328.511 64.447C328.765 63.9651 328.992 63.3375 329.242 62.6545L326.943 61.8301ZM323.501 65.3152C324.191 65.5626 324.823 65.7921 325.359 65.9075C325.931 66.0304 326.569 66.0663 327.214 65.7672L326.178 63.5752C326.177 63.5755 326.177 63.5754 326.178 63.5752C326.177 63.5753 326.177 63.5753 326.173 63.5758C326.17 63.5763 326.164 63.577 326.155 63.5773C326.116 63.579 326.034 63.5756 325.879 63.5422C325.54 63.4694 325.088 63.3102 324.333 63.0395L323.501 65.3152ZM327.942 53.178C328.697 53.4488 329.147 53.6128 329.454 53.7715C329.595 53.8443 329.661 53.8941 329.689 53.9197C329.696 53.9256 329.7 53.93 329.702 53.9325C329.705 53.9351 329.705 53.9357 329.705 53.9359C329.705 53.935 329.705 53.9352 329.705 53.9359L331.92 52.9097C331.618 52.2709 331.104 51.8939 330.586 51.626C330.099 51.3744 329.465 51.1497 328.775 50.9023L327.942 53.178ZM331.463 56.5859C331.713 55.9029 331.945 55.277 332.061 54.7458C332.186 54.1802 332.222 53.5484 331.92 52.9097L329.705 53.9359C329.706 53.9365 329.706 53.9368 329.705 53.9359C329.705 53.9361 329.705 53.9369 329.706 53.9404C329.706 53.9438 329.707 53.9497 329.707 53.9586C329.709 53.9965 329.706 54.0783 329.672 54.232C329.598 54.5672 329.438 55.0141 329.164 55.7615L331.463 56.5859ZM325.333 54.3874C325.606 53.6401 325.772 53.1949 325.932 52.8908C326.006 52.7514 326.056 52.6864 326.082 52.6584C326.088 52.6517 326.092 52.6477 326.095 52.6453C326.097 52.643 326.099 52.6419 326.099 52.6418C326.098 52.6424 326.098 52.6421 326.099 52.6418L325.062 50.4502C324.416 50.7492 324.035 51.2574 323.765 51.7704C323.511 52.2523 323.284 52.8799 323.034 53.563L325.333 54.3874ZM328.775 50.9023C328.085 50.6548 327.453 50.4254 326.916 50.31C326.345 50.1871 325.707 50.1511 325.062 50.4502L326.099 52.6418C326.1 52.6415 326.1 52.6415 326.099 52.6418C326.099 52.6417 326.099 52.6421 326.103 52.6417C326.106 52.6412 326.112 52.6404 326.121 52.6402C326.159 52.6385 326.242 52.6419 326.397 52.6752C326.736 52.7481 327.187 52.9073 327.942 53.178L328.775 50.9023ZM320.813 59.6315C320.563 60.3146 320.331 60.9404 320.214 61.4717C320.09 62.0373 320.054 62.6691 320.356 63.3077L322.571 62.2816C322.57 62.2806 322.57 62.281 322.571 62.2816C322.57 62.2814 322.57 62.2805 322.57 62.2771C322.569 62.2737 322.569 62.2677 322.568 62.2589C322.567 62.221 322.57 62.1392 322.604 61.9855C322.677 61.6502 322.838 61.2033 323.112 60.456L320.813 59.6315ZM324.333 63.0395C323.578 62.7687 323.129 62.6047 322.822 62.4459C322.681 62.3731 322.615 62.3233 322.587 62.2977C322.58 62.2919 322.576 62.2875 322.574 62.2849C322.571 62.2824 322.571 62.2818 322.571 62.2816C322.571 62.2822 322.571 62.2825 322.571 62.2816L320.356 63.3077C320.658 63.9465 321.172 64.3235 321.69 64.5915C322.177 64.8431 322.811 65.0677 323.501 65.3152L324.333 63.0395ZM335.01 50.5308L341.598 51.8437L342.08 49.4709L335.493 48.158L335.01 50.5308ZM344.847 40.3615L343.245 39.7872L342.413 42.0629L344.014 42.6372L344.847 40.3615ZM348.468 48.0191C348.71 47.359 348.911 46.8097 349.046 46.349C349.184 45.8786 349.278 45.4205 349.265 44.9366L346.821 45.0031C346.824 45.1314 346.803 45.3169 346.698 45.6744C346.591 46.0417 346.422 46.5048 346.169 47.1946L348.468 48.0191ZM344.014 42.6372C344.711 42.8871 345.178 43.0554 345.532 43.2088C345.877 43.3581 346.034 43.4608 346.131 43.5457L347.748 41.7302C347.382 41.41 346.966 41.188 346.513 40.9915C346.069 40.7991 345.514 40.6006 344.847 40.3615L344.014 42.6372ZM349.265 44.9366C349.231 43.7058 348.681 42.5445 347.748 41.7302L346.131 43.5457C346.555 43.9158 346.805 44.4437 346.821 45.0031L349.265 44.9366ZM341.598 51.8437C342.743 52.0719 343.614 52.263 344.426 52.1491L344.083 49.7526C343.788 49.7939 343.418 49.7376 342.08 49.4709L341.598 51.8437ZM346.169 47.1946C345.704 48.465 345.561 48.8072 345.372 49.0349L347.262 50.5701C347.783 49.9425 348.07 49.1061 348.468 48.0191L346.169 47.1946ZM344.426 52.1491C345.538 51.9931 346.55 51.4296 347.262 50.5701L345.372 49.0349C345.048 49.4256 344.588 49.6817 344.083 49.7526L344.426 52.1491ZM335.493 48.158C334.211 47.9025 333.138 47.6864 332.255 47.6222C331.338 47.5553 330.475 47.6371 329.659 48.0917L330.857 50.2015C331.095 50.0689 331.416 49.988 332.076 50.0361C332.77 50.0865 333.666 50.263 335.01 50.5308L335.493 48.158ZM329.508 52.4739C330.127 50.867 330.462 50.4216 330.857 50.2015L329.659 48.0917C328.394 48.7958 327.81 50.0904 327.224 51.6116L329.508 52.4739ZM327.942 53.178L327.95 53.1806L328.782 50.9049L328.775 50.9023L327.942 53.178ZM324.854 33.1916L324.088 32.9168L323.255 35.1925L324.021 35.4674L324.854 33.1916Z" fill="white" fill-opacity="0.3"/>
</g>
<g clip-path="url(#clip2_2509_2617)">
<path d="M256.549 82.4627C255.879 81.9095 255.029 81.6048 254.158 81.6048C253.16 81.6048 252.222 81.9892 251.517 82.687L244.906 89.2313C243.531 90.5925 243.433 92.7343 244.68 94.2125L263.204 116.181L278.742 100.801L256.549 82.4627ZM246.245 92.9177C245.68 92.2476 245.724 91.2766 246.349 90.6599L252.96 84.1156C253.279 83.7992 253.704 83.6246 254.158 83.6246C254.553 83.6246 254.938 83.7627 255.242 84.0133L273.316 98.9491L261.334 110.811L246.245 92.9177ZM262.492 112.186L274.705 100.096L275.72 100.936L263.34 113.191L262.492 112.186Z" fill="white" fill-opacity="0.3"/>
<path d="M250.226 81.9234L246.109 77.8483C245.58 77.3237 244.72 77.3243 244.19 77.8483L240.018 81.979C239.488 82.5036 239.488 83.3534 240.018 83.8781L244.135 87.9533L250.226 81.9234Z" fill="white" fill-opacity="0.3"/>
<path d="M259.332 90.6035L252.902 96.9688L258.768 102.775L265.198 96.4105L259.332 90.6035Z" fill="white" fill-opacity="0.3"/>
</g>
<g clip-path="url(#clip3_2509_2617)">
<path d="M14.5468 58.2434C14.1406 58.6828 13.828 59.028 13.5153 59.3571C12.5377 60.3586 12.3867 61.5416 12.9492 62.737C13.598 64.1233 14.3276 65.471 15.1344 66.7734C16.4211 68.8636 17.7815 70.9059 19.3988 72.7702C19.7277 73.1491 20.0835 73.5084 20.4303 73.882C21.0754 73.6579 21.4744 73.2612 21.8679 72.8787C22.2615 72.4962 22.3909 71.9892 22.0944 71.4876C21.7044 70.8294 21.3001 70.1765 20.8544 69.5539C19.6935 67.9333 18.4733 66.3518 17.3448 64.7134C16.7392 63.8328 16.2665 62.8651 15.7472 61.9276C15.634 61.7195 15.5441 61.4597 15.9377 61.2285C16.0545 61.3957 16.1713 61.5434 16.263 61.7035C17.7239 64.226 19.2245 66.7165 21.2587 68.853C22.0674 69.7051 22.7772 70.6515 23.5176 71.5658C23.6595 71.7743 23.7874 71.9918 23.9004 72.2169C23.9992 72.377 24.0927 72.6439 24.2239 72.667C24.8079 72.7702 25.0505 73.2487 25.3829 73.6169C26.7235 75.0988 28.0426 76.5967 29.3796 78.0803C31.591 80.5727 34.1216 82.7687 36.9074 84.6125C38.3648 85.5642 39.7054 86.6778 41.143 87.6634C42.6687 88.7094 44.1135 89.8265 45.3858 91.1803C46.243 92.0911 47.0733 92.1676 48.0311 91.6837C48.4606 91.4667 48.581 91.1501 48.457 90.6698C48.2342 89.7927 47.6861 89.1043 47.0625 88.503C46.4389 87.9017 46.1244 87.2222 45.8962 86.4181C45.6747 85.633 45.3579 84.8774 44.9528 84.1678C43.5816 81.7751 42.2213 79.3647 40.7333 77.0521C38.6649 73.8109 36.1508 70.9076 33.4337 68.177C33.1444 67.887 32.8605 67.5899 32.5621 67.3089C32.4211 67.1969 32.3118 67.0508 32.2447 66.8846C32.1776 66.7185 32.1551 66.538 32.1794 66.3607C32.2048 66.1567 32.1827 65.9496 32.1148 65.7553C32.0469 65.5611 31.935 65.3848 31.7876 65.24C30.2817 63.5678 29.0148 61.6821 27.3238 60.1736C25.1044 58.1936 22.8707 56.2244 20.2704 54.7336C19.3749 54.2325 18.4488 53.7869 17.4975 53.3994C16.5469 53.0009 14.908 53.4368 14.2628 54.2426C14.0417 54.5203 13.9158 54.8606 13.9034 55.2139C13.9345 55.8721 14.0204 56.5266 14.1604 57.1708C14.2617 57.5375 14.3908 57.896 14.5468 58.2434ZM31.3707 67.8497C31.5866 67.9964 31.7897 68.1606 31.9781 68.3406C33.5847 70.1196 35.2595 71.8558 36.7636 73.7219C39.2255 76.7931 41.3744 80.0979 43.1791 83.5878C43.5798 84.3563 44.0524 85.0857 44.4694 85.8453C44.7802 86.411 44.7173 86.7864 44.2897 87.2293C43.7937 87.7434 43.4181 87.8075 42.7963 87.4499C42.4859 87.271 42.186 87.075 41.8978 86.8628C41.1143 86.2918 40.338 85.7083 39.5616 85.1302C37.6711 83.7266 35.7052 82.4298 33.9009 80.9088C31.5576 78.927 29.6419 76.554 27.4855 74.3659C26.9302 73.8002 26.5744 73.0424 26.0928 72.3219C26.9769 71.6352 27.8898 70.9806 28.729 70.2601C29.6312 69.5005 30.4686 68.6804 31.3653 67.855L31.3707 67.8497ZM25.0523 71.4751C23.7458 69.9541 22.5544 68.6288 21.4259 67.2413C18.928 64.1762 16.9512 60.7909 15.3159 57.2134C15.11 56.6937 15.004 56.1405 15.0032 55.5822C14.9673 54.8172 15.4417 54.3013 16.209 54.296C16.719 54.2984 17.2232 54.4025 17.6916 54.602C20.8454 55.9557 23.5536 57.9819 25.9939 60.3266C27.4639 61.7408 28.7812 63.3134 30.1451 64.8326C30.4434 65.167 30.6537 65.5797 30.943 66.012C29.4335 68.3371 27.3561 69.9381 25.0469 71.4805L25.0523 71.4751ZM20.6154 72.1458C20.4269 72.0182 20.2538 71.8696 20.0996 71.7028C18.8327 69.9773 17.5622 68.2553 16.3258 66.5066C15.445 65.2577 14.6771 63.9344 14.031 62.552C13.562 61.5469 13.5836 60.6966 14.4875 59.9619C14.642 59.8356 14.784 59.6933 15.0266 59.4727C15.1488 59.7591 15.3159 59.9708 15.3051 60.1843C15.2782 60.4372 15.1777 60.677 15.0158 60.8745C14.5342 61.4758 14.5522 62.0664 14.9277 62.7068C15.1596 63.0999 15.3051 63.5447 15.5531 63.9253C16.6098 65.5454 17.6796 67.1571 18.7626 68.7605C19.3611 69.6499 19.9954 70.5092 20.5992 71.3915C20.734 71.5854 20.8993 71.8131 20.61 72.1511L20.6154 72.1458ZM44.6239 88.6347C45.3535 88.4372 45.3679 88.4247 45.4739 88.5475C45.9304 89.0812 46.3922 89.6148 46.8217 90.1574C46.9061 90.2659 46.8612 90.4705 46.89 90.7818C45.8153 90.2802 45.3409 89.4619 44.6239 88.6347Z" fill="white" fill-opacity="0.3"/>
</g>
<g clip-path="url(#clip4_2509_2617)">
<path d="M376.422 83.6582C376.016 84.0976 375.703 84.4427 375.391 84.7719C374.413 85.7734 374.262 86.9564 374.825 88.1518C375.473 89.5381 376.203 90.8858 377.01 92.1882C378.296 94.2784 379.657 96.3207 381.274 98.185C381.603 98.5639 381.959 98.9232 382.306 99.2968C382.951 99.0727 383.35 98.676 383.743 98.2935C384.137 97.911 384.266 97.404 383.97 96.9024C383.58 96.2442 383.175 95.5913 382.73 94.9687C381.569 93.3481 380.349 91.7666 379.22 90.1282C378.615 89.2476 378.142 88.2799 377.623 87.3424C377.509 87.1343 377.419 86.8745 377.813 86.6433C377.93 86.8105 378.047 86.9582 378.138 87.1183C379.599 89.6408 381.1 92.1313 383.134 94.2678C383.943 95.1199 384.653 96.0663 385.393 96.9806C385.535 97.1891 385.663 97.4066 385.776 97.6317C385.875 97.7918 385.968 98.0587 386.099 98.0818C386.683 98.185 386.926 98.6635 387.258 99.0317C388.599 100.514 389.918 102.011 391.255 103.495C393.466 105.988 395.997 108.183 398.783 110.027C400.24 110.979 401.581 112.093 403.018 113.078C404.544 114.124 405.989 115.241 407.261 116.595C408.118 117.506 408.949 117.582 409.906 117.099C410.336 116.882 410.456 116.565 410.332 116.085C410.11 115.208 409.561 114.519 408.938 113.918C408.314 113.317 408 112.637 407.772 111.833C407.55 111.048 407.233 110.292 406.828 109.583C405.457 107.19 404.097 104.779 402.609 102.467C400.54 99.2256 398.026 96.3224 395.309 93.5918C395.02 93.3018 394.736 93.0047 394.438 92.7237C394.297 92.6117 394.187 92.4656 394.12 92.2994C394.053 92.1333 394.03 91.9528 394.055 91.7755C394.08 91.5715 394.058 91.3644 393.99 91.1701C393.922 90.9759 393.81 90.7996 393.663 90.6548C392.157 88.9826 390.89 87.0969 389.199 85.5884C386.98 83.6084 384.746 81.6392 382.146 80.1484C381.25 79.6472 380.324 79.2017 379.373 78.8142C378.422 78.4157 376.783 78.8516 376.138 79.6574C375.917 79.9351 375.791 80.2754 375.779 80.6287C375.81 81.2869 375.896 81.9414 376.036 82.5855C376.137 82.9522 376.266 83.3108 376.422 83.6582ZM393.246 93.2645C393.462 93.4112 393.665 93.5754 393.853 93.7554C395.46 95.5344 397.135 97.2706 398.639 99.1367C401.101 102.208 403.25 105.513 405.054 109.003C405.455 109.771 405.928 110.5 406.345 111.26C406.656 111.826 406.593 112.201 406.165 112.644C405.669 113.158 405.293 113.222 404.672 112.865C404.361 112.686 404.061 112.49 403.773 112.278C402.99 111.707 402.213 111.123 401.437 110.545C399.547 109.141 397.581 107.845 395.776 106.324C393.433 104.342 391.517 101.969 389.361 99.7807C388.806 99.215 388.45 98.4571 387.968 97.7367C388.852 97.05 389.765 96.3954 390.604 95.6749C391.507 94.9153 392.344 94.0952 393.241 93.2698L393.246 93.2645ZM386.928 96.8899C385.621 95.3689 384.43 94.0436 383.301 92.6561C380.803 89.591 378.827 86.2057 377.191 82.6282C376.985 82.1085 376.879 81.5553 376.879 80.997C376.843 80.232 377.317 79.7161 378.084 79.7108C378.594 79.7132 379.099 79.8173 379.567 80.0168C382.721 81.3705 385.429 83.3967 387.869 85.7414C389.339 87.1556 390.657 88.7282 392.02 90.2474C392.319 90.5818 392.529 90.9945 392.818 91.4268C391.309 93.7519 389.231 95.3529 386.922 96.8952L386.928 96.8899ZM382.491 97.5606C382.302 97.433 382.129 97.2844 381.975 97.1176C380.708 95.3921 379.438 93.6701 378.201 91.9214C377.32 90.6725 376.552 89.3492 375.906 87.9668C375.437 86.9617 375.459 86.1114 376.363 85.3767C376.517 85.2504 376.659 85.1081 376.902 84.8875C377.024 85.1739 377.191 85.3856 377.18 85.5991C377.154 85.852 377.053 86.0918 376.891 86.2893C376.41 86.8906 376.428 87.4812 376.803 88.1216C377.035 88.5147 377.18 88.9594 377.428 89.3401C378.485 90.9601 379.555 92.5719 380.638 94.1753C381.236 95.0647 381.871 95.924 382.475 96.8063C382.609 97.0002 382.775 97.2279 382.485 97.5659L382.491 97.5606ZM406.499 114.049C407.229 113.852 407.243 113.84 407.349 113.962C407.806 114.496 408.268 115.03 408.697 115.572C408.782 115.681 408.737 115.885 408.765 116.197C407.691 115.695 407.216 114.877 406.499 114.049Z" fill="white" fill-opacity="0.3"/>
</g>
<g clip-path="url(#clip5_2509_2617)">
<mask id="mask0_2509_2617" style="mask-type:luminance" maskUnits="userSpaceOnUse" x="149" y="55" width="40" height="38">
<path d="M188.233 55.1782H149.388V92.4907H188.233V55.1782Z" fill="white"/>
</mask>
<g mask="url(#mask0_2509_2617)">
<path d="M188.07 56.1258C188.024 55.991 187.949 55.8677 187.851 55.7646C187.752 55.6614 187.631 55.5808 187.498 55.5285C187.272 55.4348 187.03 55.3821 186.785 55.3728L186.469 55.361C185.712 55.3324 184.93 55.303 184.158 55.319C180.55 55.3957 177.784 57.116 175.936 60.4318C175.458 61.262 175.218 62.2064 175.245 63.162C175.257 63.5061 175.125 63.686 174.84 63.939C173.974 64.7087 173.079 65.5049 172.242 66.3342C171.414 67.1547 170.582 67.9991 169.778 68.8156C168.65 69.9617 167.483 71.1468 166.308 72.2836C162.641 75.8312 158.896 79.4212 155.274 82.8932C153.86 84.2484 152.446 85.6041 151.033 86.9603C149.911 88.0375 149.415 89.1313 149.474 90.4026C149.477 90.7844 149.597 91.1563 149.819 91.4691C150.04 91.7819 150.353 92.0205 150.714 92.1535C151.131 92.3345 151.58 92.4291 152.035 92.4313C152.622 92.4261 153.197 92.2707 153.705 91.9795C154.83 91.3546 156.008 90.6613 156.955 89.6688C158.536 88.0109 160.193 86.3124 161.879 84.6178C163.369 83.1216 164.9 81.616 166.381 80.16C170.442 76.168 174.641 72.0397 178.431 67.6499C178.838 67.1785 179.181 66.8663 179.891 67.1437L179.941 67.1627L179.991 67.1505C180.144 67.1138 180.308 67.081 180.479 67.0466C180.916 66.9704 181.345 66.8576 181.763 66.7091C182.544 66.426 183.248 65.9648 183.816 65.3628C184.384 64.7607 184.801 64.0348 185.033 63.2436C185.358 62.2171 185.591 61.1877 185.775 60.3161C186.08 58.8798 186.595 58.0109 187.499 57.4104C187.681 57.2866 187.835 57.1265 187.95 56.9402C188.029 56.8213 188.08 56.6869 188.101 56.5462C188.122 56.4055 188.111 56.2621 188.07 56.1258ZM151.504 90.2487C151.459 90.1933 151.428 90.1285 151.413 90.0598C151.398 89.9907 151.398 89.9192 151.415 89.8507C151.426 89.5965 151.49 89.3473 151.604 89.1194C151.717 88.8915 151.878 88.6897 152.076 88.5271C152.91 87.8074 153.707 87.0202 154.477 86.259C154.811 85.9284 155.146 85.5979 155.484 85.2715C159.824 81.0884 164.164 76.9064 168.505 72.7253C168.546 72.6883 168.59 72.6536 168.636 72.6215L168.67 72.5956L169.672 73.8546C169.63 73.9006 169.589 73.945 169.549 73.9884C169.412 74.1367 169.289 74.2704 169.16 74.3993L168.635 74.928C164.78 78.8068 160.924 82.6847 157.067 86.5619L156.946 86.6833C155.885 87.7498 154.788 88.8528 153.441 89.5963C152.937 89.8743 152.404 90.0975 151.851 90.2613C151.796 90.2849 151.736 90.2958 151.676 90.2939C151.616 90.2916 151.557 90.2762 151.504 90.2487ZM185.114 57.2672C184.33 58.2641 184.022 59.3854 183.722 60.474C183.637 60.7836 183.55 61.1031 183.452 61.4116C183.288 61.9632 183.075 62.4991 182.813 63.0127C182.161 64.2473 180.873 64.8495 179.451 64.5846C179.058 64.5113 178.666 64.4288 178.299 64.3504C177.503 64.1808 177.191 63.7781 177.255 63.0036C177.278 62.6325 177.364 62.2679 177.509 61.925C178.749 59.1835 180.626 57.6655 183.249 57.2842C183.494 57.2508 183.742 57.2353 183.991 57.2379C184.202 57.2379 184.421 57.2454 184.655 57.2542C184.805 57.2586 184.957 57.2637 185.115 57.2672H185.114ZM177.162 66.2361L171.421 72.1522L170.31 70.9138L175.836 65.1317L177.162 66.2361Z" fill="white" fill-opacity="0.3"/>
</g>
</g>
<g clip-path="url(#clip6_2509_2617)">
<path d="M391.217 3.87271C380.536 3.87271 371.656 10.6802 371.656 19.3636V19.3675C371.66 20.3336 371.778 21.2986 372.007 22.2456C372.039 22.378 372.099 22.5023 372.183 22.6102C372.267 22.7182 372.373 22.8074 372.494 22.872C372.616 22.9366 372.749 22.9751 372.886 22.9852C373.024 22.9952 373.162 22.9764 373.291 22.9301C373.618 22.8138 373.945 22.7083 374.28 22.6162C380.631 20.9326 386.773 23.8784 388.149 28.9623C388.54 30.4212 388.51 31.969 388.057 33.4969C388.017 33.6334 388.007 33.7771 388.029 33.9178C388.051 34.0584 388.104 34.1925 388.184 34.3106C388.264 34.4287 388.37 34.5278 388.493 34.6009C388.616 34.674 388.755 34.7193 388.898 34.7335C389.665 34.8103 390.436 34.8499 391.209 34.8545H391.217C401.897 34.8545 410.777 28.0471 410.777 19.3636C410.777 10.6802 401.897 3.87271 391.217 3.87271ZM391.217 5.80907C401.062 5.80907 408.821 12.0057 408.821 19.3636C408.821 26.7195 401.066 32.9148 391.224 32.9182C390.801 32.9156 390.381 32.8761 389.96 32.8501C390.219 31.3789 390.418 29.8865 390.036 28.463C388.338 22.1868 380.996 18.8395 373.784 20.7478C373.719 20.285 373.614 19.8255 373.612 19.3598C373.614 12.0036 381.373 5.80907 391.217 5.80907ZM390.239 7.74544C388.63 7.74544 387.304 9.05731 387.304 10.65C387.304 12.2427 388.63 13.5545 390.239 13.5545C391.847 13.5545 393.173 12.2427 393.173 10.65C393.173 9.05731 391.847 7.74544 390.239 7.74544ZM382.414 9.6818C380.805 9.6818 379.48 10.9937 379.48 12.5863C379.48 14.179 380.805 15.4909 382.414 15.4909C384.023 15.4909 385.348 14.179 385.348 12.5863C385.348 10.9937 384.023 9.6818 382.414 9.6818ZM390.239 9.6818C390.79 9.6818 391.217 10.1038 391.217 10.65C391.217 11.1962 390.79 11.6182 390.239 11.6182C389.687 11.6182 389.261 11.1962 389.261 10.65C389.261 10.1038 389.687 9.6818 390.239 9.6818ZM398.063 9.6818C396.454 9.6818 395.129 10.9937 395.129 12.5863C395.129 14.179 396.454 15.4909 398.063 15.4909C399.672 15.4909 400.997 14.179 400.997 12.5863C400.997 10.9937 399.672 9.6818 398.063 9.6818ZM382.414 11.6182C382.966 11.6182 383.392 12.0402 383.392 12.5863C383.392 13.1325 382.966 13.5545 382.414 13.5545C381.862 13.5545 381.436 13.1325 381.436 12.5863C381.436 12.0402 381.862 11.6182 382.414 11.6182ZM398.063 11.6182C398.615 11.6182 399.041 12.0402 399.041 12.5863C399.041 13.1325 398.615 13.5545 398.063 13.5545C397.511 13.5545 397.085 13.1325 397.085 12.5863C397.085 12.0402 397.511 11.6182 398.063 11.6182ZM403.931 15.4909C402.322 15.4909 400.997 16.8028 400.997 18.3954C400.997 19.9881 402.322 21.3 403.931 21.3C405.54 21.3 406.865 19.9881 406.865 18.3954C406.865 16.8028 405.54 15.4909 403.931 15.4909ZM403.931 17.4273C404.483 17.4273 404.909 17.8493 404.909 18.3954C404.909 18.9416 404.483 19.3636 403.931 19.3636C403.379 19.3636 402.953 18.9416 402.953 18.3954C402.953 17.8493 403.379 17.4273 403.931 17.4273ZM398.063 23.2363C396.454 23.2363 395.129 24.5482 395.129 26.1409C395.129 27.7336 396.454 29.0454 398.063 29.0454C399.672 29.0454 400.997 27.7336 400.997 26.1409C400.997 24.5482 399.672 23.2363 398.063 23.2363ZM398.063 25.1727C398.615 25.1727 399.041 25.5947 399.041 26.1409C399.041 26.6871 398.615 27.1091 398.063 27.1091C397.511 27.1091 397.085 26.6871 397.085 26.1409C397.085 25.5947 397.511 25.1727 398.063 25.1727Z" fill="white" fill-opacity="0.3"/>
</g>
<g clip-path="url(#clip7_2509_2617)">
<path d="M118.588 100.691C107.907 100.691 99.0267 107.498 99.0267 116.182V116.186C99.0309 117.152 99.1486 118.117 99.3782 119.064C99.4103 119.196 99.4704 119.32 99.5543 119.428C99.6383 119.536 99.7443 119.626 99.8654 119.69C99.9866 119.755 100.12 119.793 100.257 119.803C100.395 119.813 100.532 119.795 100.662 119.748C100.989 119.632 101.316 119.526 101.651 119.434C108.002 117.751 114.144 120.697 115.52 125.781C115.911 127.239 115.881 128.787 115.428 130.315C115.387 130.452 115.378 130.595 115.4 130.736C115.422 130.877 115.475 131.011 115.555 131.129C115.635 131.247 115.741 131.346 115.864 131.419C115.987 131.492 116.125 131.537 116.269 131.552C117.036 131.628 117.807 131.668 118.58 131.673H118.588C129.268 131.673 138.148 124.865 138.148 116.182C138.148 107.498 129.268 100.691 118.588 100.691ZM118.588 102.627C128.433 102.627 136.192 108.824 136.192 116.182C136.192 123.538 128.437 129.733 118.595 129.736C118.172 129.734 117.752 129.694 117.331 129.668C117.59 128.197 117.789 126.705 117.407 125.281C115.709 119.005 108.367 115.658 101.155 117.566C101.09 117.103 100.985 116.644 100.983 116.178C100.985 108.822 108.744 102.627 118.588 102.627ZM117.61 104.564C116.001 104.564 114.675 105.876 114.675 107.468C114.675 109.061 116.001 110.373 117.61 110.373C119.218 110.373 120.544 109.061 120.544 107.468C120.544 105.876 119.218 104.564 117.61 104.564ZM109.785 106.5C108.176 106.5 106.851 107.812 106.851 109.405C106.851 110.997 108.176 112.309 109.785 112.309C111.394 112.309 112.719 110.997 112.719 109.405C112.719 107.812 111.394 106.5 109.785 106.5ZM117.61 106.5C118.161 106.5 118.588 106.922 118.588 107.468C118.588 108.014 118.161 108.436 117.61 108.436C117.058 108.436 116.631 108.014 116.631 107.468C116.631 106.922 117.058 106.5 117.61 106.5ZM125.434 106.5C123.825 106.5 122.5 107.812 122.5 109.405C122.5 110.997 123.825 112.309 125.434 112.309C127.043 112.309 128.368 110.997 128.368 109.405C128.368 107.812 127.043 106.5 125.434 106.5ZM109.785 108.436C110.337 108.436 110.763 108.858 110.763 109.405C110.763 109.951 110.337 110.373 109.785 110.373C109.233 110.373 108.807 109.951 108.807 109.405C108.807 108.858 109.233 108.436 109.785 108.436ZM125.434 108.436C125.986 108.436 126.412 108.858 126.412 109.405C126.412 109.951 125.986 110.373 125.434 110.373C124.882 110.373 124.456 109.951 124.456 109.405C124.456 108.858 124.882 108.436 125.434 108.436ZM131.302 112.309C129.693 112.309 128.368 113.621 128.368 115.214C128.368 116.806 129.693 118.118 131.302 118.118C132.911 118.118 134.236 116.806 134.236 115.214C134.236 113.621 132.911 112.309 131.302 112.309ZM131.302 114.245C131.854 114.245 132.28 114.667 132.28 115.214C132.28 115.76 131.854 116.182 131.302 116.182C130.75 116.182 130.324 115.76 130.324 115.214C130.324 114.667 130.75 114.245 131.302 114.245ZM125.434 120.055C123.825 120.055 122.5 121.366 122.5 122.959C122.5 124.552 123.825 125.864 125.434 125.864C127.043 125.864 128.368 124.552 128.368 122.959C128.368 121.366 127.043 120.055 125.434 120.055ZM125.434 121.991C125.986 121.991 126.412 122.413 126.412 122.959C126.412 123.505 125.986 123.927 125.434 123.927C124.882 123.927 124.456 123.505 124.456 122.959C124.456 122.413 124.882 121.991 125.434 121.991Z" fill="white" fill-opacity="0.3"/>
</g>
<g clip-path="url(#clip8_2509_2617)">
<path d="M217.614 13.5545C206.934 13.5545 198.053 20.362 198.053 29.0454V29.0493C198.058 30.0154 198.175 30.9804 198.405 31.9274C198.437 32.0599 198.497 32.1841 198.581 32.2921C198.665 32.4 198.771 32.4892 198.892 32.5538C199.013 32.6184 199.147 32.657 199.284 32.667C199.421 32.677 199.559 32.6582 199.689 32.6119C200.015 32.4956 200.343 32.3901 200.678 32.298C207.029 30.6144 213.171 33.5603 214.546 38.6441C214.938 40.103 214.908 41.6508 214.455 43.1787C214.414 43.3152 214.405 43.4589 214.426 43.5996C214.448 43.7402 214.501 43.8744 214.582 43.9924C214.662 44.1105 214.767 44.2096 214.891 44.2827C215.014 44.3558 215.152 44.4011 215.295 44.4153C216.062 44.4921 216.834 44.5318 217.607 44.5364H217.614C228.295 44.5364 237.175 37.7289 237.175 29.0454C237.175 20.362 228.295 13.5545 217.614 13.5545ZM217.614 15.4909C227.46 15.4909 235.219 21.6875 235.219 29.0454C235.219 36.4014 227.464 42.5966 217.622 42.6C217.199 42.5975 216.779 42.5579 216.357 42.5319C216.617 41.0607 216.815 39.5683 216.434 38.1448C214.735 31.8686 207.394 28.5214 200.181 30.4296C200.117 29.9668 200.012 29.5073 200.01 29.0417C200.012 21.6854 207.77 15.4909 217.614 15.4909ZM216.636 17.4273C215.027 17.4273 213.702 18.7391 213.702 20.3318C213.702 21.9245 215.027 23.2364 216.636 23.2364C218.245 23.2364 219.57 21.9245 219.57 20.3318C219.57 18.7391 218.245 17.4273 216.636 17.4273ZM208.812 19.3636C207.203 19.3636 205.878 20.6755 205.878 22.2682C205.878 23.8608 207.203 25.1727 208.812 25.1727C210.421 25.1727 211.746 23.8608 211.746 22.2682C211.746 20.6755 210.421 19.3636 208.812 19.3636ZM216.636 19.3636C217.188 19.3636 217.614 19.7856 217.614 20.3318C217.614 20.878 217.188 21.3 216.636 21.3C216.085 21.3 215.658 20.878 215.658 20.3318C215.658 19.7856 216.085 19.3636 216.636 19.3636ZM224.461 19.3636C222.852 19.3636 221.526 20.6755 221.526 22.2682C221.526 23.8608 222.852 25.1727 224.461 25.1727C226.069 25.1727 227.395 23.8608 227.395 22.2682C227.395 20.6755 226.069 19.3636 224.461 19.3636ZM208.812 21.3C209.364 21.3 209.79 21.722 209.79 22.2682C209.79 22.8144 209.364 23.2364 208.812 23.2364C208.26 23.2364 207.834 22.8144 207.834 22.2682C207.834 21.722 208.26 21.3 208.812 21.3ZM224.461 21.3C225.012 21.3 225.439 21.722 225.439 22.2682C225.439 22.8144 225.012 23.2364 224.461 23.2364C223.909 23.2364 223.483 22.8144 223.483 22.2682C223.483 21.722 223.909 21.3 224.461 21.3ZM230.329 25.1727C228.72 25.1727 227.395 26.4846 227.395 28.0773C227.395 29.6699 228.72 30.9818 230.329 30.9818C231.938 30.9818 233.263 29.6699 233.263 28.0773C233.263 26.4846 231.938 25.1727 230.329 25.1727ZM230.329 27.1091C230.881 27.1091 231.307 27.5311 231.307 28.0773C231.307 28.6234 230.881 29.0454 230.329 29.0454C229.777 29.0454 229.351 28.6234 229.351 28.0773C229.351 27.5311 229.777 27.1091 230.329 27.1091ZM224.461 32.9182C222.852 32.9182 221.526 34.23 221.526 35.8227C221.526 37.4154 222.852 38.7273 224.461 38.7273C226.069 38.7273 227.395 37.4154 227.395 35.8227C227.395 34.23 226.069 32.9182 224.461 32.9182ZM224.461 34.8545C225.012 34.8545 225.439 35.2765 225.439 35.8227C225.439 36.3689 225.012 36.7909 224.461 36.7909C223.909 36.7909 223.483 36.3689 223.483 35.8227C223.483 35.2765 223.909 34.8545 224.461 34.8545Z" fill="white" fill-opacity="0.3"/>
</g>
<defs>
<clipPath id="clip0_2509_2617">
<rect width="39.0761" height="38.7732" fill="white" transform="matrix(-0.941299 0.337574 0.343676 0.939088 111.358 13.3125)"/>
</clipPath>
<clipPath id="clip1_2509_2617">
<rect width="39.0761" height="38.7732" fill="white" transform="matrix(0.941299 0.337574 -0.343676 0.939088 317.741 24.2046)"/>
</clipPath>
<clipPath id="clip2_2509_2617">
<rect width="39.1217" height="38.7273" fill="white" transform="translate(239.62 77.4545)"/>
</clipPath>
<clipPath id="clip3_2509_2617">
<rect width="39.1217" height="38.7273" fill="white" transform="matrix(-1 0 0 1 50.1246 53.25)"/>
</clipPath>
<clipPath id="clip4_2509_2617">
<rect width="39.1217" height="38.7273" fill="white" transform="matrix(-1 0 0 1 412 78.6648)"/>
</clipPath>
<clipPath id="clip5_2509_2617">
<rect width="39.1217" height="38.7273" fill="white" transform="translate(149.151 54.4602)"/>
</clipPath>
<clipPath id="clip6_2509_2617">
<rect width="39.1217" height="38.7273" fill="white" transform="translate(371.656)"/>
</clipPath>
<clipPath id="clip7_2509_2617">
<rect width="39.1217" height="38.7273" fill="white" transform="translate(99.0267 96.8182)"/>
</clipPath>
<clipPath id="clip8_2509_2617">
<rect width="39.1217" height="38.7273" fill="white" transform="translate(198.053 9.68182)"/>
</clipPath>
</defs>
</svg>
