<svg width="380" height="138" viewBox="0 0 380 138" fill="none" xmlns="http://www.w3.org/2000/svg">
<rect width="380" height="138" rx="16" fill="#50C4ED"/>
<rect x="5.75" y="4.75" width="368.5" height="128.5" rx="15.25" stroke="white" stroke-width="1.5" stroke-dasharray="16 16"/>
<path d="M219.5 0H364C372.837 0 380 7.16344 380 16V122C380 130.837 372.837 138 364 138H143L219.5 0Z" fill="white" fill-opacity="0.2"/>
<g clip-path="url(#clip0_2468_804)">
<path d="M41.3671 20.6571C50.149 26.6899 53.5603 37.3698 48.5974 44.5943L48.5952 44.5976C48.0396 45.399 47.3913 46.1354 46.6612 46.7936C46.5591 46.8856 46.4388 46.9551 46.308 46.9975C46.1773 47.0399 46.0392 47.0542 45.9026 47.0395C45.7661 47.0248 45.6342 46.9815 45.5156 46.9123C45.3971 46.8431 45.2944 46.7496 45.2145 46.638C45.0124 46.3568 44.8031 46.0838 44.5803 45.8179C40.3208 40.83 33.5868 39.8117 29.55 43.2644C28.3946 44.2572 27.5343 45.5617 27.0337 47.0889C26.989 47.2254 26.9148 47.3504 26.8164 47.455C26.718 47.5597 26.5978 47.6413 26.4643 47.6942C26.3308 47.7471 26.1874 47.77 26.0442 47.7611C25.901 47.7523 25.7616 47.7119 25.6358 47.643C24.9612 47.2736 24.3044 46.8709 23.6661 46.4381L23.6598 46.4338C14.8779 40.401 11.4666 29.7211 16.4295 22.4966C21.3925 15.272 32.5852 14.6244 41.3671 20.6571ZM40.2604 22.2682C32.1648 16.7069 22.2432 17.4797 18.0379 23.6015C13.8337 29.7215 16.6696 39.2565 24.7602 44.8184C25.1093 45.0551 25.4777 45.2598 25.8389 45.4761C26.4662 44.1053 27.1562 42.7517 28.2835 41.7829C33.2671 37.5204 41.217 38.8825 46.0565 44.544C46.374 44.1953 46.7234 43.8726 46.9912 43.4863C51.1934 37.3645 48.3547 27.8285 40.2604 22.2682ZM39.9579 24.4317C41.2808 25.3404 41.6207 27.1805 40.7104 28.5055C39.8002 29.8306 37.9607 30.1736 36.6378 29.2648C35.3149 28.356 34.975 26.516 35.8852 25.1909C36.7955 23.8658 38.635 23.5229 39.9579 24.4317ZM45.2848 30.4622C46.6077 31.371 46.9476 33.2111 46.0373 34.5361C45.127 35.8612 43.2876 36.2041 41.9646 35.2954C40.6417 34.3866 40.3018 32.5466 41.2121 31.2215C42.1224 29.8964 43.9619 29.5535 45.2848 30.4622ZM38.8512 26.0427C38.3975 25.731 37.8058 25.8414 37.4936 26.2958C37.1815 26.7502 37.2908 27.3421 37.7445 27.6537C38.1982 27.9654 38.7899 27.8551 39.102 27.4007C39.4142 26.9462 39.3049 26.3543 38.8512 26.0427ZM32.4176 21.6231C33.7405 22.5319 34.0804 24.3719 33.1701 25.697C32.2599 27.0221 30.4204 27.365 29.0975 26.4563C27.7746 25.5475 27.4347 23.7075 28.345 22.3824C29.2552 21.0573 31.0947 20.7144 32.4176 21.6231ZM44.1781 32.0733C43.7244 31.7616 43.1327 31.8719 42.8205 32.3264C42.5083 32.7808 42.6177 33.3727 43.0714 33.6843C43.525 33.996 44.1167 33.8857 44.4289 33.4313C44.7411 32.9768 44.6317 32.3849 44.1781 32.0733ZM31.3109 23.2342C30.8572 22.9225 30.2655 23.0328 29.9534 23.4873C29.6412 23.9417 29.7505 24.5336 30.2042 24.8452C30.6579 25.1569 31.2496 25.0466 31.5618 24.5921C31.8739 24.1377 31.7646 23.5458 31.3109 23.2342ZM24.2723 23.1416C25.5952 24.0504 25.9351 25.8904 25.0248 27.2155C24.1146 28.5406 22.2751 28.8835 20.9522 27.9747C19.6293 27.0659 19.2894 25.2259 20.1997 23.9008C21.1099 22.5757 22.9494 22.2328 24.2723 23.1416ZM23.1656 24.7526C22.7119 24.441 22.1202 24.5513 21.8081 25.0057C21.4959 25.4601 21.6052 26.052 22.0589 26.3637C22.5126 26.6753 23.1043 26.565 23.4165 26.1106C23.7286 25.6562 23.6193 25.0643 23.1656 24.7526ZM24.6707 32.9004C25.9936 33.8092 26.3335 35.6492 25.4232 36.9743C24.5129 38.2994 22.6735 38.6423 21.3506 37.7335C20.0276 36.8248 19.6878 34.9847 20.598 33.6597C21.5083 32.3346 23.3478 31.9916 24.6707 32.9004ZM23.564 34.5115C23.1103 34.1998 22.5186 34.3101 22.2064 34.7645C21.8943 35.219 22.0036 35.8109 22.4573 36.1225C22.9109 36.4342 23.5026 36.3238 23.8148 35.8694C24.127 35.415 24.0176 34.8231 23.564 34.5115Z" fill="white" fill-opacity="0.3"/>
</g>
<g clip-path="url(#clip1_2468_804)">
<mask id="mask0_2468_804" style="mask-type:luminance" maskUnits="userSpaceOnUse" x="35" y="73" width="44" height="44">
<path d="M78.072 78.0105L73.1915 116.452L35.8286 111.709L40.7091 73.267L78.072 78.0105Z" fill="white"/>
</mask>
<g mask="url(#mask0_2468_804)">
<path d="M77.1027 78.0513C77.2319 78.1136 77.3459 78.2035 77.4369 78.3141C77.5278 78.425 77.5933 78.5546 77.6289 78.6933C77.6944 78.9291 77.7168 79.1748 77.6953 79.4187L77.6674 79.7326C77.601 80.4855 77.532 81.2636 77.4191 82.0252C76.889 85.5858 74.8188 88.1047 71.2664 89.512C70.3749 89.88 69.3991 89.9967 68.4456 89.8489C68.1026 89.7933 67.9059 89.9009 67.6167 90.1507C66.7371 90.9099 65.8275 91.6945 64.8918 92.4178C63.9661 93.133 63.0162 93.8482 62.0976 94.54C60.8082 95.5111 59.4748 96.5151 58.1889 97.5331C54.1758 100.711 50.1103 103.961 46.1785 107.104C44.6438 108.332 43.1087 109.558 41.573 110.785C40.3534 111.758 39.1959 112.109 37.9304 111.889C37.5484 111.838 37.1911 111.672 36.9057 111.413C36.6203 111.154 36.4207 110.814 36.3328 110.44C36.2039 110.004 36.1657 109.548 36.2206 109.097C36.2996 108.517 36.5275 107.967 36.8829 107.502C37.6499 106.468 38.4922 105.39 39.605 104.58C41.4638 103.225 43.3728 101.802 45.2815 100.348C46.9669 99.0647 48.6669 97.7406 50.311 96.46C54.8186 92.9488 59.4801 89.3179 64.3519 86.1255C64.8751 85.7829 65.2308 85.4831 65.0424 84.7445L65.0295 84.6931L65.048 84.6448C65.1039 84.4986 65.1575 84.3402 65.2134 84.1753C65.3445 83.7529 65.5115 83.3421 65.7126 82.9478C66.0942 82.2105 66.6445 81.5729 67.3187 81.0874C67.9929 80.6018 68.7723 80.2813 69.5936 80.1524C70.6625 79.9605 71.7225 79.861 72.6184 79.7894C74.0949 79.671 75.0298 79.2714 75.7445 78.4533C75.8914 78.2891 76.0711 78.1571 76.2721 78.0666C76.401 78.0038 76.5422 77.9698 76.6856 77.9671C76.8291 77.9644 76.9715 77.993 77.1027 78.0513ZM38.3394 109.901C38.3893 109.951 38.4503 109.99 38.5172 110.014C38.5844 110.038 38.6561 110.047 38.7268 110.039C38.9827 110.061 39.2403 110.029 39.4828 109.945C39.7253 109.862 39.9476 109.728 40.1353 109.553C40.9608 108.819 41.8491 108.131 42.708 107.465C43.0812 107.176 43.4541 106.887 43.8235 106.594C48.5574 102.831 53.2904 99.0677 58.0225 95.3034C58.0648 95.267 58.105 95.2283 58.1429 95.1872L58.1732 95.156L57.0384 94.0043C56.987 94.0408 56.9373 94.0757 56.8889 94.1096C56.7232 94.2263 56.5738 94.3313 56.4286 94.4418L55.8332 94.8947C51.4649 98.2165 47.0972 101.54 42.7302 104.864L42.5934 104.968C41.3922 105.882 40.1499 106.828 39.2362 108.066C38.8944 108.53 38.6039 109.029 38.3704 109.555C38.3398 109.607 38.3214 109.665 38.3158 109.724C38.3105 109.784 38.3185 109.844 38.3394 109.901ZM75.5883 80.8315C74.4916 81.4808 73.33 81.6435 72.2024 81.8012C71.8817 81.846 71.5507 81.8922 71.2296 81.949C70.6566 82.0412 70.0932 82.1848 69.546 82.3781C68.2279 82.8662 67.4629 84.0647 67.5496 85.5054C67.5736 85.9038 67.607 86.302 67.6393 86.6753C67.7091 87.485 68.0732 87.8452 68.8568 87.8799C69.2313 87.9042 69.6072 87.8655 69.9688 87.7654C72.8697 86.8871 74.6257 85.222 75.337 82.6755C75.4013 82.4366 75.448 82.1931 75.4765 81.947C75.503 81.7383 75.5231 81.5202 75.5437 81.2873C75.5581 81.1388 75.5722 80.987 75.5884 80.831L75.5883 80.8315ZM65.6082 87.561L58.9628 92.4903L60.0633 93.7469L66.5475 89.0138L65.6082 87.561Z" fill="white" fill-opacity="0.3"/>
</g>
</g>
<g clip-path="url(#clip2_2468_804)">
<path d="M107.544 19.9935C107.138 20.4328 106.825 20.778 106.512 21.1071C105.535 22.1086 105.384 23.2916 105.946 24.487C106.595 25.8733 107.325 27.221 108.131 28.5234C109.418 30.6137 110.779 32.6559 112.396 34.5202C112.725 34.8991 113.081 35.2584 113.427 35.632C114.073 35.4079 114.471 35.0112 114.865 34.6287C115.259 34.2462 115.388 33.7392 115.091 33.2376C114.701 32.5794 114.297 31.9265 113.851 31.3039C112.691 29.6833 111.47 28.1018 110.342 26.4634C109.736 25.5828 109.264 24.6151 108.744 23.6776C108.631 23.4695 108.541 23.2098 108.935 22.9785C109.052 23.1457 109.168 23.2934 109.26 23.4535C110.721 25.976 112.222 28.4665 114.256 30.603C115.064 31.4551 115.774 32.4015 116.515 33.3158C116.657 33.5243 116.784 33.7418 116.897 33.9669C116.996 34.127 117.09 34.3939 117.221 34.417C117.805 34.5202 118.048 34.9987 118.38 35.367C119.721 36.8488 121.04 38.3467 122.377 39.8303C124.588 42.3227 127.119 44.5187 129.904 46.3625C131.362 47.3142 132.702 48.4278 134.14 49.4134C135.666 50.4594 137.111 51.5765 138.383 52.9303C139.24 53.8411 140.07 53.9176 141.028 53.4337C141.458 53.2167 141.578 52.9001 141.454 52.4198C141.231 51.5427 140.683 50.8543 140.06 50.253C139.436 49.6517 139.122 48.9722 138.893 48.1681C138.672 47.383 138.355 46.6274 137.95 45.9178C136.579 43.5251 135.218 41.1147 133.73 38.8021C131.662 35.5609 129.148 32.6576 126.431 29.927C126.141 29.637 125.858 29.3399 125.559 29.0589C125.418 28.9469 125.309 28.8008 125.242 28.6346C125.175 28.4685 125.152 28.288 125.176 28.1107C125.202 27.9067 125.18 27.6996 125.112 27.5054C125.044 27.3111 124.932 27.1348 124.785 26.99C123.279 25.3178 122.012 23.4321 120.321 21.9236C118.101 19.9436 115.868 17.9744 113.267 16.4836C112.372 15.9825 111.446 15.5369 110.495 15.1494C109.544 14.7509 107.905 15.1868 107.26 15.9926C107.039 16.2703 106.913 16.6106 106.901 16.9639C106.932 17.6221 107.017 18.2766 107.157 18.9208C107.259 19.2875 107.388 19.646 107.544 19.9935ZM124.368 29.5997C124.584 29.7464 124.787 29.9106 124.975 30.0906C126.582 31.8696 128.257 33.6058 129.761 35.4719C132.223 38.5431 134.371 41.8479 136.176 45.3378C136.577 46.1063 137.05 46.8357 137.466 47.5953C137.777 48.161 137.714 48.5364 137.287 48.9793C136.791 49.4934 136.415 49.5575 135.793 49.1999C135.483 49.021 135.183 48.825 134.895 48.6129C134.111 48.0418 133.335 47.4583 132.559 46.8802C130.668 45.4766 128.702 44.1798 126.898 42.6588C124.555 40.677 122.639 38.304 120.483 36.1159C119.927 35.5502 119.571 34.7924 119.09 34.0719C119.974 33.3852 120.887 32.7306 121.726 32.0101C122.628 31.2505 123.466 30.4304 124.362 29.605L124.368 29.5997ZM118.049 33.2251C116.743 31.7041 115.551 30.3788 114.423 28.9913C111.925 25.9262 109.948 22.5409 108.313 18.9635C108.107 18.4437 108.001 17.8905 108 17.3322C107.964 16.5672 108.439 16.0513 109.206 16.046C109.716 16.0484 110.22 16.1525 110.689 16.352C113.842 17.7057 116.551 19.7319 118.991 22.0766C120.461 23.4908 121.778 25.0634 123.142 26.5826C123.44 26.917 123.651 27.3298 123.94 27.762C122.431 30.0871 120.353 31.6881 118.044 33.2305L118.049 33.2251ZM113.612 33.8958C113.424 33.7682 113.251 33.6196 113.097 33.4528C111.83 31.7273 110.559 30.0053 109.323 28.2566C108.442 27.0077 107.674 25.6844 107.028 24.302C106.559 23.2969 106.581 22.4466 107.485 21.7119C107.639 21.5856 107.781 21.4433 108.024 21.2227C108.146 21.5091 108.313 21.7208 108.302 21.9343C108.275 22.1872 108.175 22.427 108.013 22.6245C107.531 23.2258 107.549 23.8164 107.925 24.4568C108.157 24.8499 108.302 25.2947 108.55 25.6753C109.607 27.2954 110.677 28.9071 111.76 30.5105C112.358 31.3999 112.992 32.2592 113.596 33.1415C113.731 33.3354 113.896 33.5631 113.607 33.9011L113.612 33.8958ZM137.621 50.3847C138.351 50.1872 138.365 50.1747 138.471 50.2975C138.927 50.8312 139.389 51.3649 139.819 51.9074C139.903 52.0159 139.858 52.2205 139.887 52.5318C138.812 52.0302 138.338 51.2119 137.621 50.3847Z" fill="white" fill-opacity="0.3"/>
</g>
<defs>
<clipPath id="clip0_2468_804">
<rect width="39.0267" height="39.0909" fill="white" transform="matrix(-0.824253 -0.566222 -0.566222 0.824253 59.6644 28.4839)"/>
</clipPath>
<clipPath id="clip1_2468_804">
<rect width="39.0267" height="39.0909" fill="white" transform="matrix(0.125947 -0.992037 -0.992037 -0.125947 73.8807 116.778)"/>
</clipPath>
<clipPath id="clip2_2468_804">
<rect width="39.1217" height="38.7273" fill="white" transform="matrix(-1 0 0 1 143.122 15)"/>
</clipPath>
</defs>
</svg>
