<svg width="380" height="233" viewBox="0 0 380 233" fill="none" xmlns="http://www.w3.org/2000/svg">
<rect width="380" height="233" rx="16" fill="#50C4ED"/>
<rect x="5.75" y="4.75" width="368.5" height="223.5" rx="15.25" stroke="white" stroke-width="1.5" stroke-dasharray="16 16"/>
<path d="M219.5 0H364C372.837 0 380 7.16344 380 16V217C380 225.837 372.837 233 364 233H143.5L219.5 0Z" fill="white" fill-opacity="0.2"/>
<path d="M195.208 99.9043L190.879 95.6118C188.89 93.6391 187.895 92.6526 186.75 92.2826C185.743 91.957 184.658 91.957 183.651 92.2826C182.506 92.6526 181.511 93.6391 179.521 95.6118L169.442 105.763M195.208 99.9043L196.068 99.0509C198.1 97.0366 199.115 96.0294 200.281 95.662C201.305 95.3386 202.407 95.3512 203.424 95.698C204.58 96.0924 205.572 97.1225 207.557 99.183L209.663 101.322M195.208 99.9043L205.177 110.049M169.442 105.763C169.52 106.419 169.654 106.935 169.886 107.391C170.369 108.339 171.141 109.11 172.089 109.594C173.167 110.143 174.579 110.143 177.402 110.143H201.598C203.164 110.143 204.296 110.143 205.177 110.049M169.442 105.763C169.337 104.867 169.337 103.707 169.337 102.078V77.8817C169.337 75.0586 169.337 73.647 169.886 72.5688C170.369 71.6203 171.141 70.8491 172.089 70.3659C173.167 69.8164 174.579 69.8164 177.402 69.8164H186.98M205.177 110.049C205.884 109.974 206.431 109.838 206.911 109.594C207.859 109.11 208.631 108.339 209.114 107.391C209.663 106.312 209.663 104.901 209.663 102.078V92.5001M204.623 82.4185V74.8572M204.623 74.8572V67.296M204.623 74.8572H212.184M204.623 74.8572H197.061" stroke="white" stroke-width="5.04082" stroke-linecap="round" stroke-linejoin="round"/>
<path d="M141.06 143.705C140.141 143.705 139.316 143.496 138.583 143.077C137.85 142.658 137.268 142.088 136.838 141.367C136.419 140.634 136.21 139.808 136.21 138.889V131.316H138.216V138.872C138.216 139.465 138.338 139.983 138.583 140.425C138.839 140.855 139.182 141.192 139.612 141.437C140.043 141.669 140.525 141.786 141.06 141.786C141.607 141.786 142.09 141.669 142.509 141.437C142.927 141.192 143.259 140.855 143.503 140.425C143.748 139.983 143.87 139.471 143.87 138.889V131.316H145.876V138.907C145.876 139.826 145.667 140.646 145.248 141.367C144.829 142.088 144.259 142.658 143.538 143.077C142.817 143.496 141.991 143.705 141.06 143.705ZM152.619 143.705C151.979 143.705 151.409 143.571 150.909 143.304C150.409 143.025 150.013 142.647 149.723 142.17C149.443 141.693 149.304 141.152 149.304 140.547V138.139C149.304 137.534 149.449 136.993 149.74 136.516C150.031 136.039 150.426 135.667 150.927 135.399C151.427 135.12 151.991 134.981 152.619 134.981C153.375 134.981 154.056 135.178 154.661 135.574C155.277 135.958 155.76 136.481 156.109 137.144C156.47 137.796 156.65 138.534 156.65 139.36C156.65 140.175 156.47 140.913 156.109 141.576C155.76 142.228 155.277 142.745 154.661 143.129C154.056 143.513 153.375 143.705 152.619 143.705ZM148.135 147.02V135.155H150.054V137.406L149.723 139.448L150.054 141.472V147.02H148.135ZM152.305 141.89C152.77 141.89 153.177 141.786 153.526 141.576C153.887 141.355 154.166 141.053 154.364 140.669C154.573 140.285 154.678 139.843 154.678 139.343C154.678 138.843 154.573 138.401 154.364 138.017C154.166 137.633 153.887 137.336 153.526 137.127C153.177 136.906 152.77 136.795 152.305 136.795C151.84 136.795 151.427 136.906 151.066 137.127C150.706 137.336 150.426 137.633 150.229 138.017C150.031 138.401 149.932 138.843 149.932 139.343C149.932 139.843 150.031 140.285 150.229 140.669C150.426 141.053 150.706 141.355 151.066 141.576C151.427 141.786 151.84 141.89 152.305 141.89ZM158.257 143.531V130.967H160.176V143.531H158.257ZM166.151 143.705C165.337 143.705 164.598 143.513 163.935 143.129C163.272 142.734 162.742 142.205 162.347 141.541C161.963 140.878 161.771 140.14 161.771 139.325C161.771 138.511 161.963 137.778 162.347 137.127C162.742 136.475 163.272 135.958 163.935 135.574C164.598 135.178 165.337 134.981 166.151 134.981C166.977 134.981 167.721 135.173 168.384 135.556C169.047 135.94 169.571 136.464 169.955 137.127C170.35 137.778 170.548 138.511 170.548 139.325C170.548 140.14 170.35 140.878 169.955 141.541C169.571 142.205 169.047 142.734 168.384 143.129C167.721 143.513 166.977 143.705 166.151 143.705ZM166.151 141.856C166.628 141.856 167.047 141.751 167.407 141.541C167.779 141.32 168.064 141.018 168.262 140.634C168.472 140.25 168.576 139.814 168.576 139.325C168.576 138.837 168.472 138.406 168.262 138.034C168.053 137.662 167.768 137.371 167.407 137.162C167.047 136.941 166.628 136.83 166.151 136.83C165.686 136.83 165.267 136.941 164.894 137.162C164.534 137.371 164.249 137.662 164.039 138.034C163.842 138.406 163.743 138.837 163.743 139.325C163.743 139.814 163.842 140.25 164.039 140.634C164.249 141.018 164.534 141.32 164.894 141.541C165.267 141.751 165.686 141.856 166.151 141.856ZM175.651 143.705C174.895 143.705 174.209 143.513 173.592 143.129C172.987 142.745 172.505 142.228 172.144 141.576C171.795 140.913 171.621 140.175 171.621 139.36C171.621 138.534 171.795 137.796 172.144 137.144C172.505 136.481 172.987 135.958 173.592 135.574C174.209 135.178 174.895 134.981 175.651 134.981C176.291 134.981 176.855 135.12 177.344 135.399C177.844 135.667 178.24 136.039 178.53 136.516C178.821 136.993 178.967 137.534 178.967 138.139V140.547C178.967 141.152 178.821 141.693 178.53 142.17C178.251 142.647 177.862 143.025 177.361 143.304C176.861 143.571 176.291 143.705 175.651 143.705ZM175.965 141.89C176.675 141.89 177.245 141.652 177.675 141.175C178.117 140.698 178.339 140.087 178.339 139.343C178.339 138.843 178.24 138.401 178.042 138.017C177.844 137.633 177.565 137.336 177.204 137.127C176.855 136.906 176.442 136.795 175.965 136.795C175.5 136.795 175.087 136.906 174.727 137.127C174.378 137.336 174.098 137.633 173.889 138.017C173.691 138.401 173.592 138.843 173.592 139.343C173.592 139.843 173.691 140.285 173.889 140.669C174.098 141.053 174.378 141.355 174.727 141.576C175.087 141.786 175.5 141.89 175.965 141.89ZM178.216 143.531V141.28L178.548 139.238L178.216 137.214V135.155H180.136V143.531H178.216ZM185.773 143.705C185.017 143.705 184.331 143.513 183.714 143.129C183.109 142.745 182.627 142.228 182.266 141.576C181.917 140.913 181.742 140.175 181.742 139.36C181.742 138.534 181.917 137.796 182.266 137.144C182.627 136.481 183.109 135.958 183.714 135.574C184.331 135.178 185.017 134.981 185.773 134.981C186.413 134.981 186.977 135.12 187.466 135.399C187.966 135.667 188.361 136.039 188.652 136.516C188.943 136.993 189.088 137.534 189.088 138.139V140.547C189.088 141.152 188.943 141.693 188.652 142.17C188.373 142.647 187.983 143.025 187.483 143.304C186.983 143.571 186.413 143.705 185.773 143.705ZM186.087 141.89C186.564 141.89 186.977 141.786 187.326 141.576C187.687 141.355 187.966 141.053 188.164 140.669C188.361 140.285 188.46 139.843 188.46 139.343C188.46 138.843 188.361 138.401 188.164 138.017C187.966 137.633 187.687 137.336 187.326 137.127C186.977 136.906 186.564 136.795 186.087 136.795C185.622 136.795 185.209 136.906 184.848 137.127C184.499 137.336 184.22 137.633 184.011 138.017C183.813 138.401 183.714 138.843 183.714 139.343C183.714 139.843 183.813 140.285 184.011 140.669C184.22 141.053 184.499 141.355 184.848 141.576C185.209 141.786 185.622 141.89 186.087 141.89ZM190.258 143.531H188.338V141.28L188.67 139.238L188.338 137.214V130.967H190.258V143.531ZM196.143 143.531V131.316H198.149V143.531H196.143ZM200.533 143.531V135.155H202.452V143.531H200.533ZM206.099 143.531V138.54C206.099 137.982 205.925 137.551 205.576 137.249C205.227 136.935 204.796 136.778 204.284 136.778C203.935 136.778 203.621 136.848 203.342 136.987C203.075 137.127 202.859 137.33 202.696 137.598C202.534 137.854 202.452 138.168 202.452 138.54L201.702 138.121C201.702 137.482 201.841 136.929 202.121 136.464C202.4 135.998 202.778 135.638 203.255 135.382C203.732 135.114 204.267 134.981 204.86 134.981C205.453 134.981 205.989 135.109 206.465 135.365C206.942 135.62 207.32 135.981 207.6 136.446C207.879 136.912 208.018 137.47 208.018 138.121V143.531H206.099ZM211.665 143.531V138.54C211.665 137.982 211.491 137.551 211.142 137.249C210.793 136.935 210.362 136.778 209.851 136.778C209.513 136.778 209.205 136.848 208.926 136.987C208.647 137.127 208.426 137.33 208.263 137.598C208.1 137.854 208.018 138.168 208.018 138.54L206.937 138.121C206.995 137.482 207.181 136.929 207.495 136.464C207.809 135.998 208.21 135.638 208.699 135.382C209.199 135.114 209.746 134.981 210.339 134.981C210.944 134.981 211.491 135.109 211.979 135.365C212.468 135.62 212.858 135.981 213.148 136.446C213.439 136.912 213.585 137.47 213.585 138.121V143.531H211.665ZM219.069 143.705C218.313 143.705 217.627 143.513 217.01 143.129C216.405 142.745 215.923 142.228 215.562 141.576C215.213 140.913 215.039 140.175 215.039 139.36C215.039 138.534 215.213 137.796 215.562 137.144C215.923 136.481 216.405 135.958 217.01 135.574C217.627 135.178 218.313 134.981 219.069 134.981C219.709 134.981 220.273 135.12 220.762 135.399C221.262 135.667 221.658 136.039 221.948 136.516C222.239 136.993 222.385 137.534 222.385 138.139V140.547C222.385 141.152 222.239 141.693 221.948 142.17C221.669 142.647 221.28 143.025 220.779 143.304C220.279 143.571 219.709 143.705 219.069 143.705ZM219.383 141.89C220.093 141.89 220.663 141.652 221.093 141.175C221.535 140.698 221.756 140.087 221.756 139.343C221.756 138.843 221.658 138.401 221.46 138.017C221.262 137.633 220.983 137.336 220.622 137.127C220.273 136.906 219.86 136.795 219.383 136.795C218.918 136.795 218.505 136.906 218.145 137.127C217.796 137.336 217.516 137.633 217.307 138.017C217.109 138.401 217.01 138.843 217.01 139.343C217.01 139.843 217.109 140.285 217.307 140.669C217.516 141.053 217.796 141.355 218.145 141.576C218.505 141.786 218.918 141.89 219.383 141.89ZM221.634 143.531V141.28L221.966 139.238L221.634 137.214V135.155H223.554V143.531H221.634ZM229.174 147.195C228.29 147.195 227.516 147.032 226.853 146.706C226.19 146.392 225.655 145.944 225.248 145.363L226.504 144.106C226.841 144.525 227.225 144.839 227.656 145.049C228.086 145.258 228.604 145.363 229.209 145.363C229.965 145.363 230.564 145.165 231.006 144.77C231.448 144.386 231.669 143.856 231.669 143.182V141.123L232 139.273L231.669 137.406V135.155H233.588V143.182C233.588 143.984 233.402 144.682 233.03 145.276C232.658 145.88 232.14 146.352 231.477 146.689C230.814 147.026 230.046 147.195 229.174 147.195ZM229.086 143.356C228.342 143.356 227.667 143.176 227.062 142.815C226.469 142.443 225.998 141.937 225.649 141.297C225.312 140.657 225.143 139.942 225.143 139.151C225.143 138.36 225.312 137.65 225.649 137.022C225.998 136.394 226.469 135.9 227.062 135.539C227.667 135.167 228.342 134.981 229.086 134.981C229.749 134.981 230.331 135.114 230.831 135.382C231.332 135.65 231.721 136.022 232 136.499C232.28 136.964 232.419 137.511 232.419 138.139V140.198C232.419 140.814 232.274 141.361 231.983 141.838C231.704 142.315 231.314 142.687 230.814 142.955C230.314 143.222 229.738 143.356 229.086 143.356ZM229.47 141.541C229.936 141.541 230.343 141.443 230.692 141.245C231.041 141.047 231.308 140.774 231.494 140.425C231.692 140.064 231.791 139.645 231.791 139.168C231.791 138.691 231.692 138.278 231.494 137.93C231.308 137.569 231.041 137.29 230.692 137.092C230.343 136.894 229.936 136.795 229.47 136.795C229.005 136.795 228.592 136.894 228.231 137.092C227.882 137.29 227.609 137.569 227.411 137.93C227.214 138.278 227.115 138.691 227.115 139.168C227.115 139.634 227.214 140.047 227.411 140.407C227.609 140.768 227.882 141.047 228.231 141.245C228.592 141.443 229.005 141.541 229.47 141.541ZM239.612 143.705C238.774 143.705 238.018 143.519 237.343 143.147C236.68 142.763 236.151 142.239 235.755 141.576C235.371 140.913 235.18 140.169 235.18 139.343C235.18 138.517 235.371 137.778 235.755 137.127C236.139 136.464 236.657 135.94 237.308 135.556C237.971 135.173 238.704 134.981 239.507 134.981C240.286 134.981 240.973 135.161 241.566 135.522C242.171 135.882 242.642 136.377 242.979 137.005C243.328 137.633 243.503 138.348 243.503 139.151C243.503 139.291 243.491 139.436 243.468 139.587C243.456 139.727 243.433 139.884 243.398 140.058H236.523V138.488H242.403L241.688 139.116C241.665 138.604 241.566 138.174 241.391 137.825C241.217 137.476 240.967 137.208 240.641 137.022C240.327 136.836 239.937 136.743 239.472 136.743C238.983 136.743 238.559 136.848 238.198 137.057C237.838 137.266 237.558 137.563 237.361 137.947C237.163 138.319 237.064 138.767 237.064 139.291C237.064 139.814 237.169 140.273 237.378 140.669C237.587 141.065 237.884 141.373 238.268 141.594C238.652 141.803 239.094 141.908 239.594 141.908C240.025 141.908 240.42 141.832 240.781 141.681C241.153 141.53 241.467 141.309 241.723 141.018L242.944 142.257C242.537 142.734 242.043 143.094 241.461 143.339C240.88 143.583 240.263 143.705 239.612 143.705Z" fill="white"/>
<path d="M105.766 162.184L110.358 150.979H111.254L115.798 162.184H114.511L110.554 152.282H111.026L107.036 162.184H105.766ZM107.867 159.269V158.21H113.73V159.269H107.867ZM120.296 162.347C119.59 162.347 118.955 162.173 118.391 161.825C117.826 161.478 117.375 161.006 117.039 160.409C116.713 159.801 116.55 159.122 116.55 158.373C116.55 157.613 116.713 156.934 117.039 156.337C117.375 155.729 117.826 155.251 118.391 154.904C118.955 154.546 119.59 154.367 120.296 154.367C120.871 154.367 121.393 154.481 121.859 154.709C122.326 154.937 122.712 155.262 123.016 155.686C123.331 156.098 123.515 156.587 123.569 157.151V159.545C123.504 160.099 123.32 160.588 123.016 161.011C122.723 161.424 122.343 161.749 121.876 161.988C121.409 162.227 120.882 162.347 120.296 162.347ZM120.491 161.255C121.023 161.255 121.49 161.136 121.892 160.897C122.294 160.647 122.609 160.305 122.837 159.871C123.065 159.426 123.179 158.921 123.179 158.357C123.179 157.781 123.059 157.276 122.82 156.842C122.592 156.408 122.277 156.066 121.876 155.816C121.474 155.566 121.007 155.441 120.475 155.441C119.943 155.441 119.471 155.566 119.058 155.816C118.646 156.066 118.32 156.413 118.081 156.858C117.853 157.293 117.739 157.792 117.739 158.357C117.739 158.921 117.853 159.426 118.081 159.871C118.32 160.305 118.646 160.647 119.058 160.897C119.482 161.136 119.959 161.255 120.491 161.255ZM124.253 162.184H123.113V160.132L123.341 158.243L123.113 156.402V150.653H124.253V162.184ZM129.823 162.347C129.117 162.347 128.482 162.173 127.917 161.825C127.353 161.478 126.902 161.006 126.565 160.409C126.24 159.801 126.077 159.122 126.077 158.373C126.077 157.613 126.24 156.934 126.565 156.337C126.902 155.729 127.353 155.251 127.917 154.904C128.482 154.546 129.117 154.367 129.823 154.367C130.398 154.367 130.919 154.481 131.386 154.709C131.853 154.937 132.238 155.262 132.542 155.686C132.857 156.098 133.042 156.587 133.096 157.151V159.545C133.031 160.099 132.846 160.588 132.542 161.011C132.249 161.424 131.869 161.749 131.402 161.988C130.935 162.227 130.409 162.347 129.823 162.347ZM130.018 161.255C130.55 161.255 131.017 161.136 131.419 160.897C131.82 160.647 132.135 160.305 132.363 159.871C132.591 159.426 132.705 158.921 132.705 158.357C132.705 157.781 132.586 157.276 132.347 156.842C132.119 156.408 131.804 156.066 131.402 155.816C131.001 155.566 130.534 155.441 130.002 155.441C129.47 155.441 128.997 155.566 128.585 155.816C128.172 156.066 127.847 156.413 127.608 156.858C127.38 157.293 127.266 157.792 127.266 158.357C127.266 158.921 127.38 159.426 127.608 159.871C127.847 160.305 128.172 160.647 128.585 160.897C129.008 161.136 129.486 161.255 130.018 161.255ZM133.78 162.184H132.64V160.132L132.868 158.243L132.64 156.402V150.653H133.78V162.184ZM142.148 162.216L138.793 154.529H140.047L142.75 160.946H142.278L145.128 154.529H146.398L142.799 162.216H142.148ZM140.063 165.408L142.164 161.06L142.799 162.216L141.317 165.408H140.063ZM150.884 162.347C150.146 162.347 149.473 162.167 148.865 161.809C148.268 161.451 147.79 160.968 147.432 160.36C147.084 159.752 146.911 159.073 146.911 158.324C146.911 157.586 147.084 156.918 147.432 156.321C147.79 155.724 148.268 155.251 148.865 154.904C149.473 154.546 150.146 154.367 150.884 154.367C151.634 154.367 152.307 154.54 152.904 154.888C153.501 155.235 153.973 155.713 154.321 156.321C154.679 156.918 154.858 157.586 154.858 158.324C154.858 159.084 154.679 159.768 154.321 160.376C153.973 160.973 153.501 161.451 152.904 161.809C152.307 162.167 151.634 162.347 150.884 162.347ZM150.884 161.239C151.427 161.239 151.905 161.114 152.318 160.865C152.741 160.615 153.072 160.267 153.311 159.822C153.561 159.377 153.686 158.878 153.686 158.324C153.686 157.77 153.561 157.282 153.311 156.858C153.072 156.424 152.741 156.082 152.318 155.832C151.905 155.583 151.427 155.458 150.884 155.458C150.352 155.458 149.875 155.583 149.451 155.832C149.028 156.082 148.697 156.424 148.458 156.858C148.219 157.282 148.1 157.77 148.1 158.324C148.1 158.889 148.219 159.393 148.458 159.839C148.697 160.273 149.028 160.615 149.451 160.865C149.875 161.114 150.352 161.239 150.884 161.239ZM159.701 162.347C159.082 162.347 158.528 162.205 158.04 161.923C157.551 161.63 157.166 161.234 156.883 160.734C156.612 160.235 156.476 159.649 156.476 158.975V154.529H157.633V158.927C157.633 159.393 157.714 159.801 157.877 160.148C158.051 160.495 158.295 160.767 158.61 160.962C158.925 161.158 159.288 161.255 159.701 161.255C160.341 161.255 160.846 161.044 161.215 160.62C161.595 160.197 161.785 159.632 161.785 158.927V154.529H162.925V158.975C162.925 159.638 162.79 160.224 162.518 160.734C162.247 161.245 161.867 161.641 161.378 161.923C160.89 162.205 160.331 162.347 159.701 162.347ZM165.053 162.184V154.529H166.193V162.184H165.053ZM166.193 157.721L165.721 157.51C165.721 156.543 165.954 155.778 166.421 155.213C166.899 154.649 167.55 154.367 168.375 154.367C168.755 154.367 169.103 154.437 169.418 154.578C169.733 154.709 170.026 154.92 170.297 155.213L169.548 156.011C169.363 155.805 169.157 155.659 168.929 155.572C168.712 155.485 168.462 155.441 168.18 155.441C167.594 155.441 167.116 155.637 166.747 156.028C166.378 156.408 166.193 156.972 166.193 157.721ZM178.764 162.347C178.026 162.347 177.353 162.167 176.745 161.809C176.148 161.451 175.67 160.968 175.312 160.36C174.964 159.752 174.79 159.073 174.79 158.324C174.79 157.586 174.964 156.918 175.312 156.321C175.67 155.724 176.148 155.251 176.745 154.904C177.353 154.546 178.026 154.367 178.764 154.367C179.513 154.367 180.186 154.54 180.784 154.888C181.381 155.235 181.853 155.713 182.2 156.321C182.559 156.918 182.738 157.586 182.738 158.324C182.738 159.084 182.559 159.768 182.2 160.376C181.853 160.973 181.381 161.451 180.784 161.809C180.186 162.167 179.513 162.347 178.764 162.347ZM178.764 161.239C179.307 161.239 179.785 161.114 180.197 160.865C180.621 160.615 180.952 160.267 181.191 159.822C181.44 159.377 181.565 158.878 181.565 158.324C181.565 157.77 181.44 157.282 181.191 156.858C180.952 156.424 180.621 156.082 180.197 155.832C179.785 155.583 179.307 155.458 178.764 155.458C178.232 155.458 177.754 155.583 177.331 155.832C176.908 156.082 176.576 156.424 176.338 156.858C176.099 157.282 175.979 157.77 175.979 158.324C175.979 158.889 176.099 159.393 176.338 159.839C176.576 160.273 176.908 160.615 177.331 160.865C177.754 161.114 178.232 161.239 178.764 161.239ZM186.43 162.184L183.483 154.529H184.672L187 160.881L186.577 160.897L188.89 154.529H189.557L191.87 160.897L191.446 160.881L193.759 154.529H194.964L192 162.184H191.332L188.971 155.914H189.46L187.114 162.184H186.43ZM202.017 162.184V157.689C202.017 157.016 201.817 156.473 201.415 156.06C201.024 155.637 200.503 155.425 199.851 155.425C199.406 155.425 199.015 155.523 198.679 155.718C198.342 155.914 198.076 156.18 197.881 156.516C197.685 156.853 197.588 157.238 197.588 157.673L197.067 157.379C197.067 156.804 197.202 156.288 197.474 155.832C197.745 155.376 198.109 155.018 198.565 154.757C199.032 154.497 199.564 154.367 200.161 154.367C200.747 154.367 201.268 154.508 201.724 154.79C202.18 155.072 202.533 155.452 202.783 155.93C203.043 156.408 203.174 156.929 203.174 157.493V162.184H202.017ZM196.448 162.184V154.529H197.588V162.184H196.448ZM212.062 162.347C211.357 162.347 210.721 162.173 210.157 161.825C209.592 161.478 209.142 161.006 208.805 160.409C208.479 159.801 208.317 159.122 208.317 158.373C208.317 157.613 208.479 156.934 208.805 156.337C209.142 155.729 209.592 155.251 210.157 154.904C210.721 154.546 211.357 154.367 212.062 154.367C212.638 154.367 213.159 154.481 213.626 154.709C214.093 154.937 214.478 155.262 214.782 155.686C215.097 156.098 215.281 156.587 215.336 157.151V159.545C215.271 160.099 215.086 160.588 214.782 161.011C214.489 161.424 214.109 161.749 213.642 161.988C213.175 162.227 212.649 162.347 212.062 162.347ZM212.258 161.255C212.79 161.255 213.257 161.136 213.658 160.897C214.06 160.647 214.375 160.305 214.603 159.871C214.831 159.426 214.945 158.921 214.945 158.357C214.945 157.781 214.825 157.276 214.587 156.842C214.359 156.408 214.044 156.066 213.642 155.816C213.24 155.566 212.773 155.441 212.241 155.441C211.709 155.441 211.237 155.566 210.825 155.816C210.412 156.066 210.086 156.413 209.847 156.858C209.619 157.293 209.505 157.792 209.505 158.357C209.505 158.921 209.619 159.426 209.847 159.871C210.086 160.305 210.412 160.647 210.825 160.897C211.248 161.136 211.726 161.255 212.258 161.255ZM216.02 162.184H214.88V160.132L215.108 158.243L214.88 156.402V150.653H216.02V162.184ZM218.332 162.184V154.529H219.472V162.184H218.332ZM219.472 157.721L218.999 157.51C218.999 156.543 219.233 155.778 219.7 155.213C220.177 154.649 220.829 154.367 221.654 154.367C222.034 154.367 222.381 154.437 222.696 154.578C223.011 154.709 223.304 154.92 223.576 155.213L222.826 156.011C222.642 155.805 222.436 155.659 222.208 155.572C221.99 155.485 221.741 155.441 221.458 155.441C220.872 155.441 220.394 155.637 220.025 156.028C219.656 156.408 219.472 156.972 219.472 157.721ZM227.841 162.347C227.113 162.347 226.462 162.173 225.886 161.825C225.311 161.467 224.855 160.989 224.518 160.392C224.193 159.795 224.03 159.122 224.03 158.373C224.03 157.613 224.193 156.934 224.518 156.337C224.855 155.729 225.311 155.251 225.886 154.904C226.462 154.546 227.108 154.367 227.824 154.367C228.411 154.367 228.932 154.486 229.388 154.725C229.855 154.953 230.229 155.279 230.511 155.702C230.805 156.115 230.984 156.598 231.049 157.151V159.545C230.984 160.099 230.805 160.588 230.511 161.011C230.229 161.435 229.855 161.766 229.388 162.005C228.932 162.233 228.416 162.347 227.841 162.347ZM228.02 161.255C228.812 161.255 229.447 160.989 229.925 160.457C230.414 159.925 230.658 159.225 230.658 158.357C230.658 157.781 230.544 157.276 230.316 156.842C230.099 156.397 229.789 156.055 229.388 155.816C228.997 155.566 228.535 155.441 228.003 155.441C227.461 155.441 226.977 155.566 226.554 155.816C226.141 156.066 225.81 156.413 225.561 156.858C225.322 157.293 225.202 157.792 225.202 158.357C225.202 158.921 225.322 159.421 225.561 159.855C225.81 160.289 226.147 160.631 226.57 160.881C226.994 161.131 227.477 161.255 228.02 161.255ZM230.593 162.184V160.132L230.821 158.243L230.593 156.402V154.529H231.733V162.184H230.593ZM236.115 162.184L233.167 154.529H234.356L236.685 160.881L236.261 160.897L238.574 154.529H239.241L241.554 160.897L241.131 160.881L243.443 154.529H244.648L241.684 162.184H241.017L238.655 155.914H239.144L236.799 162.184H236.115ZM246.005 162.184V154.529H247.161V162.184H246.005ZM246.575 152.868C246.357 152.868 246.173 152.792 246.021 152.64C245.869 152.477 245.793 152.287 245.793 152.07C245.793 151.842 245.869 151.652 246.021 151.5C246.173 151.348 246.357 151.272 246.575 151.272C246.813 151.272 247.003 151.348 247.145 151.5C247.297 151.652 247.373 151.842 247.373 152.07C247.373 152.287 247.297 152.477 247.145 152.64C247.003 152.792 246.813 152.868 246.575 152.868ZM255.041 162.184V157.689C255.041 157.016 254.841 156.473 254.439 156.06C254.048 155.637 253.527 155.425 252.875 155.425C252.43 155.425 252.039 155.523 251.703 155.718C251.366 155.914 251.1 156.18 250.905 156.516C250.709 156.853 250.612 157.238 250.612 157.673L250.091 157.379C250.091 156.804 250.226 156.288 250.498 155.832C250.769 155.376 251.133 155.018 251.589 154.757C252.056 154.497 252.588 154.367 253.185 154.367C253.771 154.367 254.292 154.508 254.748 154.79C255.204 155.072 255.557 155.452 255.807 155.93C256.067 156.408 256.198 156.929 256.198 157.493V162.184H255.041ZM249.472 162.184V154.529H250.612V162.184H249.472ZM261.49 165.571C260.719 165.571 260.029 165.425 259.421 165.131C258.824 164.849 258.341 164.447 257.972 163.926L258.721 163.177C259.025 163.59 259.411 163.91 259.877 164.138C260.344 164.366 260.893 164.48 261.522 164.48C262.391 164.48 263.08 164.247 263.591 163.78C264.112 163.313 264.372 162.678 264.372 161.874V159.969L264.6 158.226L264.372 156.5V154.529H265.512V161.874C265.512 162.613 265.344 163.259 265.007 163.812C264.671 164.366 264.199 164.795 263.591 165.099C262.993 165.414 262.293 165.571 261.49 165.571ZM261.571 162.102C260.865 162.102 260.23 161.934 259.666 161.597C259.101 161.261 258.656 160.799 258.33 160.213C258.005 159.627 257.842 158.965 257.842 158.226C257.842 157.488 257.999 156.831 258.314 156.256C258.64 155.669 259.085 155.208 259.649 154.871C260.214 154.535 260.849 154.367 261.555 154.367C262.152 154.367 262.684 154.481 263.151 154.709C263.629 154.937 264.009 155.262 264.291 155.686C264.584 156.098 264.763 156.587 264.828 157.151V159.317C264.763 159.871 264.584 160.36 264.291 160.783C263.998 161.196 263.618 161.521 263.151 161.76C262.684 161.988 262.157 162.102 261.571 162.102ZM261.783 161.011C262.315 161.011 262.776 160.897 263.167 160.669C263.569 160.441 263.878 160.121 264.095 159.708C264.323 159.285 264.437 158.791 264.437 158.226C264.437 157.673 264.323 157.189 264.095 156.777C263.878 156.364 263.569 156.039 263.167 155.8C262.765 155.561 262.299 155.441 261.767 155.441C261.235 155.441 260.757 155.561 260.333 155.8C259.921 156.039 259.595 156.364 259.356 156.777C259.128 157.189 259.014 157.673 259.014 158.226C259.014 158.769 259.134 159.252 259.373 159.676C259.611 160.099 259.937 160.43 260.35 160.669C260.762 160.897 261.24 161.011 261.783 161.011ZM270.154 162.347C269.742 162.347 269.345 162.292 268.965 162.184C268.585 162.064 268.238 161.901 267.923 161.695C267.619 161.489 267.353 161.245 267.125 160.962L267.858 160.213C268.162 160.582 268.504 160.859 268.884 161.044C269.275 161.217 269.709 161.304 270.187 161.304C270.697 161.304 271.093 161.207 271.376 161.011C271.669 160.816 271.815 160.544 271.815 160.197C271.815 159.871 271.712 159.616 271.506 159.431C271.3 159.247 271.034 159.1 270.708 158.992C270.393 158.883 270.056 158.78 269.698 158.682C269.34 158.574 268.998 158.443 268.672 158.291C268.346 158.129 268.08 157.906 267.874 157.624C267.679 157.341 267.581 156.972 267.581 156.516C267.581 156.082 267.684 155.707 267.89 155.393C268.108 155.067 268.412 154.817 268.802 154.643C269.204 154.459 269.676 154.367 270.219 154.367C270.795 154.367 271.316 154.47 271.783 154.676C272.25 154.882 272.624 155.186 272.906 155.588L272.174 156.321C271.946 156.028 271.658 155.805 271.31 155.653C270.974 155.49 270.594 155.409 270.17 155.409C269.682 155.409 269.307 155.507 269.047 155.702C268.797 155.887 268.672 156.131 268.672 156.435C268.672 156.728 268.775 156.961 268.982 157.135C269.188 157.298 269.448 157.434 269.763 157.542C270.089 157.64 270.431 157.743 270.789 157.852C271.148 157.949 271.49 158.085 271.815 158.259C272.141 158.422 272.402 158.65 272.597 158.943C272.803 159.225 272.906 159.611 272.906 160.099C272.906 160.783 272.657 161.331 272.157 161.744C271.669 162.146 271.001 162.347 270.154 162.347Z" fill="white"/>
<g clip-path="url(#clip0_2720_776)">
<path d="M41.3671 20.657C50.149 26.6898 53.5603 37.3697 48.5974 44.5943L48.5952 44.5975C48.0396 45.3989 47.3913 46.1353 46.6612 46.7935C46.5591 46.8855 46.4388 46.955 46.308 46.9974C46.1773 47.0398 46.0392 47.0541 45.9026 47.0394C45.7661 47.0247 45.6342 46.9814 45.5156 46.9122C45.3971 46.843 45.2944 46.7496 45.2145 46.6379C45.0124 46.3567 44.8031 46.0837 44.5803 45.8178C40.3208 40.83 33.5868 39.8116 29.55 43.2643C28.3946 44.2572 27.5343 45.5616 27.0337 47.0888C26.989 47.2253 26.9148 47.3503 26.8164 47.4549C26.718 47.5596 26.5978 47.6413 26.4643 47.6942C26.3308 47.7471 26.1874 47.7699 26.0442 47.761C25.901 47.7522 25.7616 47.7118 25.6358 47.6429C24.9612 47.2735 24.3044 46.8709 23.6661 46.438L23.6598 46.4337C14.8779 40.401 11.4666 29.7211 16.4295 22.4965C21.3925 15.2719 32.5852 14.6243 41.3671 20.657ZM40.2604 22.2681C32.1648 16.7068 22.2432 17.4796 18.0379 23.6014C13.8337 29.7214 16.6696 39.2564 24.7602 44.8183C25.1093 45.055 25.4777 45.2597 25.8389 45.476C26.4662 44.1052 27.1562 42.7516 28.2835 41.7828C33.2671 37.5203 41.217 38.8825 46.0565 44.5439C46.374 44.1952 46.7234 43.8725 46.9912 43.4862C51.1934 37.3644 48.3547 27.8285 40.2604 22.2681ZM39.9579 24.4316C41.2808 25.3403 41.6207 27.1804 40.7104 28.5055C39.8002 29.8306 37.9607 30.1735 36.6378 29.2647C35.3149 28.3559 34.975 26.5159 35.8852 25.1908C36.7955 23.8657 38.635 23.5228 39.9579 24.4316ZM45.2848 30.4622C46.6077 31.3709 46.9476 33.211 46.0373 34.5361C45.127 35.8611 43.2876 36.2041 41.9646 35.2953C40.6417 34.3865 40.3018 32.5465 41.2121 31.2214C42.1224 29.8963 43.9619 29.5534 45.2848 30.4622ZM38.8512 26.0426C38.3975 25.731 37.8058 25.8413 37.4936 26.2957C37.1815 26.7501 37.2908 27.342 37.7445 27.6537C38.1982 27.9653 38.7899 27.855 39.102 27.4006C39.4142 26.9462 39.3049 26.3543 38.8512 26.0426ZM32.4176 21.6231C33.7405 22.5318 34.0804 24.3719 33.1701 25.697C32.2599 27.022 30.4204 27.365 29.0975 26.4562C27.7746 25.5474 27.4347 23.7074 28.345 22.3823C29.2552 21.0572 31.0947 20.7143 32.4176 21.6231ZM44.1781 32.0732C43.7244 31.7616 43.1327 31.8719 42.8205 32.3263C42.5083 32.7807 42.6177 33.3726 43.0714 33.6842C43.525 33.9959 44.1167 33.8856 44.4289 33.4312C44.7411 32.9768 44.6317 32.3849 44.1781 32.0732ZM31.3109 23.2341C30.8572 22.9224 30.2655 23.0328 29.9534 23.4872C29.6412 23.9416 29.7505 24.5335 30.2042 24.8451C30.6579 25.1568 31.2496 25.0465 31.5618 24.5921C31.8739 24.1376 31.7646 23.5457 31.3109 23.2341ZM24.2723 23.1415C25.5952 24.0503 25.9351 25.8903 25.0248 27.2154C24.1146 28.5405 22.2751 28.8834 20.9522 27.9746C19.6293 27.0659 19.2894 25.2258 20.1997 23.9007C21.1099 22.5757 22.9494 22.2327 24.2723 23.1415ZM23.1656 24.7526C22.7119 24.4409 22.1202 24.5512 21.8081 25.0056C21.4959 25.46 21.6052 26.0519 22.0589 26.3636C22.5126 26.6752 23.1043 26.5649 23.4164 26.1105C23.7286 25.6561 23.6193 25.0642 23.1656 24.7526ZM24.6707 32.9003C25.9936 33.8091 26.3335 35.6491 25.4232 36.9742C24.5129 38.2993 22.6735 38.6422 21.3506 37.7335C20.0276 36.8247 19.6877 34.9847 20.598 33.6596C21.5083 32.3345 23.3478 31.9916 24.6707 32.9003ZM23.564 34.5114C23.1103 34.1997 22.5186 34.31 22.2064 34.7645C21.8943 35.2189 22.0036 35.8108 22.4573 36.1224C22.9109 36.4341 23.5026 36.3238 23.8148 35.8693C24.127 35.4149 24.0176 34.823 23.564 34.5114Z" fill="white" fill-opacity="0.3"/>
</g>
<g clip-path="url(#clip1_2720_776)">
<mask id="mask0_2720_776" style="mask-type:luminance" maskUnits="userSpaceOnUse" x="35" y="73" width="44" height="44">
<path d="M78.072 78.0106L73.1915 116.453L35.8286 111.709L40.7091 73.2671L78.072 78.0106Z" fill="white"/>
</mask>
<g mask="url(#mask0_2720_776)">
<path d="M77.1027 78.0514C77.2319 78.1137 77.3459 78.2036 77.4369 78.3142C77.5278 78.4251 77.5933 78.5548 77.6289 78.6934C77.6944 78.9292 77.7168 79.1749 77.6953 79.4188L77.6674 79.7328C77.601 80.4857 77.532 81.2637 77.4191 82.0253C76.889 85.5859 74.8188 88.1048 71.2664 89.5121C70.3749 89.8801 69.3991 89.9968 68.4456 89.849C68.1026 89.7934 67.9059 89.9011 67.6167 90.1508C66.7371 90.91 65.8275 91.6946 64.8918 92.4179C63.9661 93.1331 63.0162 93.8484 62.0976 94.5401C60.8082 95.5112 59.4748 96.5152 58.1889 97.5333C54.1758 100.711 50.1103 103.961 46.1785 107.105C44.6438 108.332 43.1087 109.559 41.573 110.785C40.3534 111.758 39.1959 112.109 37.9303 111.889C37.5484 111.838 37.1911 111.672 36.9057 111.413C36.6203 111.154 36.4207 110.815 36.3328 110.44C36.2039 110.005 36.1657 109.548 36.2206 109.097C36.2996 108.517 36.5275 107.968 36.8829 107.502C37.6499 106.468 38.4922 105.39 39.605 104.58C41.4638 103.225 43.3728 101.802 45.2815 100.348C46.9669 99.0648 48.6669 97.7407 50.311 96.4601C54.8186 92.949 59.4801 89.318 64.3519 86.1256C64.8751 85.783 65.2308 85.4832 65.0424 84.7446L65.0295 84.6933L65.048 84.6449C65.1039 84.4987 65.1575 84.3403 65.2134 84.1754C65.3445 83.753 65.5115 83.3423 65.7126 82.9479C66.0942 82.2106 66.6445 81.5731 67.3187 81.0875C67.9929 80.6019 68.7723 80.2815 69.5936 80.1525C70.6625 79.9606 71.7225 79.8612 72.6184 79.7895C74.0949 79.6711 75.0298 79.2716 75.7445 78.4535C75.8914 78.2893 76.0711 78.1572 76.2721 78.0668C76.401 78.0039 76.5422 77.9699 76.6856 77.9672C76.8291 77.9645 76.9715 77.9931 77.1027 78.0514ZM38.3394 109.901C38.3893 109.951 38.4503 109.99 38.5172 110.014C38.5844 110.038 38.6561 110.047 38.7268 110.039C38.9827 110.061 39.2403 110.029 39.4828 109.945C39.7253 109.862 39.9476 109.728 40.1353 109.553C40.9608 108.819 41.8491 108.131 42.708 107.466C43.0812 107.176 43.4541 106.887 43.8235 106.594C48.5574 102.831 53.2904 99.0678 58.0225 95.3035C58.0648 95.2672 58.105 95.2284 58.1429 95.1874L58.1732 95.1561L57.0384 94.0044C56.987 94.0409 56.9373 94.0758 56.8889 94.1097C56.7232 94.2264 56.5738 94.3314 56.4286 94.4419L55.8332 94.8948C51.4649 98.2167 47.0972 101.54 42.7302 104.864L42.5934 104.968C41.3922 105.883 40.1499 106.828 39.2362 108.066C38.8944 108.53 38.6039 109.029 38.3704 109.555C38.3398 109.607 38.3214 109.665 38.3158 109.724C38.3105 109.784 38.3185 109.844 38.3394 109.901ZM75.5883 80.8316C74.4916 81.4809 73.33 81.6436 72.2024 81.8013C71.8817 81.8461 71.5507 81.8923 71.2296 81.9492C70.6566 82.0413 70.0932 82.1849 69.546 82.3782C68.2279 82.8663 67.4629 84.0649 67.5496 85.5055C67.5736 85.9039 67.607 86.3021 67.6393 86.6754C67.7091 87.4852 68.0732 87.8453 68.8568 87.88C69.2313 87.9044 69.6072 87.8656 69.9688 87.7655C72.8697 86.8873 74.6257 85.2221 75.337 82.6756C75.4013 82.4367 75.448 82.1932 75.4765 81.9472C75.503 81.7384 75.5231 81.5203 75.5437 81.2874C75.5581 81.1389 75.5722 80.9872 75.5884 80.8311L75.5883 80.8316ZM65.6082 87.5611L58.9628 92.4904L60.0633 93.7471L66.5475 89.0139L65.6082 87.5611Z" fill="white" fill-opacity="0.3"/>
</g>
</g>
<g clip-path="url(#clip2_2720_776)">
<path d="M107.544 19.9934C107.138 20.4328 106.825 20.778 106.512 21.1071C105.535 22.1086 105.384 23.2916 105.946 24.487C106.595 25.8733 107.325 27.221 108.131 28.5234C109.418 30.6136 110.779 32.6559 112.396 34.5202C112.725 34.8991 113.081 35.2584 113.427 35.632C114.073 35.4079 114.471 35.0112 114.865 34.6287C115.259 34.2462 115.388 33.7392 115.091 33.2376C114.701 32.5794 114.297 31.9265 113.851 31.3039C112.691 29.6833 111.47 28.1018 110.342 26.4634C109.736 25.5828 109.264 24.6151 108.744 23.6776C108.631 23.4695 108.541 23.2097 108.935 22.9785C109.052 23.1457 109.168 23.2934 109.26 23.4535C110.721 25.976 112.222 28.4665 114.256 30.603C115.064 31.4551 115.774 32.4015 116.515 33.3158C116.657 33.5243 116.784 33.7418 116.897 33.9669C116.996 34.127 117.09 34.3939 117.221 34.417C117.805 34.5202 118.048 34.9987 118.38 35.3669C119.721 36.8488 121.04 38.3467 122.377 39.8303C124.588 42.3227 127.119 44.5187 129.904 46.3625C131.362 47.3142 132.702 48.4278 134.14 49.4134C135.666 50.4594 137.111 51.5765 138.383 52.9303C139.24 53.8411 140.07 53.9176 141.028 53.4337C141.458 53.2167 141.578 52.9001 141.454 52.4198C141.231 51.5427 140.683 50.8543 140.06 50.253C139.436 49.6517 139.122 48.9722 138.893 48.1681C138.672 47.383 138.355 46.6274 137.95 45.9178C136.579 43.5251 135.218 41.1147 133.73 38.8021C131.662 35.5608 129.148 32.6576 126.431 29.927C126.141 29.637 125.858 29.3399 125.559 29.0589C125.418 28.9469 125.309 28.8008 125.242 28.6346C125.175 28.4685 125.152 28.288 125.176 28.1107C125.202 27.9067 125.18 27.6996 125.112 27.5053C125.044 27.3111 124.932 27.1348 124.785 26.99C123.279 25.3178 122.012 23.4321 120.321 21.9236C118.101 19.9436 115.868 17.9744 113.267 16.4836C112.372 15.9825 111.446 15.5369 110.495 15.1494C109.544 14.7509 107.905 15.1868 107.26 15.9926C107.039 16.2703 106.913 16.6106 106.901 16.9639C106.932 17.6221 107.017 18.2766 107.157 18.9208C107.259 19.2875 107.388 19.646 107.544 19.9934ZM124.368 29.5997C124.584 29.7464 124.787 29.9106 124.975 30.0906C126.582 31.8696 128.257 33.6058 129.761 35.4719C132.223 38.5431 134.371 41.8479 136.176 45.3378C136.577 46.1063 137.05 46.8357 137.466 47.5953C137.777 48.161 137.714 48.5364 137.287 48.9793C136.791 49.4934 136.415 49.5575 135.793 49.1999C135.483 49.021 135.183 48.825 134.895 48.6128C134.111 48.0418 133.335 47.4583 132.559 46.8802C130.668 45.4766 128.702 44.1798 126.898 42.6588C124.555 40.677 122.639 38.304 120.483 36.1159C119.927 35.5502 119.571 34.7924 119.09 34.0719C119.974 33.3852 120.887 32.7306 121.726 32.0101C122.628 31.2505 123.466 30.4304 124.362 29.605L124.368 29.5997ZM118.049 33.2251C116.743 31.7041 115.551 30.3788 114.423 28.9913C111.925 25.9262 109.948 22.5409 108.313 18.9634C108.107 18.4437 108.001 17.8905 108 17.3322C107.964 16.5672 108.439 16.0513 109.206 16.046C109.716 16.0484 110.22 16.1525 110.689 16.352C113.842 17.7057 116.551 19.7319 118.991 22.0766C120.461 23.4908 121.778 25.0634 123.142 26.5826C123.44 26.917 123.651 27.3297 123.94 27.762C122.431 30.0871 120.353 31.6881 118.044 33.2305L118.049 33.2251ZM113.612 33.8958C113.424 33.7682 113.251 33.6196 113.097 33.4528C111.83 31.7273 110.559 30.0053 109.323 28.2566C108.442 27.0077 107.674 25.6844 107.028 24.302C106.559 23.2969 106.581 22.4466 107.485 21.7119C107.639 21.5856 107.781 21.4433 108.024 21.2227C108.146 21.5091 108.313 21.7208 108.302 21.9343C108.275 22.1872 108.175 22.427 108.013 22.6245C107.531 23.2258 107.549 23.8164 107.925 24.4568C108.157 24.8499 108.302 25.2947 108.55 25.6753C109.607 27.2954 110.677 28.9071 111.76 30.5105C112.358 31.3999 112.992 32.2592 113.596 33.1415C113.731 33.3354 113.896 33.5631 113.607 33.9011L113.612 33.8958ZM137.621 50.3847C138.351 50.1872 138.365 50.1747 138.471 50.2975C138.927 50.8312 139.389 51.3648 139.819 51.9074C139.903 52.0159 139.858 52.2205 139.887 52.5318C138.812 52.0302 138.338 51.2119 137.621 50.3847Z" fill="white" fill-opacity="0.3"/>
</g>
<g clip-path="url(#clip3_2720_776)">
<mask id="mask1_2720_776" style="mask-type:luminance" maskUnits="userSpaceOnUse" x="71" y="167" width="43" height="44">
<path d="M113.971 171.872L109.09 210.314L71.7275 205.57L76.608 167.128L113.971 171.872Z" fill="white"/>
</mask>
<g mask="url(#mask1_2720_776)">
<path d="M113.002 171.912C113.131 171.975 113.245 172.065 113.336 172.175C113.427 172.286 113.492 172.416 113.528 172.555C113.593 172.79 113.616 173.036 113.594 173.28L113.566 173.594C113.5 174.347 113.431 175.125 113.318 175.886C112.788 179.447 110.718 181.966 107.165 183.373C106.274 183.741 105.298 183.858 104.345 183.71C104.001 183.654 103.805 183.762 103.516 184.012C102.636 184.771 101.726 185.556 100.791 186.279C99.865 186.994 98.9151 187.709 97.9965 188.401C96.7071 189.372 95.3737 190.376 94.0879 191.394C90.0747 194.572 86.0093 197.823 82.0775 200.966C80.5428 202.193 79.0076 203.42 77.472 204.646C76.2524 205.619 75.0949 205.971 73.8293 205.75C73.4473 205.699 73.09 205.533 72.8046 205.274C72.5192 205.015 72.3196 204.676 72.2318 204.301C72.1029 203.866 72.0646 203.409 72.1195 202.958C72.1985 202.378 72.4264 201.829 72.7818 201.363C73.5489 200.329 74.3912 199.251 75.504 198.441C77.3627 197.086 79.2717 195.663 81.1804 194.21C82.8658 192.926 84.5659 191.602 86.2099 190.321C90.7175 186.81 95.379 183.179 100.251 179.987C100.774 179.644 101.13 179.344 100.941 178.606L100.928 178.554L100.947 178.506C101.003 178.36 101.056 178.201 101.112 178.037C101.243 177.614 101.41 177.203 101.612 176.809C101.993 176.072 102.543 175.434 103.218 174.949C103.892 174.463 104.671 174.143 105.493 174.014C106.561 173.822 107.621 173.722 108.517 173.651C109.994 173.532 110.929 173.133 111.643 172.315C111.79 172.15 111.97 172.018 112.171 171.928C112.3 171.865 112.441 171.831 112.585 171.828C112.728 171.826 112.87 171.854 113.002 171.912ZM74.2384 203.762C74.2882 203.813 74.3492 203.851 74.4162 203.875C74.4833 203.899 74.555 203.908 74.6257 203.9C74.8816 203.922 75.1392 203.89 75.3817 203.806C75.6242 203.723 75.8465 203.589 76.0342 203.415C76.8597 202.68 77.748 201.992 78.607 201.327C78.9801 201.038 79.353 200.748 79.7224 200.455C84.4564 196.692 89.1893 192.929 93.9215 189.165C93.9637 189.128 94.004 189.089 94.0418 189.048L94.0722 189.017L92.9374 187.865C92.886 187.902 92.8363 187.937 92.7879 187.971C92.6222 188.087 92.4727 188.192 92.3276 188.303L91.7321 188.756C87.3638 192.078 82.9961 195.401 78.6291 198.725L78.4923 198.83C77.2911 199.744 76.0488 200.689 75.1351 201.927C74.7933 202.391 74.5029 202.89 74.2693 203.416C74.2388 203.468 74.2203 203.526 74.2148 203.586C74.2094 203.645 74.2175 203.705 74.2384 203.762ZM111.487 174.693C110.391 175.342 109.229 175.505 108.101 175.662C107.781 175.707 107.45 175.753 107.129 175.81C106.556 175.902 105.992 176.046 105.445 176.239C104.127 176.727 103.362 177.926 103.449 179.367C103.473 179.765 103.506 180.163 103.538 180.536C103.608 181.346 103.972 181.706 104.756 181.741C105.13 181.765 105.506 181.727 105.868 181.627C108.769 180.748 110.525 179.083 111.236 176.537C111.3 176.298 111.347 176.054 111.375 175.808C111.402 175.6 111.422 175.381 111.443 175.149C111.457 175 111.471 174.848 111.487 174.692L111.487 174.693ZM101.507 181.422L94.8617 186.352L95.9622 187.608L102.446 182.875L101.507 181.422Z" fill="white" fill-opacity="0.3"/>
</g>
</g>
<g clip-path="url(#clip4_2720_776)">
<path d="M27.5438 149.993C27.1377 150.433 26.825 150.778 26.5123 151.107C25.5347 152.109 25.3838 153.292 25.9463 154.487C26.595 155.873 27.3247 157.221 28.1315 158.523C29.4182 160.614 30.7785 162.656 32.3959 164.52C32.7247 164.899 33.0805 165.258 33.4274 165.632C34.0725 165.408 34.4714 165.011 34.865 164.629C35.2586 164.246 35.3879 163.739 35.0914 163.238C34.7015 162.579 34.2971 161.926 33.8515 161.304C32.6906 159.683 31.4704 158.102 30.3418 156.463C29.7362 155.583 29.2636 154.615 28.7443 153.678C28.6311 153.469 28.5412 153.21 28.9348 152.978C29.0516 153.146 29.1684 153.293 29.26 153.453C30.721 155.976 32.2216 158.466 34.2558 160.603C35.0645 161.455 35.7743 162.401 36.5147 163.316C36.6566 163.524 36.7845 163.742 36.8975 163.967C36.9963 164.127 37.0897 164.394 37.2209 164.417C37.805 164.52 38.0476 164.999 38.38 165.367C39.7206 166.849 41.0396 168.347 42.3766 169.83C44.588 172.323 47.1187 174.519 49.9045 176.363C51.3619 177.314 52.7025 178.428 54.1401 179.413C55.6658 180.459 57.1106 181.577 58.3829 182.93C59.2401 183.841 60.0703 183.918 61.0282 183.434C61.4577 183.217 61.5781 182.9 61.4541 182.42C61.2312 181.543 60.6831 180.854 60.0596 180.253C59.436 179.652 59.1215 178.972 58.8933 178.168C58.6718 177.383 58.355 176.627 57.9498 175.918C56.5787 173.525 55.2183 171.115 53.7304 168.802C51.662 165.561 49.1479 162.658 46.4308 159.927C46.1415 159.637 45.8575 159.34 45.5592 159.059C45.4182 158.947 45.3089 158.801 45.2418 158.635C45.1747 158.468 45.1522 158.288 45.1764 158.111C45.2019 157.907 45.1798 157.7 45.1119 157.505C45.044 157.311 44.9321 157.135 44.7847 156.99C43.2788 155.318 42.0118 153.432 40.3208 151.924C38.1015 149.944 35.8678 147.974 33.2674 146.484C32.372 145.982 31.4459 145.537 30.4946 145.149C29.544 144.751 27.905 145.187 27.2599 145.993C27.0388 146.27 26.9128 146.611 26.9005 146.964C26.9315 147.622 27.0175 148.277 27.1575 148.921C27.2588 149.287 27.3879 149.646 27.5438 149.993ZM44.3678 159.6C44.5836 159.746 44.7868 159.911 44.9752 160.091C46.5817 161.87 48.2566 163.606 49.7607 165.472C52.2225 168.543 54.3715 171.848 56.1761 175.338C56.5769 176.106 57.0495 176.836 57.4664 177.595C57.7773 178.161 57.7144 178.536 57.2867 178.979C56.7907 179.493 56.4152 179.557 55.7934 179.2C55.483 179.021 55.183 178.825 54.8949 178.613C54.1113 178.042 53.335 177.458 52.5587 176.88C50.6682 175.477 48.7022 174.18 46.898 172.659C44.5547 170.677 42.639 168.304 40.4826 166.116C39.9273 165.55 39.5715 164.792 39.0899 164.072C39.974 163.385 40.8869 162.731 41.7261 162.01C42.6282 161.251 43.4657 160.43 44.3624 159.605L44.3678 159.6ZM38.0494 163.225C36.7429 161.704 35.5515 160.379 34.4229 158.991C31.925 155.926 29.9483 152.541 28.313 148.963C28.1071 148.444 28.001 147.89 28.0003 147.332C27.9643 146.567 28.4388 146.051 29.2061 146.046C29.716 146.048 30.2203 146.152 30.6887 146.352C33.8425 147.706 36.5506 149.732 38.991 152.077C40.461 153.491 41.7782 155.063 43.1422 156.583C43.4405 156.917 43.6508 157.33 43.9401 157.762C42.4306 160.087 40.3532 161.688 38.044 163.23L38.0494 163.225ZM33.6125 163.896C33.424 163.768 33.2509 163.62 33.0967 163.453C31.8298 161.727 30.5593 160.005 29.3229 158.257C28.442 157.008 27.6741 155.684 27.0281 154.302C26.5591 153.297 26.5806 152.447 27.4845 151.712C27.6391 151.586 27.7811 151.443 28.0237 151.223C28.1459 151.509 28.313 151.721 28.3022 151.934C28.2752 152.187 28.1747 152.427 28.0129 152.624C27.5313 153.226 27.5492 153.816 27.9248 154.457C28.1566 154.85 28.3022 155.295 28.5502 155.675C29.6069 157.295 30.6767 158.907 31.7597 160.51C32.3581 161.4 32.9925 162.259 33.5963 163.142C33.7311 163.335 33.8964 163.563 33.6071 163.901L33.6125 163.896ZM57.621 180.385C58.3506 180.187 58.3649 180.175 58.471 180.297C58.9274 180.831 59.3893 181.365 59.8188 181.907C59.9032 182.016 59.8583 182.221 59.887 182.532C58.8124 182.03 58.338 181.212 57.621 180.385Z" fill="white" fill-opacity="0.3"/>
</g>
<defs>
<clipPath id="clip0_2720_776">
<rect width="39.0267" height="39.0909" fill="white" transform="matrix(-0.824253 -0.566222 -0.566222 0.824253 59.6644 28.4839)"/>
</clipPath>
<clipPath id="clip1_2720_776">
<rect width="39.0267" height="39.0909" fill="white" transform="matrix(0.125947 -0.992037 -0.992037 -0.125947 73.8807 116.778)"/>
</clipPath>
<clipPath id="clip2_2720_776">
<rect width="39.1217" height="38.7273" fill="white" transform="matrix(-1 0 0 1 143.122 15)"/>
</clipPath>
<clipPath id="clip3_2720_776">
<rect width="39.0267" height="39.0909" fill="white" transform="matrix(0.125947 -0.992037 -0.992037 -0.125947 109.78 210.639)"/>
</clipPath>
<clipPath id="clip4_2720_776">
<rect width="39.1217" height="38.7273" fill="white" transform="matrix(-1 0 0 1 63.1217 145)"/>
</clipPath>
</defs>
</svg>
