<svg width="32" height="32" viewBox="0 0 32 32" fill="none" xmlns="http://www.w3.org/2000/svg">
<path d="M22 28H18V14C18.0001 13.7373 17.9485 13.4772 17.8481 13.2345C17.7476 12.9917 17.6003 12.7712 17.4145 12.5855C17.2288 12.3997 17.0083 12.2524 16.7655 12.1519C16.5228 12.0515 16.2627 11.9999 16 12H12C11.4696 12 10.9609 12.2107 10.5858 12.5858C10.2107 12.9609 10 13.4696 10 14C10 14.5304 10.2107 15.0391 10.5858 15.4142C10.9609 15.7893 11.4696 16 12 16H14V28H10C9.46957 28 8.96086 28.2107 8.58579 28.5858C8.21071 28.9609 8 29.4696 8 30C8 30.5304 8.21071 31.0391 8.58579 31.4142C8.96086 31.7893 9.46957 32 10 32H22C22.5304 32 23.0391 31.7893 23.4142 31.4142C23.7893 31.0391 24 30.5304 24 30C24 29.4696 23.7893 28.9609 23.4142 28.5858C23.0391 28.2107 22.5304 28 22 28Z" fill="white"/>
<path d="M16 8C16.7911 8 17.5645 7.76541 18.2223 7.32588C18.8801 6.88635 19.3928 6.26164 19.6955 5.53074C19.9983 4.79983 20.0775 3.99556 19.9231 3.21964C19.7688 2.44372 19.3878 1.73098 18.8284 1.17157C18.269 0.612165 17.5563 0.231202 16.7804 0.0768607C16.0044 -0.0774802 15.2002 0.00173314 14.4693 0.304484C13.7384 0.607234 13.1136 1.11992 12.6741 1.77772C12.2346 2.43552 12 3.20888 12 4C12.0011 5.06055 12.4228 6.07735 13.1727 6.82727C13.9227 7.57719 14.9395 7.99895 16 8Z" fill="white"/>
</svg>
