<svg width="82" height="82" viewBox="0 0 82 82" fill="none" xmlns="http://www.w3.org/2000/svg">
<g clip-path="url(#clip0_2939_1219)">
<path d="M41 0C46.5454 0 51.8372 1.10775 56.6753 3.1097C61.7002 5.19173 66.2113 8.2347 69.995 12.0117C73.7786 15.7887 76.8149 20.3065 78.897 25.3314C80.8989 30.1628 82.0067 35.4613 82.0067 41.0067C82.0067 46.5521 80.8989 51.8439 78.897 56.682C76.8149 61.7069 73.772 66.2179 69.995 70.0016C66.2179 73.7787 61.7002 76.8216 56.6753 78.9036C51.8439 80.9056 46.5454 82.0134 41 82.0134C35.4546 82.0134 30.1628 80.9056 25.3247 78.9036C20.2998 76.8216 15.7887 73.7787 12.005 70.0016C8.2347 66.2113 5.19173 61.6935 3.1097 56.6753C1.10775 51.8372 0 46.5454 0 41C0 35.4546 1.10775 30.1628 3.1097 25.3247C5.19173 20.3065 8.2347 15.7887 12.0117 12.0117C15.7887 8.2347 20.3065 5.19173 25.3314 3.1097C30.1628 1.10775 35.4546 0 41 0ZM34.8006 47.2861H28.2342L27.2933 50.3758H21.3809L28.4411 31.6242H34.7806L41.8075 50.3758H35.7415L34.8006 47.2861ZM33.5728 43.2288L31.5241 36.4889L29.4688 43.2288H33.5728ZM42.8885 31.6242H51.5036C53.1986 31.6242 54.5732 31.8577 55.6143 32.3115C56.6553 32.772 57.5228 33.4326 58.2101 34.2935C58.8908 35.161 59.3846 36.1553 59.6916 37.3031C59.9985 38.4442 60.152 39.6587 60.152 40.9333C60.152 42.9352 59.9251 44.4901 59.4647 45.5978C59.0109 46.6989 58.377 47.6265 57.5628 48.3739C56.7487 49.1213 55.8812 49.6151 54.9536 49.8687C53.6857 50.209 52.5313 50.3825 51.5036 50.3825H42.8885V31.6242ZM48.6742 35.8683V46.1117H50.0955C51.3101 46.1117 52.1709 45.9782 52.6914 45.7113C53.2052 45.4377 53.6056 44.9705 53.8993 44.3032C54.1929 43.6292 54.333 42.5482 54.333 41.0467C54.333 39.0581 54.0127 37.7035 53.3587 36.9694C52.7114 36.2354 51.6304 35.8683 50.1222 35.8683H48.6742ZM68.1932 21.0472L60.0252 29.2218L52.6113 26.3457L63.2884 15.6686C60.4189 13.1328 57.1157 11.0908 53.5122 9.64941C49.6551 8.10791 45.431 7.26709 41.0067 7.26709C36.4422 7.26709 32.0913 8.17464 28.1208 9.81624C23.9967 11.5246 20.2865 14.0337 17.1701 17.1434C14.0604 20.2531 11.5513 23.9701 9.84294 28.0941C8.20134 32.0579 7.29378 36.4089 7.29378 40.98C7.29378 45.3976 8.14128 49.6084 9.67611 53.4655C11.1175 57.0824 13.1662 60.3923 15.6953 63.2617L23.8433 55.1138L31.9645 57.2892L21.0739 68.1799C23.7365 70.1351 26.6994 71.71 29.8691 72.8177C33.3525 74.0389 37.0962 74.6996 41 74.6996C45.5645 74.6996 49.9154 73.792 53.8859 72.1504C58.0099 70.4421 61.7202 67.9329 64.8366 64.8232C67.9463 61.7135 70.4554 57.9966 72.1637 53.8726C73.8053 49.9087 74.7129 45.5578 74.7129 40.9867C74.7129 37.0695 74.0523 33.3258 72.8377 29.8491C71.7233 26.6727 70.1484 23.7165 68.1932 21.0472Z" fill="#50C4ED"/>
</g>
<defs>
<clipPath id="clip0_2939_1219">
<rect width="82" height="82" fill="white"/>
</clipPath>
</defs>
</svg>
