<svg width="36" height="36" viewBox="0 0 36 36" fill="none" xmlns="http://www.w3.org/2000/svg">
<circle cx="18" cy="18" r="18" fill="#50C4ED"/>
<g clip-path="url(#clip0_2622_1069)">
<path d="M11.57 9.43926L18 15.8694L24.43 9.43926C24.9663 8.90299 25.8161 8.85305 26.4509 9.34899L26.5607 9.44904C27.1464 10.0347 27.1464 10.9843 26.5607 11.57L20.1306 18L26.5607 24.43C27.097 24.9663 27.1469 25.8161 26.651 26.4509L26.551 26.5607C25.9653 27.1464 25.0157 27.1464 24.43 26.5607L18 20.1305L11.57 26.5607C11.0337 27.097 10.1839 27.147 9.54913 26.651L9.43927 26.551C8.85358 25.9653 8.85357 25.0157 9.43927 24.43L15.8694 18L9.43927 11.57C8.90299 11.0337 8.85305 10.1839 9.349 9.54912L9.44902 9.43926C10.0347 8.85358 10.9843 8.85358 11.57 9.43926ZM10.5215 26.2499C10.5175 26.25 10.5135 26.25 10.5095 26.25L10.5215 26.2499ZM10.6211 26.2417L10.5882 26.2459C10.5991 26.2447 10.6101 26.2433 10.6211 26.2417ZM10.399 26.2418L10.4123 26.2437C10.4078 26.2431 10.4035 26.2425 10.399 26.2418ZM10.3047 26.2216L10.3164 26.2248C10.3124 26.2238 10.3087 26.2228 10.3047 26.2216ZM10.7163 26.2211L10.6759 26.2314C10.6894 26.2283 10.7029 26.2249 10.7163 26.2211ZM10.8012 26.1912L10.77 26.2035C10.7804 26.1997 10.7908 26.1955 10.8012 26.1912ZM10.2177 26.1911C10.2195 26.1919 10.2214 26.1927 10.2177 26.1911ZM10.1298 26.1469L10.05 26.0928C10.0833 26.1187 10.1183 26.1414 10.1545 26.1609L10.1298 26.1469ZM10.8889 26.1471L10.8648 26.1607C10.8727 26.1564 10.8808 26.1519 10.8889 26.1471ZM26.1609 25.8455L26.1469 25.8702L26.0928 25.95C26.1186 25.9167 26.1414 25.8817 26.1609 25.8455ZM26.2024 25.754L26.1911 25.7823C26.1951 25.7728 26.1988 25.7634 26.2024 25.754ZM26.2311 25.6583L26.2216 25.6953C26.225 25.6833 26.2282 25.6708 26.2311 25.6583ZM26.2458 25.5697L26.2418 25.601C26.2434 25.5908 26.2447 25.5802 26.2458 25.5697ZM25.4905 10.4997L18 17.9904L10.5095 10.4997L10.4997 10.5095L17.9904 18L10.4997 25.4905L10.5095 25.5003L18 18.0096L25.4905 25.5003L25.5003 25.4905L18.0096 18L25.5003 10.5095L25.4905 10.4997ZM26.2499 25.4785L26.2499 25.5002C26.25 25.493 26.25 25.4858 26.2499 25.4785ZM26.2417 25.3789L26.2459 25.4118C26.2447 25.4009 26.2434 25.3899 26.2417 25.3789ZM26.2211 25.2837L26.2314 25.3241C26.2284 25.3106 26.2249 25.2971 26.2211 25.2837ZM26.1912 25.1988L26.2035 25.23C26.1996 25.2196 26.1955 25.2092 26.1912 25.1988ZM26.1471 25.1111L26.1607 25.1352C26.1564 25.1273 26.1519 25.1191 26.1471 25.1111ZM9.83931 10.8648L9.85061 10.8851C9.84667 10.8783 9.84302 10.8717 9.83931 10.8648ZM9.7965 10.77L9.80658 10.7958C9.80303 10.7872 9.79972 10.7787 9.7965 10.77ZM9.76858 10.6759L9.77517 10.7026C9.77282 10.6937 9.77061 10.6848 9.76858 10.6759ZM9.7538 10.5852L9.75627 10.6067C9.75533 10.5995 9.75452 10.5924 9.7538 10.5852ZM9.75032 10.4878L9.75 10.5095C9.75 10.5022 9.7501 10.4951 9.75032 10.4878ZM9.75814 10.399L9.75627 10.4123C9.75686 10.4078 9.75747 10.4035 9.75814 10.399ZM9.77838 10.3047L9.77517 10.3165C9.77625 10.3124 9.77724 10.3088 9.77838 10.3047ZM9.80886 10.2177C9.80811 10.2195 9.80731 10.2214 9.80886 10.2177ZM9.85308 10.1298L9.90724 10.05C9.88134 10.0833 9.85862 10.1183 9.83912 10.1545L9.85308 10.1298ZM10.8645 9.83913L10.8893 9.85307L10.969 9.90722C10.9357 9.88133 10.9007 9.85863 10.8645 9.83913ZM25.1352 9.83929L25.1149 9.85062C25.1217 9.84668 25.1283 9.84301 25.1352 9.83929ZM10.1542 9.83929L10.134 9.85062C10.1408 9.84668 10.1473 9.84301 10.1542 9.83929ZM25.8455 9.83913L25.8702 9.85307L25.95 9.90722C25.9167 9.88133 25.8817 9.85863 25.8455 9.83913ZM10.2461 9.79762L10.2232 9.8066C10.2308 9.80348 10.2384 9.80048 10.2461 9.79762ZM10.7698 9.79645L10.8013 9.80889C10.7908 9.80447 10.7804 9.80034 10.7698 9.79645ZM25.23 9.7965L25.2042 9.8066C25.2128 9.80305 25.2213 9.79972 25.23 9.7965ZM25.754 9.79763L25.7823 9.80889C25.7728 9.8049 25.7634 9.80117 25.754 9.79763ZM10.3419 9.76886L10.3164 9.77516C10.3248 9.77293 10.3335 9.7708 10.3419 9.76886ZM10.6758 9.76858L10.7164 9.77897C10.7029 9.7751 10.6894 9.77165 10.6758 9.76858ZM25.3241 9.76859L25.2974 9.77516C25.3063 9.7728 25.3152 9.77062 25.3241 9.76859ZM25.6583 9.76892L25.6953 9.77837C25.6833 9.77497 25.6708 9.77178 25.6583 9.76892ZM10.4335 9.75383L10.4123 9.75629C10.4193 9.75538 10.4265 9.75455 10.4335 9.75383ZM10.5851 9.7538L10.621 9.75829C10.6091 9.75651 10.5971 9.75501 10.5851 9.7538ZM25.4148 9.75381L25.3933 9.75629C25.4005 9.75535 25.4076 9.75453 25.4148 9.75381ZM25.5666 9.75385L25.601 9.75815C25.5897 9.75647 25.5782 9.75503 25.5666 9.75385ZM25.4687 9.75031L25.5124 9.75032C25.4978 9.74989 25.4833 9.74989 25.4687 9.75031ZM10.4876 9.75032L10.5313 9.75031C10.5167 9.74989 10.5022 9.74989 10.4876 9.75032Z" fill="white"/>
</g>
<defs>
<clipPath id="clip0_2622_1069">
<rect width="18" height="18" fill="white" transform="translate(9 9)"/>
</clipPath>
</defs>
</svg>
