<svg width="48" height="48" viewBox="0 0 48 48" fill="none" xmlns="http://www.w3.org/2000/svg">
<path fill-rule="evenodd" clip-rule="evenodd" d="M11.9999 4C7.5816 4 3.99988 7.58172 3.99988 12V14C3.99988 18.4183 7.5816 22 11.9999 22H13.9999C18.4182 22 21.9999 18.4183 21.9999 14V12C21.9999 7.58172 18.4182 4 13.9999 4H11.9999ZM33.9999 4C29.5817 4 25.9999 7.58172 25.9999 12V14C25.9999 18.4183 29.5817 22 33.9999 22H35.9999C40.4181 22 43.9999 18.4183 43.9999 14V12C43.9999 7.58172 40.4181 4 35.9999 4H33.9999ZM11.9999 26C7.5816 26 3.99988 29.5818 3.99988 34V36C3.99988 40.4182 7.5816 44 11.9999 44H13.9999C18.4182 44 21.9999 40.4182 21.9999 36V34C21.9999 29.5818 18.4182 26 13.9999 26H11.9999ZM33.9999 26C29.5817 26 25.9999 29.5818 25.9999 34V36C25.9999 40.4182 29.5817 44 33.9999 44H35.9999C40.4181 44 43.9999 40.4182 43.9999 36V34C43.9999 29.5818 40.4181 26 35.9999 26H33.9999Z" fill="white"/>
</svg>
