<svg width="47" height="42" viewBox="0 0 47 42" fill="none" xmlns="http://www.w3.org/2000/svg">
<path d="M3.91675 21C3.91675 12.7504 3.91675 8.62563 6.78467 6.06282C9.65257 3.5 14.2684 3.5 23.5001 3.5C32.7317 3.5 37.3476 3.5 40.2154 6.06282C43.0834 8.62563 43.0834 12.7504 43.0834 21C43.0834 29.2495 43.0834 33.3744 40.2154 35.9371C37.3476 38.5 32.7317 38.5 23.5001 38.5C14.2684 38.5 9.65257 38.5 6.78467 35.9371C3.91675 33.3744 3.91675 29.2495 3.91675 21Z" fill="white"/>
<path fill-rule="evenodd" clip-rule="evenodd" d="M23.5 12.6875C24.3111 12.6875 24.9688 13.2751 24.9688 14V20.4563L29.4343 24.447C30.0079 24.9595 30.0079 25.7904 29.4343 26.303C28.8607 26.8156 27.9309 26.8156 27.3573 26.303L22.4615 21.928C22.186 21.682 22.0312 21.3481 22.0312 21V14C22.0312 13.2751 22.6889 12.6875 23.5 12.6875Z" fill="#FBDF32"/>
</svg>
