<svg width="19" height="19" viewBox="0 0 19 19" fill="none" xmlns="http://www.w3.org/2000/svg">
<circle cx="9.375" cy="9.375" r="9.375" fill="white"/>
<path d="M7.70693 5.51272C8.4491 4.18133 8.82018 3.51562 9.375 3.51562C9.92982 3.51562 10.3009 4.18132 11.043 5.51272L11.2351 5.85717C11.446 6.23551 11.5514 6.42468 11.7159 6.5495C11.8803 6.67431 12.085 6.72064 12.4946 6.81331L12.8675 6.89767C14.3087 7.22377 15.0293 7.38681 15.2007 7.93812C15.3722 8.48941 14.8809 9.06393 13.8984 10.2128L13.6442 10.5101C13.365 10.8366 13.2254 10.9998 13.1626 11.2018C13.0998 11.4037 13.1209 11.6215 13.1631 12.0572L13.2015 12.4538C13.3501 13.9867 13.4244 14.7531 12.9755 15.0939C12.5266 15.4346 11.8519 15.1239 10.5025 14.5027L10.1534 14.3419C9.76998 14.1653 9.57826 14.077 9.375 14.077C9.17174 14.077 8.98002 14.1653 8.59658 14.3419L8.24748 14.5027C6.89806 15.1239 6.22335 15.4346 5.7745 15.0939C5.32566 14.7531 5.39993 13.9867 5.54848 12.4538L5.5869 12.0572C5.62912 11.6215 5.65023 11.4037 5.58742 11.2018C5.52462 10.9998 5.38502 10.8366 5.10581 10.5101L4.85162 10.2128C3.86909 9.06393 3.37783 8.48941 3.54927 7.93812C3.72072 7.38681 4.44133 7.22377 5.88254 6.89767L6.25541 6.81331C6.66495 6.72064 6.86973 6.67431 7.03415 6.5495C7.19857 6.42468 7.30402 6.23551 7.51492 5.85717L7.70693 5.51272Z" stroke="#050505" stroke-width="0.878906"/>
</svg>
