<svg width="28" height="28" viewBox="0 0 28 28" fill="none" xmlns="http://www.w3.org/2000/svg">
<g clip-path="url(#clip0_2514_3744)">
<path d="M23.8301 6.24826L23.3273 1.05575C23.2347 0.0990017 22.0896 -0.341493 21.3797 0.306574L17.5264 3.82386C17.4076 3.93226 17.3126 4.06413 17.2471 4.21104L17.0486 4.65695L15.0434 0.646472C14.6135 -0.213383 13.3865 -0.213383 12.9565 0.646472L10.9513 4.65695L10.7528 4.21104C10.6874 4.06413 10.5923 3.93232 10.4735 3.82386L6.62023 0.306574C5.9103 -0.341493 4.76523 0.0990017 4.67255 1.05575L4.16974 6.24826C4.15031 6.44894 4.18318 6.65116 4.26521 6.83532L5.89777 10.5009H5.83368C5.18937 10.5009 4.66708 11.0232 4.66708 11.6675V23.1037C4.66708 25.8082 6.85879 27.9999 9.56333 27.9999H18.4365C21.141 27.9999 23.3327 25.8082 23.3327 23.1037V11.6676C23.3327 11.0233 22.8105 10.501 22.1661 10.501H22.1021L23.7346 6.83538C23.8166 6.65122 23.8495 6.44894 23.8301 6.24826ZM12.8333 6.10995L13.9999 3.77675L15.1665 6.10995V9.13252V10.5009H12.8333V9.13252V6.10995ZM6.52174 6.16703L6.77009 3.60239L8.72045 5.38265L10.5001 9.38042V10.5009H8.45198L6.52174 6.16703ZM22.0664 23.1037C22.0664 24.5196 19.9159 26.5 18.5 26.5H9.5C8.08407 26.5 6 24.5197 6 23.1038V12H8H11.5H16.5H20H22L22.0664 23.1037ZM17.4997 10.501V9.38054L19.2794 5.38277L21.2298 3.6025L21.4781 6.16715L19.5479 10.5011L17.4997 10.501Z" fill="#808080"/>
</g>
<defs>
<clipPath id="clip0_2514_3744">
<rect width="28" height="28" fill="#808080"/>
</clipPath>
</defs>
</svg>
