<svg width="28" height="28" viewBox="0 0 28 28" fill="none" xmlns="http://www.w3.org/2000/svg">
<g clip-path="url(#clip0_2449_849)">
<path d="M21.1479 26.4444C20.8041 26.444 20.4683 26.3411 20.1834 26.1488L14.3812 22.2599C14.3526 22.2402 14.3187 22.2296 14.284 22.2296C14.2492 22.2296 14.2153 22.2402 14.1867 22.2599L8.38452 26.1488C8.09316 26.3433 7.74951 26.4447 7.39921 26.4393C7.04891 26.4339 6.70853 26.3221 6.42328 26.1187C6.13802 25.9153 5.92139 25.63 5.80214 25.3005C5.68289 24.9711 5.66667 24.6132 5.75563 24.2744L7.66119 17.5544C7.6702 17.5206 7.66911 17.4849 7.65805 17.4517C7.64699 17.4185 7.62645 17.3893 7.59897 17.3677L2.10786 13.051C1.81879 12.8357 1.60436 12.5353 1.49464 12.1919C1.38493 11.8485 1.38543 11.4794 1.49606 11.1364C1.6067 10.7933 1.82194 10.4935 2.11158 10.2789C2.40123 10.0643 2.75077 9.9458 3.11119 9.93991L10.1112 9.67547C10.1456 9.67309 10.1786 9.66082 10.2062 9.64012C10.2338 9.61942 10.2548 9.59118 10.2667 9.5588L12.6779 3.00214C12.7994 2.66975 13.0201 2.38273 13.3102 2.17995C13.6002 1.97716 13.9456 1.86841 14.2995 1.86841C14.6534 1.86841 14.9988 1.97716 15.2889 2.17995C15.5789 2.38273 15.7997 2.66975 15.9212 3.00214L18.3323 9.5588C18.3442 9.59118 18.3652 9.61942 18.3928 9.64012C18.4204 9.66082 18.4534 9.67309 18.4879 9.67547L25.4879 9.93991C25.8483 9.9458 26.1978 10.0643 26.4875 10.2789C26.7771 10.4935 26.9923 10.7933 27.103 11.1364C27.2136 11.4794 27.2141 11.8485 27.1044 12.1919C26.9947 12.5353 26.7803 12.8357 26.4912 13.051L21.0001 17.3677C20.9718 17.3886 20.9506 17.4178 20.9395 17.4512C20.9283 17.4846 20.9278 17.5206 20.9379 17.5544L22.8434 24.2744C22.9103 24.5321 22.9169 24.8018 22.8628 25.0625C22.8087 25.3233 22.6952 25.5681 22.5313 25.7779C22.3673 25.9877 22.1572 26.157 21.9173 26.2726C21.6774 26.3881 21.4141 26.4469 21.1479 26.4444ZM14.2879 20.6732C14.6323 20.6838 14.9656 20.7976 15.2445 20.9999L21.0467 24.8888C21.0761 24.9112 21.112 24.9234 21.1489 24.9237C21.1859 24.924 21.2219 24.9123 21.2516 24.8904C21.2814 24.8685 21.3033 24.8376 21.314 24.8023C21.3247 24.767 21.3238 24.7291 21.3112 24.6944L19.4056 17.9744C19.3119 17.6447 19.3188 17.2946 19.4255 16.9689C19.5322 16.6432 19.7339 16.3568 20.0045 16.1466L25.4956 11.8299C25.5256 11.8089 25.548 11.7788 25.5596 11.7441C25.5712 11.7093 25.5713 11.6718 25.56 11.637C25.5487 11.6022 25.5265 11.5719 25.4967 11.5506C25.4669 11.5294 25.4311 11.5182 25.3945 11.5188L18.3945 11.2544C18.0518 11.241 17.7208 11.1259 17.4437 10.9236C17.1667 10.7214 16.9561 10.4412 16.839 10.1188L14.4279 3.56214C14.417 3.52732 14.3953 3.49689 14.3659 3.47529C14.3365 3.45368 14.301 3.44203 14.2645 3.44203C14.2281 3.44203 14.1925 3.45368 14.1632 3.47529C14.1338 3.49689 14.1121 3.52732 14.1012 3.56214L11.7134 10.111C11.5962 10.4334 11.3857 10.7136 11.1087 10.9158C10.8316 11.1181 10.5006 11.2332 10.1579 11.2466L3.15786 11.511C3.12126 11.5104 3.08543 11.5216 3.05564 11.5429C3.02586 11.5641 3.00368 11.5944 2.99236 11.6292C2.98105 11.664 2.9812 11.7016 2.99279 11.7363C3.00437 11.771 3.02679 11.8011 3.05675 11.8221L8.55563 16.1466C8.82548 16.3575 9.0265 16.6439 9.13314 16.9694C9.23978 17.2948 9.24723 17.6447 9.15452 17.9744L7.25674 24.6944C7.24542 24.728 7.24537 24.7644 7.25659 24.7981C7.26782 24.8318 7.28972 24.8609 7.31897 24.881C7.34714 24.9051 7.383 24.9184 7.42008 24.9184C7.45716 24.9184 7.49301 24.9051 7.52119 24.881L13.3234 20.9921C13.607 20.804 13.9398 20.7039 14.2801 20.7044L14.2879 20.6732Z" fill="#808080"/>
</g>
<defs>
<clipPath id="clip0_2449_849">
<rect width="28" height="28" fill="white"/>
</clipPath>
</defs>
</svg>
