<svg width="47" height="42" viewBox="0 0 47 42" fill="none" xmlns="http://www.w3.org/2000/svg">
<path d="M9.27637 28.1842C9.27637 28.1842 17.9343 35.9211 22.8816 27.6316L18.5527 23.7632C18.5527 23.7632 14.2237 27.0789 9.27637 28.1842ZM19.9972 21.7423C19.5141 22.1739 19.5141 23.4264 19.9972 23.858L22.9301 26.4789C23.4132 26.9106 24.8147 26.9106 25.2977 26.4789L32.4224 20.1121C32.9054 19.6805 32.9054 18.9807 32.4224 18.5491L28.871 15.3755C28.3881 14.9439 27.6049 14.9439 27.1219 15.3755L19.9972 21.7423ZM29.2652 13.4528C28.7822 13.8844 28.7822 14.5843 29.2652 15.0159L32.8166 18.1894C33.2996 18.6211 34.0827 18.6211 34.5657 18.1894L42.2468 11.3255C41.0018 9.40308 39.3971 7.68992 37.515 6.25949C37.3296 6.31094 37.1551 6.40229 37.0084 6.53343L29.2652 13.4528Z" fill="white"/>
</svg>
