<svg width="158" height="158" viewBox="0 0 158 158" fill="none" xmlns="http://www.w3.org/2000/svg">
<g clip-path="url(#clip0_2611_640)">
<path d="M78.9998 108.239L154.171 155.574C156.503 153.646 157.965 150.753 157.965 147.488V58.4773L78.9998 108.239Z" fill="#86DDFF"/>
<path d="M0.00405884 58.4773V147.488C0.00405884 150.753 1.4969 153.646 3.82946 155.574C5.66441 157.067 7.99697 158 10.5472 158H147.453C150.003 158 152.336 157.098 154.171 155.574L0.00405884 58.4773Z" fill="#54C0EB"/>
<path d="M82.888 1.28291C80.5555 -0.427636 77.4143 -0.427636 75.0817 1.28291L0.00430298 58.4773L15.4925 68.243L23.1122 73.0636L79.0004 108.239L134.889 73.0325L142.508 68.243L157.997 58.4773L82.888 1.28291Z" fill="#40596B"/>
<path d="M115.388 10.5198H22.0857C18.4469 10.5198 15.4923 13.4433 15.4923 17.0821V68.2429L23.112 73.0636L79.0002 108.239L134.888 73.0325L142.508 68.2429V37.5153L115.388 10.5198Z" fill="#F2F2F2"/>
<path d="M115.388 10.5198V30.9841C115.388 34.5918 118.343 37.5464 121.982 37.5464H142.508L115.388 10.5198Z" fill="#CDD6E0"/>
<path d="M96.634 31.2019H42.6119V37.5154H96.634V31.2019Z" fill="#CDD6E0"/>
<path d="M115.388 50.1113H42.6119V56.4248H115.388V50.1113Z" fill="#CDD6E0"/>
<path d="M115.388 69.0205H42.6119V75.334H115.388V69.0205Z" fill="#CDD6E0"/>
</g>
<defs>
<clipPath id="clip0_2611_640">
<rect width="158" height="158" fill="white"/>
</clipPath>
</defs>
</svg>
