<svg width="18" height="18" viewBox="0 0 18 18" fill="none" xmlns="http://www.w3.org/2000/svg">
<path fill-rule="evenodd" clip-rule="evenodd" d="M2.91401 3.92782C2.40403 4.40136 2.0625 5.16971 2.0625 6.375V11.625C2.0625 12.8302 2.40403 13.5986 2.91401 14.0722C3.43151 14.5527 4.21123 14.8125 5.25 14.8125H12.75C13.7887 14.8125 14.5684 14.5527 15.086 14.0722C15.596 13.5986 15.9375 12.8302 15.9375 11.625V6.375C15.9375 5.16971 15.596 4.40136 15.086 3.92782C14.5684 3.44728 13.7887 3.1875 12.75 3.1875H5.25C4.21123 3.1875 3.43151 3.44728 2.91401 3.92782ZM2.14849 3.10342C2.94349 2.36522 4.03877 2.0625 5.25 2.0625H12.75C13.9613 2.0625 15.0566 2.36522 15.8515 3.10342C16.654 3.84864 17.0625 4.95529 17.0625 6.375V11.625C17.0625 13.0447 16.654 14.1514 15.8515 14.8966C15.0566 15.6348 13.9613 15.9375 12.75 15.9375H5.25C4.03877 15.9375 2.94349 15.6348 2.14849 14.8966C1.34597 14.1514 0.9375 13.0447 0.9375 11.625V6.375C0.9375 4.95529 1.34597 3.84864 2.14849 3.10342Z" fill="#50C4ED"/>
<path fill-rule="evenodd" clip-rule="evenodd" d="M14.5225 5.48269C14.7125 5.72851 14.6672 6.08178 14.4214 6.27172L10.2611 9.48645C9.51825 10.0603 8.48168 10.0603 7.73888 9.48645L3.57858 6.27172C3.33275 6.08178 3.28746 5.72851 3.47741 5.48269C3.66737 5.23687 4.02062 5.19157 4.26645 5.38153L8.4267 8.5962C8.76435 8.85712 9.23558 8.85712 9.57315 8.5962L13.7335 5.38153C13.9793 5.19157 14.3326 5.23687 14.5225 5.48269Z" fill="#50C4ED"/>
</svg>
