<svg width="40" height="40" viewBox="0 0 40 40" fill="none" xmlns="http://www.w3.org/2000/svg">
<rect width="40" height="40" rx="20" fill="#50C4ED"/>
<g clip-path="url(#clip0_2466_700)">
<path d="M31.995 8.90131C31.9936 8.8865 31.9908 8.87216 31.9887 8.85758C31.9862 8.83991 31.9841 8.82219 31.9806 8.80461C31.9773 8.78783 31.9727 8.77156 31.9685 8.75511C31.9647 8.73997 31.9614 8.72473 31.9569 8.70973C31.952 8.69356 31.9459 8.67795 31.9402 8.66216C31.9348 8.6472 31.9299 8.63211 31.9238 8.61734C31.9177 8.60258 31.9105 8.58847 31.9037 8.57408C31.8966 8.55889 31.8898 8.54356 31.8819 8.52866C31.8744 8.51487 31.8661 8.50175 31.858 8.48834C31.8493 8.47377 31.8411 8.459 31.8316 8.44475C31.8217 8.42994 31.8106 8.41602 31.8 8.40177C31.7911 8.38991 31.7828 8.37772 31.7733 8.36614C31.7526 8.34087 31.7307 8.31655 31.7076 8.29344C31.7074 8.29325 31.7073 8.29306 31.7071 8.29287C31.7069 8.29269 31.7067 8.29259 31.7066 8.29241C31.6834 8.2693 31.6592 8.24741 31.6338 8.22664C31.6223 8.21712 31.6101 8.20887 31.5982 8.19997C31.584 8.18933 31.57 8.17831 31.5552 8.16842C31.541 8.15891 31.5262 8.15066 31.5116 8.14194C31.4982 8.13392 31.4851 8.12553 31.4713 8.11812C31.4564 8.11016 31.4411 8.10341 31.4259 8.09623C31.4115 8.08944 31.3974 8.08227 31.3826 8.07612C31.3679 8.07003 31.3528 8.06506 31.3378 8.05972C31.322 8.05405 31.3064 8.048 31.2903 8.04312C31.2753 8.03858 31.26 8.03525 31.2449 8.03145C31.2284 8.02728 31.2122 8.02269 31.1954 8.01936C31.1778 8.01589 31.1601 8.01378 31.1424 8.01125C31.1279 8.00919 31.1135 8.00637 31.0987 8.00492C31.0659 8.00173 31.0329 8 31 8H24C23.4477 8 23 8.4477 23 8.99998C23 9.55227 23.4477 9.99997 24 9.99997H28.5857L21.2929 17.2929C20.9024 17.6834 20.9024 18.3166 21.2929 18.7071C21.6834 19.0976 22.3166 19.0976 22.7071 18.7071L30 11.4142V16C30 16.5523 30.4477 17 30.9999 17C31.5522 17 32 16.5523 32 16V9.00008C32 8.96708 31.9982 8.93413 31.995 8.90131Z" fill="white"/>
<path d="M17.2929 21.2929L10 28.5858V24C10 23.4477 9.55231 23 9.00003 23C8.4477 23 8 23.4477 8 24V31C8 31.0329 8.00173 31.0659 8.00497 31.0987C8.00642 31.1134 8.00919 31.1278 8.0113 31.1424C8.01383 31.1601 8.01589 31.1778 8.01941 31.1954C8.02273 31.2122 8.02733 31.2284 8.0315 31.2448C8.0353 31.26 8.03863 31.2752 8.04317 31.2902C8.04805 31.3064 8.05409 31.322 8.05977 31.3377C8.06516 31.3527 8.07008 31.3678 8.07617 31.3826C8.08227 31.3974 8.08948 31.4115 8.09628 31.4259C8.10345 31.441 8.1102 31.4564 8.11817 31.4713C8.12558 31.4851 8.13397 31.4981 8.14198 31.5115C8.1507 31.5261 8.15895 31.5409 8.16847 31.5552C8.17836 31.57 8.18938 31.5839 8.20002 31.5981C8.20892 31.61 8.21717 31.6222 8.22669 31.6338C8.24745 31.6591 8.26934 31.6834 8.29245 31.7065C8.29264 31.7067 8.29273 31.7069 8.29292 31.7071C8.29311 31.7072 8.2933 31.7074 8.29348 31.7076C8.31659 31.7306 8.34092 31.7525 8.36619 31.7733C8.37777 31.7828 8.38995 31.7911 8.40181 31.7999C8.41606 31.8106 8.42998 31.8216 8.4448 31.8315C8.459 31.841 8.47377 31.8493 8.48839 31.858C8.5018 31.866 8.51487 31.8744 8.5287 31.8818C8.54361 31.8898 8.55894 31.8965 8.57412 31.9037C8.58852 31.9105 8.60267 31.9177 8.61739 31.9238C8.63216 31.9299 8.6472 31.9348 8.6622 31.9402C8.678 31.9458 8.69361 31.9519 8.70978 31.9568C8.72478 31.9614 8.74002 31.9647 8.75516 31.9685C8.77161 31.9727 8.78787 31.9772 8.80466 31.9806C8.82223 31.984 8.83995 31.9861 8.85763 31.9886C8.8722 31.9907 8.88659 31.9935 8.90136 31.995C8.93417 31.9982 8.96708 31.9999 8.99998 31.9999H16C16.5523 31.9999 17 31.5522 17 30.9999C17 30.4477 16.5523 30 16 30H11.4142L18.7071 22.7071C19.0977 22.3165 19.0977 21.6834 18.7071 21.2928C18.3166 20.9023 17.6834 20.9024 17.2929 21.2929Z" fill="white"/>
</g>
<defs>
<clipPath id="clip0_2466_700">
<rect width="24" height="24" fill="white" transform="translate(8 8)"/>
</clipPath>
</defs>
</svg>
