<svg width="205" height="210" viewBox="0 0 205 210" fill="none" xmlns="http://www.w3.org/2000/svg">
<path d="M65.5289 0.0284534C71.7045 -0.00792982 77.815 0.0284534 84.2141 0.0284534C88.8062 0.0284534 93.0817 0.0284534 97.3571 0.0284534C97.7335 0.0284534 98.0592 0.0284534 98.6239 0.0283843C99.099 0.0283843 99.3151 0.028265 99.574 0.0284534C108.649 0.035132 117.736 0.0423613 126.81 0.0284534C127.213 0.0278349 127.444 0.0283843 127.919 0.0283843C138.528 -0.00787835 149.572 -0.0463506 160.38 0.166751C165.909 0.275756 170.226 3.26593 173.587 7.57065C175.898 10.5292 176.943 14.0459 176.998 17.6425C177.067 22.2364 175.587 26.472 172.395 29.9957C169.869 32.7845 166.905 34.8324 163.219 35.6455C161.567 36.01 159.839 36.1881 158.146 36.1897C121.007 36.2242 83.8683 36.2282 46.7295 36.22C41.3672 36.2188 36.5869 34.491 32.9156 30.5517C30.3339 27.7817 28.5681 24.5199 28.1586 20.5302C27.8027 17.0614 27.9673 13.8046 29.4689 10.6373C31.062 7.27728 33.4223 4.6391 36.5392 2.60214C40.5394 -0.0120793 44.9434 0.0283066 49.6939 0.0284534C54.9194 -0.00788794 59.8283 0.0282298 64.8955 0.0284534C65.0868 0.0291977 65.3705 0.0284534 65.5289 0.0284534ZM106.096 19.3674C106.94 19.3524 107.783 19.3127 108.626 19.3289C109.551 19.3467 110.271 19.2863 110.274 18.0237C110.276 16.7939 109.537 16.8367 108.714 16.842C107.807 16.8479 106.901 16.8434 105.994 16.8434C105.961 16.6833 105.929 16.5232 105.896 16.3631C106.694 15.621 107.494 14.8807 108.291 14.1362C109.016 13.4581 108.59 12.9518 108.063 12.4187C107.551 11.901 107.113 11.6614 106.474 12.2864C105.665 13.0785 104.772 13.7859 103.808 14.623C103.808 13.348 103.802 12.3125 103.81 11.2771C103.817 10.3681 103.436 9.94557 102.471 9.96427C101.541 9.98228 101.111 10.3151 101.152 11.277C101.195 12.3058 101.161 13.3378 101.161 14.819C99.7102 13.4975 98.6113 12.4967 97.4359 11.4263C96.8625 12.1081 96.4037 12.6536 95.8929 13.2609C96.9292 14.3779 97.8629 15.3843 99.0816 16.6979C97.8543 16.7743 97.0812 16.8521 96.3073 16.8629C95.3952 16.8757 94.4832 16.7206 94.4982 18.1441C94.514 19.6437 95.5481 19.2926 96.3845 19.3203C97.2465 19.3488 98.1102 19.3266 99.3487 19.3266C98.037 20.5489 96.9873 21.5271 95.9625 22.4821C97.4645 24.6515 97.4801 24.6518 99.1459 22.9893C99.6834 22.4528 100.232 21.9276 101.143 21.0396C101.143 22.5876 101.174 23.6215 101.133 24.6526C101.097 25.5734 101.549 25.8211 102.389 25.8268C103.268 25.8328 103.639 25.4893 103.611 24.6106C103.578 23.5285 103.603 22.4445 103.603 21.0225C104.969 22.2687 106.075 23.2784 107.156 24.2653C109.01 22.9703 109.026 22.7957 107.644 21.388C107.02 20.7522 106.434 20.0788 105.819 19.4312C105.819 19.4312 105.809 19.4424 106.096 19.3674ZM118.803 19.4273C118.803 19.4273 118.807 19.43 118.75 19.6361C117.815 20.6091 116.88 21.582 115.931 22.5697C116.513 23.2665 116.973 23.8177 117.517 24.4693C118.745 23.3082 119.748 22.3592 121.074 21.1053C121.074 22.6337 121.108 23.72 121.064 24.8033C121.024 25.8013 121.714 26.0279 122.391 25.8923C122.833 25.8039 123.45 25.2612 123.511 24.8507C123.67 23.7887 123.564 22.6872 123.564 21.2946C124.965 22.4596 126.101 23.4046 127.21 24.3277C128.931 22.6874 128.927 22.6744 127.457 21.242C126.926 20.7237 126.423 20.1754 125.665 19.3893C127.089 19.3893 128.088 19.3542 129.083 19.3996C130.008 19.4418 130.282 18.9961 130.25 18.152C130.22 17.3739 130.247 16.6412 129.13 16.68C128.01 16.719 126.888 16.6886 125.766 16.6886C125.654 16.4807 125.541 16.2728 125.428 16.0649C126.549 15.227 127.67 14.3891 128.8 13.545C128.101 12.658 127.662 12.1005 127.131 11.4276C125.933 12.5412 124.887 13.5124 123.589 14.7178C123.589 13.278 123.563 12.2321 123.597 11.1883C123.627 10.2968 123.232 9.97602 122.362 9.99444C121.546 10.0117 121.045 10.2263 121.073 11.1573C121.105 12.2296 121.08 13.3035 121.08 14.7377C119.567 13.4661 118.427 12.5087 117.301 11.5626C115.714 13.2547 115.724 13.2452 117.207 14.7724C117.691 15.27 118.108 15.8314 118.822 16.6805C117.462 16.7666 116.532 16.8902 115.605 16.8659C114.674 16.8415 114.435 17.2593 114.439 18.1051C114.443 18.9705 114.759 19.3596 115.646 19.3468C116.697 19.3317 117.749 19.3942 118.803 19.4273ZM135.158 16.6777C133.579 17.2198 134.54 18.3034 134.492 19.2268C136.008 19.2268 137.397 19.2268 138.786 19.2268C138.93 19.4 139.075 19.5733 139.22 19.7466C137.964 20.5943 136.709 21.442 135.54 22.231C137.325 24.6002 137.544 24.606 138.992 22.9856C139.517 22.3975 140.104 21.8636 140.662 21.305C141.031 22.6797 140.902 23.8489 141.099 24.9602C141.171 25.3658 141.988 25.7914 142.526 25.8963C142.786 25.9469 143.432 25.3047 143.476 24.9258C143.607 23.822 143.523 22.6929 143.523 21.3818C144.878 22.4974 145.982 23.4069 147.057 24.2919C148.75 22.6164 148.746 22.6206 147.297 21.1628C146.812 20.674 146.354 20.1575 145.628 19.3807C146.866 19.3807 147.652 19.3478 148.434 19.3888C149.487 19.4439 150.249 19.3782 150.246 17.9423C150.242 16.543 149.468 16.587 148.513 16.6215C147.651 16.6526 146.788 16.628 145.925 16.628C145.817 16.4449 145.709 16.2618 145.601 16.0787C146.145 15.688 146.737 15.3491 147.225 14.8971C148.858 13.3817 148.833 13.1815 146.891 11.561C145.869 12.5254 144.828 13.5089 143.523 14.7407C143.523 13.2911 143.485 12.2026 143.535 11.1183C143.578 10.184 143.124 9.94968 142.288 9.95674C141.503 9.96337 140.944 10.0679 140.986 11.0537C141.032 12.121 140.997 13.1918 140.997 14.7256C139.47 13.4704 138.393 12.5851 137.348 11.7265C135.519 13.1228 135.521 13.1622 136.974 14.6414C137.57 15.2482 138.132 15.8878 138.71 16.5125C138.646 16.6252 138.583 16.738 138.52 16.8508C137.488 16.7948 136.457 16.7389 135.158 16.6777ZM77.8213 20.7197C77.1463 21.2144 76.4713 21.7091 75.7603 22.2303C76.6158 23.2167 77.1142 23.7915 77.6826 24.447C78.8029 23.3969 79.8394 22.4253 81.1671 21.1809C81.1671 22.6266 81.1952 23.6225 81.1588 24.6161C81.1255 25.524 81.5603 25.7903 82.4083 25.7988C83.2829 25.8075 83.668 25.4889 83.6383 24.6022C83.6042 23.5832 83.6304 22.5623 83.6304 21.0985C85.0898 22.3841 86.1762 23.3411 87.2425 24.2804C89.0264 23.0756 89.0561 22.805 87.711 21.4172C87.1797 20.869 86.695 20.2756 86.135 19.6414C86.4521 19.4865 86.5787 19.3825 86.7168 19.3643C87.3429 19.2813 87.9708 19.201 88.6006 19.159C90.4166 19.0381 90.4811 18.9535 90.0319 16.9644C88.7033 16.8909 87.3429 16.8156 85.5674 16.7172C86.6633 15.7517 87.3814 15.0701 88.1515 14.4534C89.0423 13.74 88.8744 13.1465 88.1738 12.3737C87.4368 11.5608 86.9501 11.9075 86.3521 12.4794C85.5901 13.2084 84.7854 13.8928 83.7737 14.7981C83.7737 13.4688 83.7046 12.5246 83.7935 11.5956C83.8787 10.7057 83.9084 10.026 82.7236 9.96727C81.5634 9.90981 81.0789 10.3616 81.1528 11.5296C81.213 12.4835 81.165 13.4441 81.165 14.7449C79.7984 13.4693 78.775 12.514 77.6275 11.443C77.0402 12.1905 76.5729 12.7851 76.0625 13.4347C77.1123 14.5375 78.0689 15.5423 79.3613 16.8997C77.8444 16.8997 76.8064 16.9483 75.7752 16.8859C74.7804 16.8257 74.5033 17.2649 74.5071 18.1918C74.5107 19.0812 74.8356 19.4274 75.7206 19.3834C76.6953 19.3349 77.6743 19.3723 78.9827 19.3723C78.4905 19.96 78.2378 20.2617 77.8213 20.7197ZM66.4908 16.0336C67.0993 15.5298 67.7213 15.0413 68.3126 14.5181C68.9448 13.9587 69.1351 13.4165 68.4656 12.6511C67.7823 11.8698 67.2532 12.0282 66.612 12.6038C65.8485 13.2891 65.0697 13.9573 64.0059 14.8882C64.0059 13.3443 63.9538 12.2097 64.0216 11.0824C64.0805 10.1042 63.567 9.94118 62.7689 9.93083C61.9789 9.92058 61.4245 10.0609 61.456 11.0327C61.4927 12.162 61.4646 13.2935 61.4646 14.8067C60.4459 13.8353 59.763 13.1257 59.016 12.4916C58.4885 12.0439 57.9589 11.3475 57.1603 12.2095C56.467 12.9579 56.3532 13.5768 57.1794 14.3281C57.9724 15.0493 58.6616 15.8845 59.52 16.8015C58.4965 16.8015 57.6219 16.8157 56.7479 16.7987C54.5562 16.7561 54.3892 16.9837 55.0618 19.2675C56.3005 19.3221 57.5682 19.3781 59.2001 19.4501C58.0649 20.7095 57.2065 21.6618 56.3357 22.6278C56.8895 23.2446 57.3349 23.7407 57.8643 24.3303C59.006 23.3042 60.0685 22.3493 61.426 21.1294C61.426 22.6426 61.4479 23.7328 61.419 24.8217C61.396 25.6923 61.7516 26.0504 62.6421 26.0207C63.5063 25.9918 64.0634 25.7973 64.0147 24.7714C63.9643 23.7099 64.0035 22.6442 64.0035 21.2085C65.4016 22.4862 66.4682 23.4609 67.6478 24.5389C68.2041 23.7876 68.6546 23.1793 69.0914 22.5894C68.116 21.5339 67.2627 20.6105 66.1038 19.3564C67.3131 19.2575 67.9767 19.1734 68.6421 19.1545C70.4791 19.1024 70.6598 18.8759 70.2518 16.8342C69.133 16.8342 67.9799 16.8621 66.831 16.805C66.6527 16.7961 66.4936 16.3982 66.4908 16.0336Z" fill="#FF9C13"/>
<path d="M45.2019 196.946C45.2019 203.482 49.3413 209.582 55.2236 209.582H102.5V185.399H91.8247C89.8639 185.399 88.9925 184.746 89.2103 182.785L93.5676 161.434C78.535 150.105 89.6461 132.241 102.5 132.241V107.622H71.9404C69.3847 65.7921 90.5175 60.1277 102.5 59.2562V44.2236C73.5242 44.2236 51.7378 66.6636 56.0951 107.622C49.491 107.921 45.2019 113.286 45.2019 117.577V196.946Z" fill="#79DCFF"/>
<path d="M159.798 196.946C159.798 203.482 155.659 209.582 149.776 209.582H102.5V185.399H113.175C115.136 185.399 116.008 184.745 115.79 182.785L111.432 161.434C126.465 150.105 115.354 132.24 102.5 132.24V107.622H133.06C135.615 65.7918 114.483 59.692 102.5 59.2562V44.2239C131.476 44.2238 153.262 66.6633 148.905 107.622C155.509 107.921 159.798 113.286 159.798 117.576V196.946Z" fill="#50C4ED"/>
<rect x="53.045" y="127.012" width="5.66445" height="64.0519" rx="2.83223" fill="#A6E8FF"/>
<path d="M71.895 71.8653C73.8557 64.3592 85.8382 55.6446 95.86 55.3076" stroke="#A6E8FF" stroke-width="3.92154" stroke-linecap="round"/>
</svg>
