<svg width="40" height="40" viewBox="0 0 40 40" fill="none" xmlns="http://www.w3.org/2000/svg">
<rect width="40" height="40" rx="20" fill="#50C4ED"/>
<path d="M21 11L21.7071 10.2929C21.5196 10.1054 21.2652 10 21 10V11ZM27 17H28C28 16.7348 27.8946 16.4804 27.7071 16.2929L27 17ZM19.2602 22.7929C18.8697 23.1834 18.8697 23.8166 19.2602 24.2071C19.6507 24.5976 20.2839 24.5976 20.6744 24.2071L19.2602 22.7929ZM17.0618 20.2507C16.9242 20.7856 17.2462 21.3308 17.781 21.4684C18.3159 21.6061 18.861 21.2841 18.9987 20.7493L17.0618 20.2507ZM19.9668 25C19.4145 25 18.9668 25.4477 18.9668 26C18.9668 26.5523 19.4145 27 19.9668 27V25ZM19.9768 27C20.5291 27 20.9768 26.5523 20.9768 26C20.9768 25.4477 20.5291 25 19.9768 25V27ZM21 10H16.2V12H21V10ZM12 14.2V25.8H14V14.2H12ZM16.2 30H23.8V28H16.2V30ZM28 25.8V17H26V25.8H28ZM27.7071 16.2929L21.7071 10.2929L20.2929 11.7071L26.2929 17.7071L27.7071 16.2929ZM23.8 30C24.3436 30 24.8114 30.0008 25.195 29.9694C25.5904 29.9371 25.9836 29.8658 26.362 29.673L25.454 27.891C25.4045 27.9162 25.3038 27.9539 25.0322 27.9761C24.7488 27.9992 24.3766 28 23.8 28V30ZM26 25.8C26 26.3766 25.9992 26.7488 25.9761 27.0322C25.9539 27.3038 25.9162 27.4045 25.891 27.454L27.673 28.362C27.8658 27.9836 27.9371 27.5904 27.9694 27.195C28.0008 26.8114 28 26.3436 28 25.8H26ZM26.362 29.673C26.9265 29.3854 27.3854 28.9265 27.673 28.362L25.891 27.454C25.7951 27.6422 25.6422 27.7951 25.454 27.891L26.362 29.673ZM12 25.8C12 26.3436 11.9992 26.8114 12.0306 27.195C12.0629 27.5904 12.1342 27.9836 12.327 28.362L14.109 27.454C14.0838 27.4045 14.0461 27.3038 14.0239 27.0322C14.0008 26.7488 14 26.3766 14 25.8H12ZM16.2 28C15.6235 28 15.2512 27.9992 14.9678 27.9761C14.6962 27.9539 14.5955 27.9162 14.546 27.891L13.638 29.673C14.0164 29.8658 14.4096 29.9371 14.805 29.9694C15.1886 30.0008 15.6565 30 16.2 30V28ZM12.327 28.362C12.6146 28.9265 13.0735 29.3854 13.638 29.673L14.546 27.891C14.3579 27.7951 14.2049 27.6422 14.109 27.454L12.327 28.362ZM16.2 10C15.6565 10 15.1886 9.99922 14.805 10.0306C14.4096 10.0629 14.0164 10.1342 13.638 10.327L14.546 12.109C14.5955 12.0838 14.6962 12.0461 14.9678 12.0239C15.2512 12.0008 15.6235 12 16.2 12V10ZM14 14.2C14 13.6235 14.0008 13.2512 14.0239 12.9678C14.0461 12.6962 14.0838 12.5955 14.109 12.546L12.327 11.638C12.1342 12.0164 12.0629 12.4096 12.0306 12.805C11.9992 13.1886 12 13.6565 12 14.2H14ZM13.638 10.327C13.0735 10.6146 12.6146 11.0735 12.327 11.638L14.109 12.546C14.2049 12.3579 14.3579 12.2049 14.546 12.109L13.638 10.327ZM20 11V15.4H22V11H20ZM22.6 18H27V16H22.6V18ZM20 15.4C20 15.6635 19.9992 15.9213 20.0169 16.1382C20.0356 16.3668 20.0797 16.6366 20.218 16.908L22 16C22.0293 16.0575 22.0189 16.0803 22.0103 15.9754C22.0008 15.8588 22 15.6965 22 15.4H20ZM22.6 16C22.3035 16 22.1412 15.9992 22.0246 15.9897C21.9197 15.9811 21.9425 15.9707 22 16L21.092 17.782C21.3634 17.9203 21.6332 17.9644 21.8618 17.9831C22.0787 18.0008 22.3365 18 22.6 18V16ZM20.218 16.908C20.4097 17.2843 20.7157 17.5903 21.092 17.782L22 16L20.218 16.908ZM20.9673 21C20.9673 21.1732 20.9218 21.3053 20.6478 21.5697C20.4941 21.718 20.3131 21.8653 20.0622 22.074C19.8238 22.2723 19.5443 22.5087 19.2602 22.7929L20.6744 24.2071C20.8902 23.9913 21.1107 23.8033 21.3412 23.6116C21.5589 23.4305 21.8154 23.2223 22.0367 23.0087C22.5128 22.5493 22.9673 21.9314 22.9673 21H20.9673ZM19.9673 20C20.5195 20 20.9673 20.4477 20.9673 21H22.9673C22.9673 19.3431 21.6241 18 19.9673 18V20ZM18.9987 20.7493C19.1098 20.3177 19.5027 20 19.9673 20V18C18.568 18 17.3948 18.957 17.0618 20.2507L18.9987 20.7493ZM19.9668 27H19.9768V25H19.9668V27Z" fill="white"/>
</svg>
