<svg width="52" height="52" viewBox="0 0 52 52" fill="none" xmlns="http://www.w3.org/2000/svg">
<path d="M30.9068 34.5317L27.1858 30.8416C25.4756 29.1458 24.6204 28.2977 23.6359 27.9797C22.7699 27.6997 21.8378 27.6997 20.9716 27.9797C19.9871 28.2977 19.132 29.1458 17.4217 30.8416L8.75747 39.5681M30.9068 34.5317L31.6463 33.798C33.3926 32.0664 34.2656 31.2006 35.2674 30.8847C36.1484 30.6068 37.095 30.6176 37.9695 30.9157C38.9636 31.2548 39.8166 32.1403 41.5224 33.9116L43.3333 35.7502M30.9068 34.5317L39.4766 43.2527M8.75747 39.5681C8.82401 40.1323 8.93926 40.5754 9.13894 40.9673C9.55437 41.7826 10.2173 42.4456 11.0327 42.861C11.9596 43.3333 13.1731 43.3333 15.6 43.3333H36.4C37.7461 43.3333 38.7189 43.3333 39.4766 43.2527M8.75747 39.5681C8.66663 38.7976 8.66663 37.801 8.66663 36.4V15.6C8.66663 13.1731 8.66663 11.9597 9.13894 11.0327C9.55437 10.2173 10.2173 9.55441 11.0327 9.13898C11.9596 8.66667 13.1731 8.66667 15.6 8.66667H23.8333M39.4766 43.2527C40.0848 43.1879 40.5545 43.0714 40.9673 42.861C41.7826 42.4456 42.4456 41.7826 42.861 40.9673C43.3333 40.0404 43.3333 38.8269 43.3333 36.4V28.1667M39 19.5V13M39 13V6.5M39 13H45.5M39 13H32.5" stroke="white" stroke-width="4.33333" stroke-linecap="round" stroke-linejoin="round"/>
</svg>
