<svg width="40" height="40" viewBox="0 0 40 40" fill="none" xmlns="http://www.w3.org/2000/svg">
<g clip-path="url(#clip0_2897_2324)">
<path d="M8.98748 31.895C8.51751 32.3637 7.75702 32.3637 7.28827 31.8962C6.8183 31.4262 6.8183 30.6657 7.28827 30.1958L16.2077 21.2764C16.6777 20.8076 17.4381 20.8076 17.9069 21.2764C18.3756 21.7451 18.3756 22.5057 17.9069 22.9756L8.98748 31.895Z" fill="white"/>
<path d="M12.8048 15.1299L8.20938 21.415C8.20938 21.415 7.33647 20.6664 5.54634 20.9008C2.90007 21.2464 1.77721 24.31 1.21877 24.9401C0.641192 25.3372 -1.20274 21.3958 1.2092 17.7666C5.28331 11.637 12.8048 15.1299 12.8048 15.1299Z" fill="white"/>
<path d="M24.0536 26.3799L17.7685 30.9741C17.7685 30.9741 18.5159 31.8459 18.2815 33.6371C17.9359 36.2834 14.8735 37.405 14.2422 37.9647C13.8463 38.5411 17.7877 40.3862 21.4157 37.9743C27.5465 33.9002 24.0536 26.3799 24.0536 26.3799Z" fill="white"/>
<path d="M35.5917 12.8879C36.9131 9.91513 36.9334 6.89339 35.441 4.86296C35.4554 4.8498 35.4697 4.83548 35.4829 4.8211C37.8159 2.48928 39.4553 0.347652 39.1456 0.0379326C38.8359 -0.271787 36.693 1.36765 34.3612 3.69946C34.3468 3.71385 34.3337 3.72694 34.3193 3.74133C32.2913 2.2502 29.2707 2.26934 26.3015 3.58704C27.3765 5.32214 28.7577 7.08832 30.427 8.75645C32.094 10.4234 33.8591 11.8129 35.5917 12.8879Z" fill="white"/>
<path d="M29.0855 10.0981C27.2847 8.29603 25.7815 6.38636 24.6144 4.48389C23.647 5.08534 22.7048 5.81843 21.8294 6.69371C18.9678 9.55404 8.41382 23.5161 8.41382 23.5161L10.2972 25.3995L15.3135 20.3819C16.275 19.4204 17.8402 19.4204 18.8016 20.3819C19.763 21.3434 19.7631 22.9074 18.8016 23.8689L13.784 28.8864L15.6674 30.7698C15.6674 30.7698 29.6283 20.2145 32.4898 17.3542C33.3675 16.4765 34.1018 15.5318 34.7045 14.5608C32.8008 13.3925 30.8899 11.9002 29.0855 10.0981ZM22.6019 16.5816C21.4491 15.4288 21.4491 13.561 22.6019 12.4083C23.7547 11.2556 25.6225 11.2555 26.7752 12.4083C27.9279 13.5611 27.928 15.4289 26.7752 16.5816C25.6224 17.7343 23.7546 17.7344 22.6019 16.5816Z" fill="white"/>
</g>
<defs>
<clipPath id="clip0_2897_2324">
<rect width="39.1837" height="39.1837" fill="white"/>
</clipPath>
</defs>
</svg>
