<svg width="48" height="48" viewBox="0 0 48 48" fill="none" xmlns="http://www.w3.org/2000/svg">
<path d="M29.9629 16.3447C31.9105 16.2498 32.2101 19.4408 30.0728 19.1612C28.3 19.1112 28.0753 16.3946 29.9629 16.3447Z" fill="#EB4335"/>
<path d="M36.3447 23.9451C36.4995 12.5244 31.9252 11.0462 21.4932 11.6804C14.3072 11.1261 11.4857 16.5693 11.4658 23.0063C11.0763 29.3084 13.0188 37.2734 20.864 36.6043C30.6568 36.4295 36.7991 35.4357 36.3447 23.9451ZM19.2211 4.28968C30.4371 3.24598 43.4208 4.85397 43.5756 18.8914C43.9701 25.3533 44.1799 32.2797 41.0138 38.1424C37.643 43.8752 32.025 43.6355 26.1824 43.7703C21.0438 43.9751 15.7454 44.4195 10.7916 42.7366C5.7429 40.9888 4.36961 37.1786 4.47948 32.1948C4.3047 27.9052 4.12991 23.6255 4.20482 19.3309C4.45451 9.15357 8.89895 4.05497 19.2211 4.28968Z" fill="white"/>
<path d="M21.4933 11.6804C31.9253 11.0462 36.4945 12.5244 36.3447 23.9451C36.7992 35.4357 30.6568 36.4245 20.8691 36.6043C13.0189 37.2735 11.0813 29.3034 11.4708 23.0063C11.4858 16.5693 14.3073 11.1261 21.4933 11.6804ZM34.1475 24.3047C34.1475 17.2335 33.2786 13.4882 25.2486 13.8477C22.8616 14.0824 20.0701 13.7279 17.6731 14.5419C12.8591 16.8939 13.5233 23.3608 13.9677 27.8452C14.4022 35.0912 20.4097 34.8764 26.0326 34.0675C32.939 33.7029 34.2124 30.7216 34.1475 24.3047Z" fill="#EB4335"/>
<path d="M24.7595 19.6655C19.6759 19.4058 18.1079 27.7803 23.6859 28.0051C28.9293 27.8802 29.7333 21.1586 24.7595 19.6655ZM23.6959 17.7429C32.4749 17.1486 31.9356 30.1224 23.6559 30.0325C15.8107 29.7928 16.5448 18.442 23.6959 17.7429Z" fill="#EB4335"/>
<path d="M23.6907 28.0051C18.1126 27.7754 19.6757 19.4009 24.7644 19.6655C29.7332 21.1587 28.9291 27.8803 23.6907 28.0051Z" fill="white"/>
<path d="M25.2487 13.8477C33.2786 13.4832 34.1525 17.2335 34.1475 24.3046C34.2075 30.7216 32.9391 33.7029 26.0327 34.0674C20.4098 34.8764 14.4023 35.0912 13.9678 27.8453C13.5234 23.3558 12.8642 16.8939 17.6732 14.5418C20.0702 13.7279 22.8617 14.0824 25.2487 13.8477ZM23.6607 30.0325C31.9354 30.1224 32.4796 17.1486 23.7007 17.7428C16.5446 18.442 15.8105 29.7928 23.6607 30.0325ZM30.0727 19.1611C32.21 19.4407 31.9103 16.2547 29.9628 16.3446C28.0751 16.3945 28.2999 19.1111 30.0727 19.1611Z" fill="white"/>
</svg>
