<svg width="32" height="32" viewBox="0 0 32 32" fill="none" xmlns="http://www.w3.org/2000/svg">
<path fill-rule="evenodd" clip-rule="evenodd" d="M6.99996 13.4061V10.6666C6.99996 5.69607 11.0294 1.66663 16 1.66663C20.9705 1.66663 25 5.69607 25 10.6666V13.4061C26.4864 13.5172 27.4542 13.7973 28.1617 14.5049C29.3333 15.6765 29.3333 17.5621 29.3333 21.3333C29.3333 25.1045 29.3333 26.9901 28.1617 28.1617C26.9901 29.3333 25.1045 29.3333 21.3333 29.3333H10.6666C6.89539 29.3333 5.00977 29.3333 3.8382 28.1617C2.66663 26.9901 2.66663 25.1045 2.66663 21.3333C2.66663 17.5621 2.66663 15.6765 3.8382 14.5049C4.54571 13.7973 5.51363 13.5172 6.99996 13.4061ZM8.99996 10.6666C8.99996 6.80064 12.134 3.66663 16 3.66663C19.866 3.66663 23 6.80064 23 10.6666V13.3381C22.4893 13.3333 21.9353 13.3333 21.3333 13.3333H10.6666C10.0646 13.3333 9.51064 13.3333 8.99996 13.3381V10.6666Z" fill="black"/>
</svg>
