<svg width="18" height="18" viewBox="0 0 18 18" fill="none" xmlns="http://www.w3.org/2000/svg">
<path d="M13.9562 17.8714H4.04332C3.39031 17.8701 2.76444 17.61 2.30274 17.1482C1.84103 16.6864 1.58112 16.0605 1.5799 15.4075V8.03004C1.58112 7.37703 1.84103 6.7511 2.30274 6.28931C2.76444 5.82751 3.39031 5.56746 4.04332 5.5661H13.9562C14.6093 5.56732 15.2353 5.82731 15.6971 6.28912C16.1589 6.75094 16.4189 7.37694 16.4201 8.03004V15.4075C16.4189 16.0606 16.1589 16.6866 15.6971 17.1484C15.2353 17.6102 14.6093 17.8702 13.9562 17.8714ZM4.04332 6.85182C3.73097 6.85209 3.43149 6.97633 3.21067 7.19724C2.98985 7.41816 2.86575 7.71769 2.86561 8.03004V15.4075C2.86575 15.7198 2.98985 16.0194 3.21067 16.2403C3.43149 16.4612 3.73097 16.5854 4.04332 16.5857H13.9562C14.2686 16.5854 14.5681 16.4612 14.789 16.2403C15.0099 16.0194 15.1341 15.7199 15.1344 15.4075V8.03004C15.1341 7.71764 15.0099 7.41811 14.789 7.19721C14.5681 6.97631 14.2686 6.85209 13.9562 6.85182H4.04332Z" fill="#50C4ED"/>
<path d="M13.1333 6.85184C12.9628 6.85184 12.7993 6.78411 12.6788 6.66356C12.5582 6.543 12.4905 6.37948 12.4905 6.20899V4.42699C12.4857 4.02602 12.3943 3.63082 12.2225 3.26847C12.0508 2.90612 11.8027 2.58519 11.4953 2.32767C10.8039 1.72723 9.9157 1.40213 9 1.4143C7.07452 1.4143 5.50801 2.76584 5.50801 4.42699V6.20899C5.50801 6.37948 5.44028 6.543 5.31972 6.66356C5.19916 6.78411 5.03564 6.85184 4.86515 6.85184C4.69465 6.85184 4.53114 6.78411 4.41058 6.66356C4.29002 6.543 4.22229 6.37948 4.22229 6.20899V4.42699C4.22075 2.05716 6.36429 0.128586 9 0.128586C10.2298 0.115357 11.4215 0.554642 12.3485 1.36287C12.7934 1.74019 13.1514 2.20922 13.3981 2.73782C13.6448 3.26643 13.7743 3.84212 13.7777 4.42544V6.20744C13.7779 6.29212 13.7614 6.37601 13.7291 6.45429C13.6968 6.53256 13.6493 6.60368 13.5894 6.66356C13.5296 6.72344 13.4584 6.77089 13.3802 6.80321C13.3019 6.83552 13.218 6.85205 13.1333 6.85184Z" fill="#50C4ED"/>
<path d="M9 13.2578C8.82951 13.2578 8.66599 13.1901 8.54544 13.0695C8.42488 12.9489 8.35715 12.7854 8.35715 12.6149V10.9029C8.35715 10.7324 8.42488 10.5689 8.54544 10.4483C8.66599 10.3277 8.82951 10.26 9 10.26C9.1705 10.26 9.33401 10.3277 9.45457 10.4483C9.57513 10.5689 9.64286 10.7324 9.64286 10.9029V12.6175C9.64218 12.7875 9.57415 12.9504 9.45367 13.0704C9.33318 13.1904 9.17006 13.2578 9 13.2578Z" fill="#50C4ED"/>
</svg>
