<svg width="40" height="40" viewBox="0 0 40 40" fill="none" xmlns="http://www.w3.org/2000/svg">
<path d="M36.6673 20.1747C36.6673 23.4712 35.6897 26.6937 33.8583 29.4346C32.0269 32.1755 29.4238 34.3118 26.3782 35.5733C23.3327 36.8348 19.9814 37.1649 16.7483 36.5218C13.5151 35.8787 10.5453 34.2913 8.21429 31.9603C5.88331 29.6293 4.2959 26.6595 3.65279 23.4263C3.00967 20.1932 3.33974 16.8419 4.60125 13.7964C5.86277 10.7508 7.99907 8.14772 10.74 6.31628C13.4809 4.48485 16.7034 3.50732 19.9999 3.50732C22.1887 3.50732 24.356 3.93844 26.3782 4.77605C28.4004 5.61367 30.2378 6.84138 31.7855 8.38908C33.3332 9.93679 34.5609 11.7742 35.3985 13.7964C36.2361 15.8185 36.6673 17.9859 36.6673 20.1747ZM25.5788 33.3831C26.9206 32.8159 28.1673 32.0463 29.2757 31.101L9.07358 10.8989C6.9878 13.3576 5.79168 16.4476 5.67839 19.6698C5.5651 22.892 6.54125 26.0584 8.4492 28.6575C10.3572 31.2566 13.0855 33.1367 16.1936 33.9941C19.3017 34.8516 22.6081 34.6363 25.5788 33.3831ZM33.2083 25.7536C34.466 22.7826 34.6845 19.4741 33.8284 16.3634C32.9723 13.2527 31.0917 10.5219 28.4909 8.61272C25.8902 6.70353 22.7213 5.72768 19.4971 5.84303C16.2728 5.95839 13.1818 7.15821 10.7241 9.24838L30.9262 29.4505C31.8714 28.3421 32.641 27.0953 33.2083 25.7536Z" fill="white"/>
</svg>
