<svg width="32" height="32" viewBox="0 0 32 32" fill="none" xmlns="http://www.w3.org/2000/svg">
<path d="M29.0278 2.97187C28.6278 2.57187 27.9745 2.57187 27.5745 2.97187L2.97444 27.5852C2.57444 27.9852 2.57444 28.6385 2.97444 29.0385C3.17444 29.2252 3.42777 29.3319 3.69444 29.3319C3.96111 29.3319 4.21444 29.2252 4.41444 29.0252L29.0278 4.41187C29.4412 4.01187 29.4412 3.37187 29.0278 2.97187Z" fill="#292D32"/>
<path d="M19.7606 4.69446V12.2411L12.2406 19.7612V17.7078H8.12063C6.25396 17.7078 5.73396 16.5612 6.97396 15.1612L16.0006 4.89446L17.0673 3.68112C18.5473 2.00112 19.7606 2.45446 19.7606 4.69446Z" fill="#292D32"/>
<path d="M25.0263 16.8383L15.9996 27.1049L14.933 28.3183C13.453 29.9983 12.2396 29.5449 12.2396 27.3049V23.7583L21.7063 14.2917H23.8796C25.7463 14.2917 26.2663 15.4383 25.0263 16.8383Z" fill="#292D32"/>
</svg>
