<svg width="32" height="32" viewBox="0 0 32 32" fill="none" xmlns="http://www.w3.org/2000/svg">
<g clip-path="url(#clip0_2650_335)">
<path d="M16 0.80957C18.1285 0.80957 20.1602 1.24207 22.0059 2.02246C24.7752 3.1941 27.1299 5.149 28.7939 7.61133C30.3529 9.9188 31.3047 12.6755 31.417 15.6416L31.4287 16.2373V16.2383C31.4294 19.5332 30.3847 22.5693 28.6182 25.0586L28.2549 25.5488C26.2677 28.128 23.4853 30.072 20.2881 31.0615C20.0104 31.1473 19.7113 31.1891 19.3955 31.1895C19.0594 31.189 18.7138 31.141 18.374 31.0361H18.375C18.1206 30.9571 17.8727 30.8479 17.6416 30.7012L17.6406 30.7002L17.5137 30.6143C17.2199 30.4043 16.958 30.1276 16.7676 29.7871L16.7666 29.7861L16.6895 29.6367C16.5189 29.2782 16.4207 28.8512 16.4219 28.377V28.375C16.4219 28.0794 16.4573 27.7636 16.5332 27.4268C16.5762 27.2373 16.6224 27.0556 16.6689 26.874C16.7147 26.6953 16.7612 26.5127 16.8008 26.3359C16.8607 26.0715 16.9081 25.8085 16.9277 25.5449L16.9385 25.2803C16.9384 24.4773 16.7752 23.7153 16.4814 23.0205C16.0414 21.9795 15.3042 21.0913 14.3779 20.4658C13.45 19.8394 12.3367 19.4752 11.1318 19.4746H11.1309C9.52232 19.4751 8.05529 20.106 7.0293 21.1699C6.74634 21.463 6.3966 21.6887 6.00684 21.8428C5.61715 21.9963 5.19112 22.0771 4.74902 22.0771C4.25473 22.0771 3.74396 21.9753 3.25488 21.7559C2.88889 21.5914 2.53396 21.3597 2.21191 21.0586L2.03418 20.8818C1.62775 20.4527 1.27905 19.8999 1.02734 19.2236V19.2227C0.738261 18.4476 0.571289 17.5088 0.571289 16.3877C0.571291 16.3377 0.571889 16.2867 0.572266 16.2324C0.62986 11.9785 2.35632 8.11922 5.13281 5.3291C6.52126 3.9333 8.17249 2.80356 10.0098 2.02246C11.8467 1.24157 13.8717 0.809629 16 0.80957ZM23.2529 18.4111C22.6183 18.4107 22.0206 18.6049 21.5283 18.9385C21.0373 19.2704 20.6469 19.7397 20.4121 20.293V20.2939C20.2557 20.6641 20.1699 21.0714 20.1699 21.4941L20.1787 21.7305C20.2203 22.2776 20.4057 22.7891 20.6973 23.2197V23.2188C21.029 23.7095 21.4984 24.1005 22.0527 24.335C22.4223 24.4913 22.8297 24.5781 23.2529 24.5781C23.8884 24.5781 24.4865 24.3834 24.9785 24.0508V24.0498C25.4682 23.7179 25.8588 23.2494 26.0938 22.6953C26.2307 22.3716 26.3144 22.0185 26.333 21.6523L26.3369 21.4941C26.3373 20.859 26.1416 20.2615 25.8086 19.7695C25.4771 19.2795 25.0084 18.888 24.4541 18.6533H24.4531C24.0833 18.497 23.676 18.4111 23.2529 18.4111ZM24.8506 12.751C23.8221 12.751 22.9875 13.5847 22.9873 14.6143C22.9873 15.644 23.822 16.4775 24.8506 16.4775C25.8797 16.4775 26.7139 15.6439 26.7139 14.6143C26.7137 13.5847 25.8796 12.751 24.8506 12.751ZM7.9043 10.3721C6.27622 10.3721 4.95605 11.6919 4.95605 13.3203C4.95611 14.9477 6.27631 16.2686 7.9043 16.2686C9.53248 16.2683 10.8525 14.9477 10.8525 13.3203C10.8525 11.692 9.5325 10.3723 7.9043 10.3721ZM22.6094 8.02441C21.3816 8.02441 20.386 9.01921 20.3857 10.2471C20.3857 11.4746 21.3812 12.4707 22.6094 12.4707C23.8374 12.4705 24.832 11.4745 24.832 10.2471C24.8318 9.01934 23.8371 8.02462 22.6094 8.02441ZM12.0781 5.69531C10.6211 5.69531 9.43968 6.87702 9.43945 8.33398C9.43945 9.79146 10.621 10.9736 12.0781 10.9736C13.5356 10.9735 14.7168 9.7914 14.7168 8.33398C14.7166 6.87707 13.5354 5.69548 12.0781 5.69531ZM18.0488 5.07715C16.709 5.07717 15.6221 6.16413 15.6221 7.50391C15.6222 8.8436 16.7091 9.92966 18.0488 9.92969C19.3886 9.92969 20.4755 8.84366 20.4756 7.50391C20.4756 6.16405 19.3886 5.07715 18.0488 5.07715Z" fill="#50C4ED" stroke="#50C4ED" stroke-width="1.14286"/>
</g>
<defs>
<clipPath id="clip0_2650_335">
<rect width="32" height="32" fill="white"/>
</clipPath>
</defs>
</svg>
