<svg width="28" height="28" viewBox="0 0 28 28" fill="none" xmlns="http://www.w3.org/2000/svg">
<g clip-path="url(#clip0_2542_624)">
<path d="M25.6089 6.37993C24.0994 4.14616 21.9634 2.37215 19.4502 1.30886C17.7748 0.600387 15.931 0.208496 14.0004 0.208496C12.0697 0.208496 10.2316 0.600387 8.56324 1.30963C6.89489 2.01887 5.39623 3.04432 4.13662 4.31066C1.61777 6.84187 0.0528281 10.3416 0.000710938 14.1969V14.1976C0.000382813 14.2452 0 14.2928 0 14.3396C0 15.3696 0.152852 16.2515 0.430117 16.9948C0.706617 17.7378 1.11048 18.3406 1.5942 18.7917C1.91641 19.093 2.2727 19.326 2.64288 19.4923C3.13709 19.7142 3.65411 19.8175 4.15538 19.8175C4.6031 19.8175 5.03847 19.7359 5.43977 19.5777C5.84063 19.4193 6.20895 19.184 6.51093 18.8711C7.31155 18.0409 8.46366 17.5403 9.73979 17.5399C10.6915 17.5403 11.5685 17.8277 12.3006 18.3219C13.032 18.8157 13.6141 19.517 13.9611 20.3379C14.1926 20.8857 14.3207 21.4863 14.3207 22.1209C14.3211 22.3768 14.2795 22.6432 14.2132 22.9354C14.148 23.2269 14.0578 23.5409 13.9791 23.8878C13.9052 24.2153 13.8689 24.5288 13.8689 24.8282C13.8674 25.3819 13.9986 25.8885 14.235 26.3081C14.4703 26.7289 14.8041 27.0548 15.1687 27.2853C15.4118 27.4396 15.6692 27.5535 15.9296 27.6344C16.2769 27.7416 16.6294 27.791 16.9715 27.7914C17.2919 27.791 17.604 27.7483 17.8999 27.6569C20.7957 26.7607 23.3172 24.9994 25.1193 22.6604C26.921 20.3225 28.0008 17.3986 28.0001 14.208C28.0008 11.3116 27.1181 8.61364 25.6089 6.37993ZM6.91589 13.7346C5.76756 13.7346 4.83645 12.8031 4.83645 11.6552C4.83645 10.5064 5.76751 9.57543 6.91589 9.57543C8.0646 9.57543 8.99566 10.5064 8.99566 11.6552C8.99566 12.8031 8.0646 13.7346 6.91589 13.7346ZM10.5681 9.10183C9.56927 9.10183 8.75919 8.2918 8.75919 7.29261C8.75919 6.29374 9.56922 5.48371 10.5681 5.48371C11.5673 5.48371 12.3773 6.29374 12.3773 7.29261C12.3773 8.2918 11.5673 9.10183 10.5681 9.10183ZM15.7928 8.18877C14.8965 8.18877 14.1697 7.46192 14.1697 6.56575C14.1697 5.66959 14.8965 4.94274 15.7928 4.94274C16.6889 4.94274 17.4158 5.66953 17.4158 6.56575C17.4158 7.46197 16.689 8.18877 15.7928 8.18877ZM19.7829 7.52114C20.5813 7.52114 21.2283 8.16815 21.2283 8.96654C21.2283 9.76459 20.5813 10.412 19.7829 10.412C18.9845 10.412 18.3375 9.76459 18.3375 8.96654C18.3375 8.16815 18.9845 7.52114 19.7829 7.52114ZM22.3718 19.6632C22.2044 20.0581 21.926 20.3927 21.576 20.6298C21.2257 20.8666 20.7997 21.0056 20.3464 21.0056C20.0444 21.0056 19.7541 20.9438 19.491 20.8325C19.0961 20.6654 18.7611 20.387 18.5244 20.0368C18.2872 19.6864 18.1482 19.2609 18.1485 18.8075C18.1485 18.5055 18.21 18.2152 18.3212 17.9518C18.4887 17.5572 18.7667 17.2223 19.1171 16.9855C19.4674 16.748 19.8933 16.6093 20.3463 16.6097C20.6487 16.6097 20.939 16.6712 21.2021 16.7824C21.597 16.9495 21.9319 17.2283 22.1687 17.5782C22.4059 17.9286 22.5449 18.3546 22.5445 18.8075C22.5445 19.1094 22.4831 19.4002 22.3718 19.6632ZM21.7443 13.9181C21.1201 13.9181 20.6136 13.4123 20.6136 12.7877C20.6136 12.1631 21.1201 11.6573 21.7443 11.6573C22.3688 11.6573 22.875 12.1631 22.875 12.7877C22.875 13.4123 22.3688 13.9181 21.7443 13.9181Z" fill="url(#paint0_linear_2542_624)"/>
</g>
<defs>
<linearGradient id="paint0_linear_2542_624" x1="14" y1="0.208496" x2="14" y2="27.7914" gradientUnits="userSpaceOnUse">
<stop offset="1" stop-color="#FF9C13"/>
</linearGradient>
<clipPath id="clip0_2542_624">
<rect width="28" height="28" fill="white"/>
</clipPath>
</defs>
</svg>
