<svg width="24" height="24" viewBox="0 0 24 24" fill="none" xmlns="http://www.w3.org/2000/svg">
<g clip-path="url(#clip0_2931_913)">
<path d="M22.1657 19.9902L19.3235 15.1054C19.7637 14.9623 20.2052 14.7702 20.4374 14.3695C20.7202 13.8812 20.5799 13.2777 20.4561 12.7452C20.3741 12.3924 20.2892 12.0274 20.3503 11.7855C20.4162 11.5249 20.6701 11.2332 20.9156 10.9512C21.2797 10.5328 21.6563 10.1002 21.6563 9.56402C21.6563 9.0454 21.271 8.553 20.8984 8.07677C20.6435 7.75111 20.3801 7.41435 20.3126 7.14933C20.2511 6.90724 20.3352 6.54213 20.4166 6.18906C20.5394 5.6564 20.6786 5.05268 20.3949 4.56496C20.1111 4.07723 19.5175 3.89993 18.9937 3.74341C18.6466 3.63965 18.2877 3.53241 18.1077 3.35925C17.9165 3.17519 17.7914 2.81109 17.6704 2.45888C17.4876 1.92656 17.2985 1.37619 16.8179 1.11919C16.6415 1.02492 16.4419 0.97906 16.2075 0.97906C15.8874 0.97906 15.5527 1.06604 15.2291 1.15015C14.9327 1.22717 14.6528 1.29998 14.4176 1.29998C14.3505 1.29998 14.2921 1.29409 14.2392 1.28192C13.9849 1.22329 13.6927 0.974112 13.41 0.733225C12.9871 0.372797 12.5498 0 12.0094 0C11.3449 0 10.5356 0.648182 10.0002 1.07714C9.88937 1.16586 9.75412 1.27417 9.69515 1.31268C9.64995 1.32077 9.59968 1.32485 9.54519 1.32485C9.31045 1.32491 9.03119 1.25284 8.73561 1.17656C8.41296 1.09325 8.07934 1.00721 7.7603 1.00721C7.52443 1.00721 7.32365 1.05341 7.14668 1.14848C6.66651 1.40641 6.47844 1.95718 6.29659 2.48984C6.17631 2.84224 6.05189 3.20661 5.86108 3.39094C5.68137 3.5645 5.32261 3.67241 4.97562 3.77677C4.45213 3.93422 3.85884 4.11267 3.57589 4.60093C3.29309 5.08918 3.43342 5.69257 3.55717 6.22496C3.63928 6.57783 3.72412 6.94281 3.66301 7.1851C3.6017 7.42779 3.35406 7.72637 3.11458 8.01506C2.74379 8.46207 2.32352 8.96865 2.32352 9.56047C2.32352 10.0973 2.7014 10.5295 3.06691 10.9475C3.31294 11.2289 3.56727 11.5199 3.63353 11.7801C3.6951 12.0221 3.61093 12.3872 3.52956 12.7402C3.40675 13.2729 3.26755 13.8766 3.55136 14.3645C3.79158 14.7774 4.24353 14.9646 4.68653 15.1051L1.83352 20.0291C1.67273 20.3065 1.65441 20.6004 1.78318 20.8351C1.91195 21.0699 2.16955 21.2123 2.49006 21.2259L4.55068 21.3117C4.85949 21.3247 5.29092 21.5747 5.45572 21.836L6.55533 23.5809C6.72321 23.8472 6.97018 24.0001 7.23299 24.0001C7.50584 24.0001 7.75622 23.838 7.91995 23.5554C7.9467 23.5093 10.281 19.4792 10.8656 18.4703C11.1583 18.6834 11.6131 18.9493 12.0597 18.9493C12.4714 18.9493 12.8251 18.7365 13.15 18.4803C13.412 18.9317 14.1257 20.1712 16.0857 23.5402C16.2496 23.822 16.4998 23.9964 16.7722 23.9964C17.0354 23.9964 17.2826 23.8304 17.4503 23.5633L18.5467 21.8101C18.7113 21.5483 19.1422 21.2943 19.4508 21.2808L21.5113 21.1894C21.8317 21.1754 22.089 21.0318 22.2175 20.7969C22.3458 20.5618 22.327 20.2673 22.1657 19.9902ZM14.721 11.9252L14.9699 13.3767C15.0033 13.5714 14.9747 13.6886 14.94 13.7296C14.9335 13.7374 14.9183 13.7556 14.8593 13.7556C14.8156 13.7556 14.72 13.7439 14.5718 13.666L13.2681 12.9806C12.9306 12.8033 12.4877 12.7055 12.0209 12.7055C11.5541 12.7055 11.1112 12.8033 10.7738 12.9806L9.47011 13.666C9.32195 13.7439 9.22628 13.7556 9.18256 13.7556C9.12372 13.7556 9.10841 13.7375 9.10186 13.7297C9.06723 13.6886 9.03861 13.5715 9.07204 13.3768L9.32102 11.9251C9.45453 11.1464 9.11597 10.1044 8.55022 9.55292L7.49554 8.52485C7.33743 8.37068 7.30092 8.25054 7.31496 8.20741C7.32893 8.16429 7.42909 8.08861 7.64764 8.05685L9.1052 7.84505C9.8871 7.73146 10.7735 7.08742 11.1232 6.37893L11.775 5.05816C11.8726 4.8602 11.9756 4.78833 12.021 4.78833C12.0663 4.78833 12.1693 4.8602 12.267 5.05816L12.9189 6.37893C13.2685 7.08742 14.1549 7.73139 14.9368 7.84505L16.3943 8.05685C16.6128 8.08861 16.713 8.16436 16.727 8.20741C16.7411 8.25054 16.7045 8.37068 16.5464 8.52485L15.4918 9.55285C14.9259 10.1044 14.5874 11.1464 14.721 11.9252Z" fill="white"/>
</g>
<defs>
<clipPath id="clip0_2931_913">
<rect width="24" height="24" fill="white"/>
</clipPath>
</defs>
</svg>
