<svg width="32" height="32" viewBox="0 0 32 32" fill="none" xmlns="http://www.w3.org/2000/svg">
<circle cx="16" cy="16" r="16" fill="#50C4ED"/>
<g clip-path="url(#clip0_2700_660)">
<path d="M24.6277 7.84281C23.8466 7.06176 22.5803 7.06176 21.7993 7.84281L14.437 15.2051C13.656 15.9861 12.3896 15.9861 11.6086 15.2051L11.1319 14.7284C10.3509 13.9474 9.08457 13.9474 8.30352 14.7284L7.89041 15.1415C7.10936 15.9225 7.10936 17.1889 7.89041 17.9699L9.78128 19.8608L11.6298 21.7093C12.4108 22.4904 13.6771 22.4904 14.4582 21.7093L16.2855 19.882L25.062 11.1055C25.843 10.3245 25.843 9.05816 25.062 8.27711L24.6277 7.84281Z" fill="white"/>
</g>
<defs>
<clipPath id="clip0_2700_660">
<rect width="20" height="20" fill="white" transform="translate(6 5)"/>
</clipPath>
</defs>
</svg>
