<svg width="28" height="28" viewBox="0 0 28 28" fill="none" xmlns="http://www.w3.org/2000/svg">
<g clip-path="url(#clip0_2449_844)">
<path d="M6.41401 3.39843L14.4419 9.40335L22.8623 3.96253L19.6321 13.4531L27.4086 19.7801L17.3843 19.6407L13.7701 28.9918L10.805 19.4151L0.794709 18.8674L8.98649 13.088L6.41401 3.39843Z" fill="#6FD5FA"/>
<path d="M26.4444 13.0511C26.7335 12.8358 26.9479 12.5354 27.0576 12.192C27.1673 11.8486 27.1668 11.4795 27.0562 11.1365C26.9456 10.7934 26.7303 10.4936 26.4407 10.279C26.151 10.0644 25.8015 9.9459 25.4411 9.94002L18.4411 9.67557C18.4067 9.6732 18.3737 9.66092 18.3461 9.64022C18.3185 9.61952 18.2974 9.59128 18.2855 9.55891L15.8666 3.02557C15.7451 2.69318 15.5244 2.40617 15.2343 2.20338C14.9442 2.0006 14.5989 1.89185 14.245 1.89185C13.891 1.89185 13.5457 2.0006 13.2556 2.20338C12.9656 2.40617 12.7448 2.69318 12.6233 3.02557L10.2122 9.58224C10.2003 9.61462 10.1792 9.64285 10.1516 9.66355C10.124 9.68425 10.091 9.69653 10.0566 9.69891L3.05662 9.96335C2.69621 9.96924 2.34667 10.0878 2.05702 10.3023C1.76737 10.5169 1.55214 10.8167 1.4415 11.1598C1.33086 11.5029 1.33036 11.872 1.44008 12.2153C1.54979 12.5587 1.76422 12.8591 2.05329 13.0745L7.5444 17.3911C7.57188 17.4128 7.59242 17.442 7.60348 17.4751C7.61454 17.5083 7.61563 17.544 7.60662 17.5778L5.71662 24.2745C5.61868 24.6155 5.62817 24.9784 5.7438 25.3138C5.85942 25.6492 6.07557 25.9409 6.36284 26.1491C6.65011 26.3573 6.99455 26.472 7.3493 26.4776C7.70405 26.4831 8.0519 26.3792 8.34551 26.18L14.1477 22.2911C14.1763 22.2714 14.2102 22.2608 14.245 22.2608C14.2797 22.2608 14.3136 22.2714 14.3422 22.2911L20.1444 26.18C20.434 26.386 20.7806 26.4967 21.1361 26.4967C21.4915 26.4967 21.8381 26.386 22.1277 26.18C22.4151 25.9738 22.6314 25.6835 22.747 25.3492C22.8626 25.0149 22.8718 24.6531 22.7733 24.3134L20.8677 17.5934C20.8576 17.5596 20.8582 17.5236 20.8693 17.4902C20.8805 17.4568 20.9016 17.4276 20.93 17.4067L26.4444 13.0511Z" fill="#50C4ED"/>
</g>
<defs>
<clipPath id="clip0_2449_844">
<rect width="28" height="28" fill="white"/>
</clipPath>
</defs>
</svg>
