<svg width="28" height="28" viewBox="0 0 28 28" fill="none" xmlns="http://www.w3.org/2000/svg">
<path d="M23.8303 6.24752L23.3275 1.05472C23.2855 0.614886 22.9985 0.236917 22.5855 0.0782093C22.1713 -0.0804411 21.707 0.00586249 21.3803 0.304535L17.5268 3.82202C17.4078 3.93168 17.3133 4.06236 17.248 4.20933L17.0496 4.65617L15.0441 0.645192C14.6475 -0.145781 13.3525 -0.145781 12.9558 0.645192L10.9503 4.65617L10.752 4.21053C10.6866 4.0635 10.5921 3.93168 10.4731 3.82321L6.61966 0.305732C6.29415 0.00591945 5.82749 -0.0804411 5.41448 0.0782093C5.00148 0.23686 4.71448 0.614886 4.6725 1.05472L4.16966 6.24752C4.15098 6.44821 4.18368 6.65004 4.26531 6.83432L5.8975 10.5H5.8333C5.18816 10.5 4.66663 11.0226 4.66663 11.6666V23.1034C4.66663 25.8031 6.86347 27.9999 9.56315 27.9999H18.4368C21.1365 27.9999 23.3333 25.8031 23.3333 23.1034V11.6667C23.3333 11.0227 22.8118 10.5 22.1667 10.5H22.1025L23.7347 6.83438C23.8163 6.65004 23.849 6.44821 23.8303 6.24752ZM10.5 10.5H8.45129L6.52162 6.16588L6.7701 3.60156L8.72079 5.38186L10.5 9.38002V10.5ZM15.1666 9.13154V10.5H12.8333V9.13154V6.10869L13.9999 3.77536L15.1666 6.10869V9.13154ZM19.5486 10.5H17.4999V9.38002L19.2791 5.38186L21.2298 3.60156L21.4783 6.16588L19.5486 10.5Z" fill="#50C4ED"/>
</svg>
