<svg width="41" height="36" viewBox="0 0 41 36" fill="none" xmlns="http://www.w3.org/2000/svg">
<path d="M26.0389 11.5526C12.7412 11.9974 5.80361 22.848 3.66204 29.0934C3.50476 29.5521 3.90028 30 4.43974 30C4.76684 30 5.06366 29.8242 5.20295 29.5611C10.1953 20.1316 21.4422 18.4728 26.1797 18.8458C26.5919 18.8784 26.8873 19.1934 26.8873 19.5613V22.687C26.8873 23.35 27.7842 23.6869 28.3191 23.2249L34.927 17.5176C35.2218 17.263 35.2674 16.8567 35.0348 16.5555L28.4268 7.99447C27.9578 7.38685 26.8873 7.68189 26.8873 8.41879V10.7885C26.8873 11.2027 26.5045 11.537 26.0389 11.5526Z" fill="white" stroke="white" stroke-width="1.5" stroke-linecap="round" stroke-linejoin="round"/>
</svg>
