<svg width="18" height="18" viewBox="0 0 18 18" fill="none" xmlns="http://www.w3.org/2000/svg">
<path d="M6.49681 11.2081L0.265935 8.80634L8.82776 8.78815L6.49681 11.2081Z" fill="url(#paint0_linear_2470_976)"/>
<path d="M0.265916 8.80633L8.82774 8.78813L6.58754 6.42279L0.265916 8.80633Z" fill="url(#paint1_linear_2470_976)"/>
<path d="M8.82768 8.78815L9.0908 0L6.58748 6.42281L8.82768 8.78815Z" fill="url(#paint2_linear_2470_976)"/>
<path d="M8.82767 8.78817L17.2658 8.80637L11.1904 6.47742L8.82767 8.78817Z" fill="url(#paint3_linear_2470_976)"/>
<path d="M11.1904 6.47739L8.8277 8.78815L9.09082 0L11.1904 6.47739Z" fill="url(#paint4_linear_2470_976)"/>
<path d="M8.82764 8.78815L8.56125 17.6855L11.0306 11.2263L8.82764 8.78815Z" fill="url(#paint5_linear_2470_976)"/>
<path d="M11.0306 11.2263L17.2658 8.80634L8.82764 8.78815L11.0306 11.2263Z" fill="url(#paint6_linear_2470_976)"/>
<path d="M8.82771 8.78815L8.5614 17.6827L6.49676 11.2081L8.82771 8.78815Z" fill="url(#paint7_linear_2470_976)"/>
<defs>
<linearGradient id="paint0_linear_2470_976" x1="0.247215" y1="10.0163" x2="8.76584" y2="10.2714" gradientUnits="userSpaceOnUse">
<stop stop-color="#14A6E7"/>
<stop offset="1" stop-color="#256CD2"/>
</linearGradient>
<linearGradient id="paint1_linear_2470_976" x1="2.23052" y1="8.09672" x2="8.65683" y2="8.82538" gradientUnits="userSpaceOnUse">
<stop stop-color="#12EEEE"/>
<stop offset="1" stop-color="#20CEEE"/>
</linearGradient>
<linearGradient id="paint2_linear_2470_976" x1="8.06476" y1="2.69285" x2="8.98138" y2="8.64231" gradientUnits="userSpaceOnUse">
<stop stop-color="#27AEE3"/>
<stop offset="1" stop-color="#2471CF"/>
</linearGradient>
<linearGradient id="paint3_linear_2470_976" x1="9.14389" y1="8.75178" x2="14.1676" y2="7.89441" gradientUnits="userSpaceOnUse">
<stop stop-color="#A82FA5"/>
<stop offset="1" stop-color="#F23FA1"/>
</linearGradient>
<linearGradient id="paint4_linear_2470_976" x1="9.82536" y1="2.36534" x2="8.94964" y2="8.65895" gradientUnits="userSpaceOnUse">
<stop stop-color="#E946EA"/>
<stop offset="1" stop-color="#A54BE2"/>
</linearGradient>
<linearGradient id="paint5_linear_2470_976" x1="9.50289" y1="9.62511" x2="8.93325" y2="17.0077" gradientUnits="userSpaceOnUse">
<stop stop-color="#EE44A0"/>
<stop offset="1" stop-color="#AB37AE"/>
</linearGradient>
<linearGradient id="paint6_linear_2470_976" x1="8.80837" y1="10.0163" x2="17.1871" y2="10.2672" gradientUnits="userSpaceOnUse">
<stop stop-color="#FA8D5D"/>
<stop offset="1" stop-color="#FBDF32"/>
</linearGradient>
<linearGradient id="paint7_linear_2470_976" x1="7.90213" y1="9.87984" x2="8.54076" y2="16.2609" gradientUnits="userSpaceOnUse">
<stop stop-color="#24E8F8"/>
<stop offset="1" stop-color="#21D2F0"/>
</linearGradient>
</defs>
</svg>
