<svg width="18" height="18" viewBox="0 0 18 18" fill="none" xmlns="http://www.w3.org/2000/svg">
<path d="M9 7.5C10.6569 7.5 12 6.15685 12 4.5C12 2.84315 10.6569 1.5 9 1.5C7.34315 1.5 6 2.84315 6 4.5C6 6.15685 7.34315 7.5 9 7.5Z" stroke="#50C4ED" stroke-width="1.125"/>
<path d="M11.25 15.4613C10.568 15.6464 9.8052 15.75 9 15.75C6.10051 15.75 3.75 14.4068 3.75 12.75C3.75 11.0932 6.10051 9.75 9 9.75C11.8995 9.75 14.25 11.0932 14.25 12.75C14.25 13.009 14.1925 13.2603 14.0846 13.5" stroke="#50C4ED" stroke-width="1.125" stroke-linecap="round"/>
</svg>
