<svg width="24" height="24" viewBox="0 0 24 24" fill="none" xmlns="http://www.w3.org/2000/svg">
<path d="M11.25 2C9.88382 2.00133 8.73117 2.01015 7.75 2.0685V6.24976H11.25V2Z" fill="#FFFCF8"/>
<path d="M6.24998 2.22137C5.02725 2.41563 4.14848 2.78016 3.46445 3.4642C2.78041 4.14823 2.41588 5.027 2.22162 6.24973H6.24998V2.22137Z" fill="#FFFCF8"/>
<path fill-rule="evenodd" clip-rule="evenodd" d="M2 11.9998C2 10.2993 2 8.90556 2.06874 7.74976H21.9313C22 8.90556 22 10.2993 22 11.9998C22 13.7002 22 15.094 21.9313 16.2498H2.06874C2 15.094 2 13.7002 2 11.9998ZM12.4112 10.4043C13.4704 11.1162 14 11.4722 14 12C14 12.5278 13.4704 12.8838 12.4112 13.5957C11.3375 14.3173 10.8006 14.6781 10.4003 14.4132C10 14.1483 10 13.4322 10 12C10 10.5678 10 9.85174 10.4003 9.58682C10.8006 9.3219 11.3375 9.68271 12.4112 10.4043Z" fill="#FFFCF8"/>
<path d="M21.7784 6.24973C21.5841 5.027 21.2196 4.14823 20.5355 3.4642C19.8515 2.78016 18.9727 2.41563 17.75 2.22137V6.24973H21.7784Z" fill="#FFFCF8"/>
<path d="M12.75 2C14.1162 2.00133 15.2688 2.01015 16.25 2.0685V6.24976H12.75V2Z" fill="#FFFCF8"/>
<path d="M21.7784 17.7498H17.75V21.7781C18.9727 21.5839 19.8515 21.2193 20.5355 20.5353C21.2196 19.8513 21.5841 18.9725 21.7784 17.7498Z" fill="#FFFCF8"/>
<path d="M16.25 17.7498V21.931C15.2688 21.9894 14.1162 21.9982 12.75 21.9995V17.7498H16.25Z" fill="#FFFCF8"/>
<path d="M11.25 21.9995V17.7498H7.75V21.931C8.73117 21.9894 9.88382 21.9982 11.25 21.9995Z" fill="#FFFCF8"/>
<path d="M6.24998 17.7498V21.7781C5.02725 21.5839 4.14848 21.2193 3.46445 20.5353C2.78041 19.8513 2.41588 18.9725 2.22162 17.7498H6.24998Z" fill="#FFFCF8"/>
</svg>
